<?xml version="1.0" encoding="UTF-8" standalone="no"?>
<!DOCTYPE svg PUBLIC "-//W3C//DTD SVG 1.1//EN"
 "http://www.w3.org/Graphics/SVG/1.1/DTD/svg11.dtd">
<!-- Generated by graphviz version 14.1.2 (20260124.0452)
 -->
<!-- Title: e_1 Pages: 1 -->
<svg width="1604pt" height="1420pt"
 viewBox="0.00 0.00 1604.00 1420.00" xmlns="http://www.w3.org/2000/svg" xmlns:xlink="http://www.w3.org/1999/xlink">
<g id="graph0" class="graph" transform="scale(1 1) rotate(0) translate(4 1416)">
<title>e_1</title>
<polygon fill="white" stroke="none" points="-4,4 -4,-1416 1600.25,-1416 1600.25,4 -4,4"/>
<!-- e_24 -->
<g id="node1" class="node">
<title>e_24</title>
<polygon fill="#3a85b9" stroke="black" points="894.62,-765 732.38,-765 732.38,-729 894.62,-729 894.62,-765"/>
<text xml:space="preserve" text-anchor="middle" x="813.5" y="-739.25" font-family="Times New Roman,serif" font-size="20.00" fill="white">38 int(sys.argv[1])</text>
</g>
<!-- e_16 -->
<g id="node2" class="node">
<title>e_16</title>
<path fill="#85cbd0" stroke="black" d="M46,-830C46,-830 12,-830 12,-830 6,-830 0,-824 0,-818 0,-818 0,-806 0,-806 0,-800 6,-794 12,-794 12,-794 46,-794 46,-794 52,-794 58,-800 58,-806 58,-806 58,-818 58,-818 58,-824 52,-830 46,-830"/>
<text xml:space="preserve" text-anchor="middle" x="29" y="-804.25" font-family="Times New Roman,serif" font-size="20.00">&#45;1 int</text>
</g>
<!-- e_24&#45;&gt;e_16 -->
<g id="edge3" class="edge">
<title>e_24&#45;&gt;e_16</title>
<path fill="none" stroke="black" d="M732.24,-759.8C698.43,-764.83 658.63,-770.28 622.5,-774 415.03,-795.36 165.37,-806.7 69.83,-810.51"/>
<polygon fill="black" stroke="black" points="69.8,-807.01 59.94,-810.9 70.07,-814 69.8,-807.01"/>
<text xml:space="preserve" text-anchor="middle" x="380" y="-798.93" font-family="Times New Roman,serif" font-size="14.00">.__class__</text>
</g>
<!-- e_23 -->
<g id="node26" class="node">
<title>e_23</title>
<path fill="#85cbd0" stroke="black" d="M576.75,-765C576.75,-765 472.25,-765 472.25,-765 466.25,-765 460.25,-759 460.25,-753 460.25,-753 460.25,-741 460.25,-741 460.25,-735 466.25,-729 472.25,-729 472.25,-729 576.75,-729 576.75,-729 582.75,-729 588.75,-735 588.75,-741 588.75,-741 588.75,-753 588.75,-753 588.75,-759 582.75,-765 576.75,-765"/>
<text xml:space="preserve" text-anchor="middle" x="524.5" y="-739.25" font-family="Times New Roman,serif" font-size="20.00">38 sys.argv[1]</text>
</g>
<!-- e_24&#45;&gt;e_23 -->
<g id="edge4" class="edge">
<title>e_24&#45;&gt;e_23</title>
<path fill="none" stroke="black" d="M732.17,-747C690.88,-747 640.87,-747 600.39,-747"/>
<polygon fill="black" stroke="black" points="600.48,-743.5 590.48,-747 600.48,-750.5 600.48,-743.5"/>
</g>
<!-- e_22 -->
<g id="node3" class="node">
<title>e_22</title>
<path fill="#85cbd0" stroke="black" d="M257.25,-765C257.25,-765 227.25,-765 227.25,-765 221.25,-765 215.25,-759 215.25,-753 215.25,-753 215.25,-741 215.25,-741 215.25,-735 221.25,-729 227.25,-729 227.25,-729 257.25,-729 257.25,-729 263.25,-729 269.25,-735 269.25,-741 269.25,-741 269.25,-753 269.25,-753 269.25,-759 263.25,-765 257.25,-765"/>
<text xml:space="preserve" text-anchor="middle" x="242.25" y="-739.25" font-family="Times New Roman,serif" font-size="20.00">38 1</text>
</g>
<!-- e_22&#45;&gt;e_16 -->
<g id="edge1" class="edge">
<title>e_22&#45;&gt;e_16</title>
<path fill="none" stroke="black" d="M214.8,-743.91C180.81,-741.14 120.85,-740.4 76,-762.5 65.53,-767.66 56.26,-776.28 48.83,-784.89"/>
<polygon fill="black" stroke="black" points="46.22,-782.54 42.72,-792.54 51.69,-786.91 46.22,-782.54"/>
<text xml:space="preserve" text-anchor="middle" x="104.5" y="-765.7" font-family="Times New Roman,serif" font-size="14.00">.__class__</text>
</g>
<!-- e_36 -->
<g id="node4" class="node">
<title>e_36</title>
<path fill="#85cbd0" stroke="black" d="M997.25,-82C997.25,-82 941.5,-82 941.5,-82 935.5,-82 929.5,-76 929.5,-70 929.5,-70 929.5,-58 929.5,-58 929.5,-52 935.5,-46 941.5,-46 941.5,-46 997.25,-46 997.25,-46 1003.25,-46 1009.25,-52 1009.25,-58 1009.25,-58 1009.25,-70 1009.25,-70 1009.25,-76 1003.25,-82 997.25,-82"/>
<text xml:space="preserve" text-anchor="middle" x="969.38" y="-56.25" font-family="Times New Roman,serif" font-size="20.00">30 5000</text>
</g>
<!-- e_36&#45;&gt;e_16 -->
<g id="edge56" class="edge">
<title>e_36&#45;&gt;e_16</title>
<path fill="none" stroke="black" d="M929.28,-63.36C872.27,-62.47 762.99,-61 670,-61 670,-61 670,-61 241.25,-61 166.52,-61 125.53,-36.05 76,-92 29.65,-144.36 29.16,-653.17 29.79,-782.32"/>
<polygon fill="black" stroke="black" points="26.29,-782.11 29.85,-792.09 33.29,-782.07 26.29,-782.11"/>
<text xml:space="preserve" text-anchor="middle" x="524.5" y="-64.2" font-family="Times New Roman,serif" font-size="14.00">.__class__</text>
</g>
<!-- e_47 -->
<g id="node5" class="node">
<title>e_47</title>
<path fill="#85cbd0" stroke="black" d="M257.25,-1171C257.25,-1171 227.25,-1171 227.25,-1171 221.25,-1171 215.25,-1165 215.25,-1159 215.25,-1159 215.25,-1147 215.25,-1147 215.25,-1141 221.25,-1135 227.25,-1135 227.25,-1135 257.25,-1135 257.25,-1135 263.25,-1135 269.25,-1141 269.25,-1147 269.25,-1147 269.25,-1159 269.25,-1159 269.25,-1165 263.25,-1171 257.25,-1171"/>
<text xml:space="preserve" text-anchor="middle" x="242.25" y="-1145.25" font-family="Times New Roman,serif" font-size="20.00">7 0</text>
</g>
<!-- e_47&#45;&gt;e_16 -->
<g id="edge57" class="edge">
<title>e_47&#45;&gt;e_16</title>
<path fill="none" stroke="black" d="M214.9,-1156.34C178.18,-1159.37 112.07,-1158.68 76,-1121 38.05,-1081.36 31.35,-911.33 30.21,-841.8"/>
<polygon fill="black" stroke="black" points="33.72,-841.88 30.08,-831.93 26.72,-841.97 33.72,-841.88"/>
<text xml:space="preserve" text-anchor="middle" x="104.5" y="-1153.85" font-family="Times New Roman,serif" font-size="14.00">.__class__</text>
</g>
<!-- e_86 -->
<g id="node6" class="node">
<title>e_86</title>
<path fill="#85cbd0" stroke="black" d="M1469.38,-983C1469.38,-983 1439.38,-983 1439.38,-983 1433.38,-983 1427.38,-977 1427.38,-971 1427.38,-971 1427.38,-959 1427.38,-959 1427.38,-953 1433.38,-947 1439.38,-947 1439.38,-947 1469.38,-947 1469.38,-947 1475.38,-947 1481.38,-953 1481.38,-959 1481.38,-959 1481.38,-971 1481.38,-971 1481.38,-977 1475.38,-983 1469.38,-983"/>
<text xml:space="preserve" text-anchor="middle" x="1454.38" y="-957.25" font-family="Times New Roman,serif" font-size="20.00">24 i</text>
</g>
<!-- e_86&#45;&gt;e_16 -->
<g id="edge8" class="edge">
<title>e_86&#45;&gt;e_16</title>
<path fill="none" stroke="black" d="M1427.11,-970C1398.78,-975.45 1352.38,-984.52 1312.5,-993 1237.84,-1008.89 1221.34,-1031 1145,-1031 1145,-1031 1145,-1031 241.25,-1031 162.81,-1031 126.78,-1028.79 76,-969 45,-932.5 34.88,-875.97 31.58,-841.63"/>
<polygon fill="black" stroke="black" points="35.1,-841.67 30.8,-831.99 28.12,-842.24 35.1,-841.67"/>
<text xml:space="preserve" text-anchor="middle" x="669" y="-1034.2" font-family="Times New Roman,serif" font-size="14.00">.__class__</text>
</g>
<!-- e_25 -->
<g id="node27" class="node">
<title>e_25</title>
<path fill="#85cbd0" stroke="black" d="M1159.5,-671C1159.5,-671 1128.5,-671 1128.5,-671 1122.5,-671 1116.5,-665 1116.5,-659 1116.5,-659 1116.5,-647 1116.5,-647 1116.5,-641 1122.5,-635 1128.5,-635 1128.5,-635 1159.5,-635 1159.5,-635 1165.5,-635 1171.5,-641 1171.5,-647 1171.5,-647 1171.5,-659 1171.5,-659 1171.5,-665 1165.5,-671 1159.5,-671"/>
<text xml:space="preserve" text-anchor="middle" x="1144" y="-645.25" font-family="Times New Roman,serif" font-size="20.00">38 N</text>
</g>
<!-- e_86&#45;&gt;e_25 -->
<g id="edge9" class="edge">
<title>e_86&#45;&gt;e_25</title>
<path fill="none" stroke="black" stroke-dasharray="5,2" d="M1426.93,-968.14C1394.85,-970.33 1341.47,-968.45 1312.5,-937 1288.71,-911.17 1311.04,-810.98 1294.5,-780 1268.84,-731.94 1216.88,-694.36 1181.5,-672.92"/>
<polygon fill="none" stroke="black" points="1183.69,-670.15 1173.3,-668.08 1180.13,-676.18 1183.69,-670.15"/>
</g>
<!-- e_129 -->
<g id="node7" class="node">
<title>e_129</title>
<path fill="#85cbd0" stroke="black" d="M1469.38,-750C1469.38,-750 1439.38,-750 1439.38,-750 1433.38,-750 1427.38,-744 1427.38,-738 1427.38,-738 1427.38,-726 1427.38,-726 1427.38,-720 1433.38,-714 1439.38,-714 1439.38,-714 1469.38,-714 1469.38,-714 1475.38,-714 1481.38,-720 1481.38,-726 1481.38,-726 1481.38,-738 1481.38,-738 1481.38,-744 1475.38,-750 1469.38,-750"/>
<text xml:space="preserve" text-anchor="middle" x="1454.38" y="-724.25" font-family="Times New Roman,serif" font-size="20.00">24 i</text>
</g>
<!-- e_129&#45;&gt;e_16 -->
<g id="edge10" class="edge">
<title>e_129&#45;&gt;e_16</title>
<path fill="none" stroke="black" d="M1427.15,-730.61C1395.03,-730.46 1341.36,-735.56 1312.5,-768 1272.56,-812.9 1339.73,-862.44 1294.5,-902 1269,-924.31 108,-856.13 76,-845 70.2,-842.98 64.49,-839.98 59.17,-836.6"/>
<polygon fill="black" stroke="black" points="61.52,-833.97 51.32,-831.1 57.5,-839.71 61.52,-833.97"/>
<text xml:space="preserve" text-anchor="middle" x="669" y="-889.69" font-family="Times New Roman,serif" font-size="14.00">.__class__</text>
</g>
<!-- e_129&#45;&gt;e_25 -->
<g id="edge11" class="edge">
<title>e_129&#45;&gt;e_25</title>
<path fill="none" stroke="black" stroke-dasharray="5,2" d="M1426.88,-723.4C1398.55,-714.2 1352.33,-699.14 1312.5,-686 1304.49,-683.36 1302.67,-682.09 1294.5,-680 1257.17,-670.46 1213.75,-663.01 1183.36,-658.38"/>
<polygon fill="none" stroke="black" points="1183.89,-654.92 1173.48,-656.91 1182.86,-661.84 1183.89,-654.92"/>
</g>
<!-- e_169 -->
<g id="node8" class="node">
<title>e_169</title>
<path fill="#85cbd0" stroke="black" d="M1469.38,-872C1469.38,-872 1439.38,-872 1439.38,-872 1433.38,-872 1427.38,-866 1427.38,-860 1427.38,-860 1427.38,-848 1427.38,-848 1427.38,-842 1433.38,-836 1439.38,-836 1439.38,-836 1469.38,-836 1469.38,-836 1475.38,-836 1481.38,-842 1481.38,-848 1481.38,-848 1481.38,-860 1481.38,-860 1481.38,-866 1475.38,-872 1469.38,-872"/>
<text xml:space="preserve" text-anchor="middle" x="1454.38" y="-846.25" font-family="Times New Roman,serif" font-size="20.00">24 i</text>
</g>
<!-- e_169&#45;&gt;e_16 -->
<g id="edge12" class="edge">
<title>e_169&#45;&gt;e_16</title>
<path fill="none" stroke="black" d="M1426.99,-851.94C1395.71,-851 1343.88,-854.41 1312.5,-883 1292.23,-901.46 1316.42,-925.53 1294.5,-942 1239.03,-983.7 739.4,-951 670,-951 670,-951 670,-951 241.25,-951 164.52,-951 134.99,-950.07 76,-901 57.44,-885.57 45.49,-860.71 38.43,-841.19"/>
<polygon fill="black" stroke="black" points="41.8,-840.23 35.31,-831.86 35.16,-842.45 41.8,-840.23"/>
<text xml:space="preserve" text-anchor="middle" x="669" y="-954.8" font-family="Times New Roman,serif" font-size="14.00">.__class__</text>
</g>
<!-- e_169&#45;&gt;e_25 -->
<g id="edge13" class="edge">
<title>e_169&#45;&gt;e_25</title>
<path fill="none" stroke="black" stroke-dasharray="5,2" d="M1426.97,-855.94C1395.19,-856.72 1342.37,-852.78 1312.5,-822 1283.49,-792.1 1319.52,-763.31 1294.5,-730 1266.97,-693.35 1216.98,-672.69 1182.43,-662.2"/>
<polygon fill="none" stroke="black" points="1183.83,-658.96 1173.25,-659.56 1181.9,-665.68 1183.83,-658.96"/>
</g>
<!-- e_209 -->
<g id="node9" class="node">
<title>e_209</title>
<path fill="#85cbd0" stroke="black" d="M1469.38,-1299C1469.38,-1299 1439.38,-1299 1439.38,-1299 1433.38,-1299 1427.38,-1293 1427.38,-1287 1427.38,-1287 1427.38,-1275 1427.38,-1275 1427.38,-1269 1433.38,-1263 1439.38,-1263 1439.38,-1263 1469.38,-1263 1469.38,-1263 1475.38,-1263 1481.38,-1269 1481.38,-1275 1481.38,-1275 1481.38,-1287 1481.38,-1287 1481.38,-1293 1475.38,-1299 1469.38,-1299"/>
<text xml:space="preserve" text-anchor="middle" x="1454.38" y="-1273.25" font-family="Times New Roman,serif" font-size="20.00">24 i</text>
</g>
<!-- e_209&#45;&gt;e_16 -->
<g id="edge14" class="edge">
<title>e_209&#45;&gt;e_16</title>
<path fill="none" stroke="black" d="M1426.98,-1281.86C1373.69,-1283.52 1249.42,-1287 1145,-1287 1145,-1287 1145,-1287 241.25,-1287 162.81,-1287 124.18,-1286.9 76,-1225 29.54,-1165.31 28.33,-926.32 29.41,-841.8"/>
<polygon fill="black" stroke="black" points="32.91,-842.05 29.56,-832 25.91,-841.95 32.91,-842.05"/>
<text xml:space="preserve" text-anchor="middle" x="669" y="-1290.2" font-family="Times New Roman,serif" font-size="14.00">.__class__</text>
</g>
<!-- e_209&#45;&gt;e_25 -->
<g id="edge15" class="edge">
<title>e_209&#45;&gt;e_25</title>
<path fill="none" stroke="black" stroke-dasharray="5,2" d="M1427.09,-1280.44C1395.91,-1278.39 1344.19,-1270.4 1312.5,-1241 1227.65,-1162.28 1165.8,-790.92 1149.35,-682.68"/>
<polygon fill="none" stroke="black" points="1152.82,-682.23 1147.87,-672.86 1145.9,-683.27 1152.82,-682.23"/>
</g>
<!-- e_249 -->
<g id="node10" class="node">
<title>e_249</title>
<path fill="#85cbd0" stroke="black" d="M1469.38,-928C1469.38,-928 1439.38,-928 1439.38,-928 1433.38,-928 1427.38,-922 1427.38,-916 1427.38,-916 1427.38,-904 1427.38,-904 1427.38,-898 1433.38,-892 1439.38,-892 1439.38,-892 1469.38,-892 1469.38,-892 1475.38,-892 1481.38,-898 1481.38,-904 1481.38,-904 1481.38,-916 1481.38,-916 1481.38,-922 1475.38,-928 1469.38,-928"/>
<text xml:space="preserve" text-anchor="middle" x="1454.38" y="-902.25" font-family="Times New Roman,serif" font-size="20.00">24 i</text>
</g>
<!-- e_249&#45;&gt;e_16 -->
<g id="edge16" class="edge">
<title>e_249&#45;&gt;e_16</title>
<path fill="none" stroke="black" d="M1426.9,-910.19C1397.15,-911.5 1348.34,-917.04 1312.5,-938 1301.89,-944.21 1304.45,-951.78 1294.5,-959 1281.36,-968.54 1276.38,-968.61 1260.75,-973 1210.63,-987.07 1197.06,-991 1145,-991 1145,-991 1145,-991 241.25,-991 163.41,-991 129.93,-989.13 76,-933 51.72,-907.73 39.95,-868.35 34.46,-841.43"/>
<polygon fill="black" stroke="black" points="37.95,-841.07 32.69,-831.87 31.07,-842.34 37.95,-841.07"/>
<text xml:space="preserve" text-anchor="middle" x="669" y="-994.2" font-family="Times New Roman,serif" font-size="14.00">.__class__</text>
</g>
<!-- e_249&#45;&gt;e_25 -->
<g id="edge17" class="edge">
<title>e_249&#45;&gt;e_25</title>
<path fill="none" stroke="black" stroke-dasharray="5,2" d="M1427.05,-912.8C1395.09,-914.61 1341.84,-912.19 1312.5,-881 1273.74,-839.8 1324.4,-803.02 1294.5,-755 1268.23,-712.82 1217.37,-683.83 1182.32,-667.83"/>
<polygon fill="none" stroke="black" points="1183.94,-664.72 1173.38,-663.89 1181.12,-671.13 1183.94,-664.72"/>
</g>
<!-- e_289 -->
<g id="node11" class="node">
<title>e_289</title>
<path fill="#85cbd0" stroke="black" d="M1469.38,-813C1469.38,-813 1439.38,-813 1439.38,-813 1433.38,-813 1427.38,-807 1427.38,-801 1427.38,-801 1427.38,-789 1427.38,-789 1427.38,-783 1433.38,-777 1439.38,-777 1439.38,-777 1469.38,-777 1469.38,-777 1475.38,-777 1481.38,-783 1481.38,-789 1481.38,-789 1481.38,-801 1481.38,-801 1481.38,-807 1475.38,-813 1469.38,-813"/>
<text xml:space="preserve" text-anchor="middle" x="1454.38" y="-787.25" font-family="Times New Roman,serif" font-size="20.00">24 i</text>
</g>
<!-- e_289&#45;&gt;e_16 -->
<g id="edge18" class="edge">
<title>e_289&#45;&gt;e_16</title>
<path fill="none" stroke="black" d="M1426.9,-792.99C1395.03,-792.13 1342.13,-796 1312.5,-827 1281.3,-859.65 1329.15,-898.03 1294.5,-927 1289.13,-931.49 1285.75,-927.12 1278.75,-927 1262.04,-926.71 90.49,-893.33 76,-885 59.22,-875.36 47.66,-856.85 40.33,-840.89"/>
<polygon fill="black" stroke="black" points="43.6,-839.65 36.5,-831.78 37.15,-842.36 43.6,-839.65"/>
<text xml:space="preserve" text-anchor="middle" x="669" y="-912.75" font-family="Times New Roman,serif" font-size="14.00">.__class__</text>
</g>
<!-- e_289&#45;&gt;e_25 -->
<g id="edge19" class="edge">
<title>e_289&#45;&gt;e_25</title>
<path fill="none" stroke="black" stroke-dasharray="5,2" d="M1427,-795.44C1395.73,-794.52 1343.91,-788.24 1312.5,-759 1293.98,-741.76 1312.27,-723 1294.5,-705 1264.71,-674.82 1216.52,-662.13 1182.93,-656.81"/>
<polygon fill="none" stroke="black" points="1183.6,-653.37 1173.21,-655.43 1182.62,-660.3 1183.6,-653.37"/>
</g>
<!-- e_329 -->
<g id="node12" class="node">
<title>e_329</title>
<path fill="#85cbd0" stroke="black" d="M1469.38,-677C1469.38,-677 1439.38,-677 1439.38,-677 1433.38,-677 1427.38,-671 1427.38,-665 1427.38,-665 1427.38,-653 1427.38,-653 1427.38,-647 1433.38,-641 1439.38,-641 1439.38,-641 1469.38,-641 1469.38,-641 1475.38,-641 1481.38,-647 1481.38,-653 1481.38,-653 1481.38,-665 1481.38,-665 1481.38,-671 1475.38,-677 1469.38,-677"/>
<text xml:space="preserve" text-anchor="middle" x="1454.38" y="-651.25" font-family="Times New Roman,serif" font-size="20.00">24 i</text>
</g>
<!-- e_329&#45;&gt;e_16 -->
<g id="edge20" class="edge">
<title>e_329&#45;&gt;e_16</title>
<path fill="none" stroke="black" d="M1427.02,-666.39C1308.76,-699.31 825.95,-831 670,-831 670,-831 670,-831 241.25,-831 181.17,-831 111.86,-823.28 69.49,-817.68"/>
<polygon fill="black" stroke="black" points="70.17,-814.24 59.79,-816.37 69.23,-821.18 70.17,-814.24"/>
<text xml:space="preserve" text-anchor="middle" x="669" y="-834.2" font-family="Times New Roman,serif" font-size="14.00">.__class__</text>
</g>
<!-- e_329&#45;&gt;e_25 -->
<g id="edge21" class="edge">
<title>e_329&#45;&gt;e_25</title>
<path fill="none" stroke="black" stroke-dasharray="5,2" d="M1426.95,-658.24C1395.43,-657.35 1341.12,-655.9 1294.5,-655 1256.58,-654.27 1213.25,-653.72 1183.03,-653.39"/>
<polygon fill="none" stroke="black" points="1183.29,-649.89 1173.25,-653.28 1183.21,-656.89 1183.29,-649.89"/>
</g>
<!-- e_369 -->
<g id="node13" class="node">
<title>e_369</title>
<path fill="#85cbd0" stroke="black" d="M1469.38,-1153C1469.38,-1153 1439.38,-1153 1439.38,-1153 1433.38,-1153 1427.38,-1147 1427.38,-1141 1427.38,-1141 1427.38,-1129 1427.38,-1129 1427.38,-1123 1433.38,-1117 1439.38,-1117 1439.38,-1117 1469.38,-1117 1469.38,-1117 1475.38,-1117 1481.38,-1123 1481.38,-1129 1481.38,-1129 1481.38,-1141 1481.38,-1141 1481.38,-1147 1475.38,-1153 1469.38,-1153"/>
<text xml:space="preserve" text-anchor="middle" x="1454.38" y="-1127.25" font-family="Times New Roman,serif" font-size="20.00">24 i</text>
</g>
<!-- e_369&#45;&gt;e_16 -->
<g id="edge22" class="edge">
<title>e_369&#45;&gt;e_16</title>
<path fill="none" stroke="black" d="M1426.91,-1136.76C1240.1,-1149.09 125.78,-1220.38 76,-1171 29.85,-1125.21 28.25,-918.88 29.33,-841.47"/>
<polygon fill="black" stroke="black" points="32.83,-841.76 29.5,-831.71 25.83,-841.65 32.83,-841.76"/>
<text xml:space="preserve" text-anchor="middle" x="669" y="-1182.66" font-family="Times New Roman,serif" font-size="14.00">.__class__</text>
</g>
<!-- e_369&#45;&gt;e_25 -->
<g id="edge23" class="edge">
<title>e_369&#45;&gt;e_25</title>
<path fill="none" stroke="black" stroke-dasharray="5,2" d="M1427.15,-1137.07C1394.78,-1138.03 1340.58,-1134.1 1312.5,-1101 1277.04,-1059.2 1313.56,-906.39 1294.5,-855 1287.18,-835.26 1205.94,-730.49 1166.38,-680.1"/>
<polygon fill="none" stroke="black" points="1169.38,-678.25 1160.45,-672.55 1163.87,-682.57 1169.38,-678.25"/>
</g>
<!-- e_409 -->
<g id="node14" class="node">
<title>e_409</title>
<path fill="#85cbd0" stroke="black" d="M1469.38,-1092C1469.38,-1092 1439.38,-1092 1439.38,-1092 1433.38,-1092 1427.38,-1086 1427.38,-1080 1427.38,-1080 1427.38,-1068 1427.38,-1068 1427.38,-1062 1433.38,-1056 1439.38,-1056 1439.38,-1056 1469.38,-1056 1469.38,-1056 1475.38,-1056 1481.38,-1062 1481.38,-1068 1481.38,-1068 1481.38,-1080 1481.38,-1080 1481.38,-1086 1475.38,-1092 1469.38,-1092"/>
<text xml:space="preserve" text-anchor="middle" x="1454.38" y="-1066.25" font-family="Times New Roman,serif" font-size="20.00">24 i</text>
</g>
<!-- e_409&#45;&gt;e_16 -->
<g id="edge24" class="edge">
<title>e_409&#45;&gt;e_16</title>
<path fill="none" stroke="black" d="M1426.9,-1079.44C1289.46,-1106.57 644.71,-1220.39 151,-1076 114.94,-1065.45 98.63,-1066.99 76,-1037 52.95,-1006.45 38.6,-895.18 32.87,-841.44"/>
<polygon fill="black" stroke="black" points="36.38,-841.39 31.87,-831.8 29.42,-842.11 36.38,-841.39"/>
<text xml:space="preserve" text-anchor="middle" x="669" y="-1150.67" font-family="Times New Roman,serif" font-size="14.00">.__class__</text>
</g>
<!-- e_409&#45;&gt;e_25 -->
<g id="edge25" class="edge">
<title>e_409&#45;&gt;e_25</title>
<path fill="none" stroke="black" stroke-dasharray="5,2" d="M1427.07,-1077.48C1394.88,-1080.09 1341.13,-1078.86 1312.5,-1047 1280.16,-1011.01 1312.99,-874.72 1294.5,-830 1280.4,-795.9 1209.74,-719.78 1170.82,-679.37"/>
<polygon fill="none" stroke="black" points="1173.55,-677.16 1164.08,-672.41 1168.52,-682.03 1173.55,-677.16"/>
</g>
<!-- e_449 -->
<g id="node15" class="node">
<title>e_449</title>
<path fill="#85cbd0" stroke="black" d="M1469.38,-1038C1469.38,-1038 1439.38,-1038 1439.38,-1038 1433.38,-1038 1427.38,-1032 1427.38,-1026 1427.38,-1026 1427.38,-1014 1427.38,-1014 1427.38,-1008 1433.38,-1002 1439.38,-1002 1439.38,-1002 1469.38,-1002 1469.38,-1002 1475.38,-1002 1481.38,-1008 1481.38,-1014 1481.38,-1014 1481.38,-1026 1481.38,-1026 1481.38,-1032 1475.38,-1038 1469.38,-1038"/>
<text xml:space="preserve" text-anchor="middle" x="1454.38" y="-1012.25" font-family="Times New Roman,serif" font-size="20.00">24 i</text>
</g>
<!-- e_449&#45;&gt;e_16 -->
<g id="edge26" class="edge">
<title>e_449&#45;&gt;e_16</title>
<path fill="none" stroke="black" d="M1426.89,-1024.89C1357.37,-1037.65 1173.08,-1071 1145,-1071 1145,-1071 1145,-1071 668,-1071 437.93,-1071 373.04,-1105.23 151,-1045 114.74,-1035.16 99.1,-1035.63 76,-1006 38.22,-957.52 30.72,-882.97 29.67,-841.83"/>
<polygon fill="black" stroke="black" points="33.17,-841.91 29.54,-831.95 26.17,-842 33.17,-841.91"/>
<text xml:space="preserve" text-anchor="middle" x="669" y="-1074.2" font-family="Times New Roman,serif" font-size="14.00">.__class__</text>
</g>
<!-- e_449&#45;&gt;e_25 -->
<g id="edge27" class="edge">
<title>e_449&#45;&gt;e_25</title>
<path fill="none" stroke="black" stroke-dasharray="5,2" d="M1427.12,-1023.21C1394.97,-1025.51 1341.27,-1023.81 1312.5,-992 1284.5,-961.04 1312.15,-842.83 1294.5,-805 1269.29,-750.96 1216.6,-704.74 1181.01,-677.9"/>
<polygon fill="none" stroke="black" points="1183.24,-675.2 1173.12,-672.07 1179.09,-680.83 1183.24,-675.2"/>
</g>
<!-- e_489 -->
<g id="node16" class="node">
<title>e_489</title>
<path fill="#85cbd0" stroke="black" d="M1469.38,-1232C1469.38,-1232 1439.38,-1232 1439.38,-1232 1433.38,-1232 1427.38,-1226 1427.38,-1220 1427.38,-1220 1427.38,-1208 1427.38,-1208 1427.38,-1202 1433.38,-1196 1439.38,-1196 1439.38,-1196 1469.38,-1196 1469.38,-1196 1475.38,-1196 1481.38,-1202 1481.38,-1208 1481.38,-1208 1481.38,-1220 1481.38,-1220 1481.38,-1226 1475.38,-1232 1469.38,-1232"/>
<text xml:space="preserve" text-anchor="middle" x="1454.38" y="-1206.25" font-family="Times New Roman,serif" font-size="20.00">24 i</text>
</g>
<!-- e_489&#45;&gt;e_16 -->
<g id="edge28" class="edge">
<title>e_489&#45;&gt;e_16</title>
<path fill="none" stroke="black" d="M1427.02,-1217.3C1373.81,-1223.66 1249.69,-1237 1145,-1237 1145,-1237 1145,-1237 241.25,-1237 165.01,-1237 125.7,-1248.81 76,-1191 31.1,-1138.77 28.79,-921.55 29.5,-841.66"/>
<polygon fill="black" stroke="black" points="33,-842.03 29.62,-831.99 26,-841.95 33,-842.03"/>
<text xml:space="preserve" text-anchor="middle" x="669" y="-1240.2" font-family="Times New Roman,serif" font-size="14.00">.__class__</text>
</g>
<!-- e_489&#45;&gt;e_25 -->
<g id="edge29" class="edge">
<title>e_489&#45;&gt;e_25</title>
<path fill="none" stroke="black" stroke-dasharray="5,2" d="M1427.06,-1211.18C1395.61,-1206.43 1343.37,-1193.99 1312.5,-1162 1176.74,-1021.3 1151,-768.57 1146.13,-682.58"/>
<polygon fill="none" stroke="black" points="1149.63,-682.46 1145.63,-672.65 1142.64,-682.81 1149.63,-682.46"/>
</g>
<!-- e_529 -->
<g id="node17" class="node">
<title>e_529</title>
<path fill="#85cbd0" stroke="black" d="M1469.38,-346C1469.38,-346 1439.38,-346 1439.38,-346 1433.38,-346 1427.38,-340 1427.38,-334 1427.38,-334 1427.38,-322 1427.38,-322 1427.38,-316 1433.38,-310 1439.38,-310 1439.38,-310 1469.38,-310 1469.38,-310 1475.38,-310 1481.38,-316 1481.38,-322 1481.38,-322 1481.38,-334 1481.38,-334 1481.38,-340 1475.38,-346 1469.38,-346"/>
<text xml:space="preserve" text-anchor="middle" x="1454.38" y="-320.25" font-family="Times New Roman,serif" font-size="20.00">24 i</text>
</g>
<!-- e_529&#45;&gt;e_16 -->
<g id="edge30" class="edge">
<title>e_529&#45;&gt;e_16</title>
<path fill="none" stroke="black" d="M1426.89,-324.18C1397.97,-319.43 1350.7,-309.94 1312.5,-294 1287.54,-283.59 1285.36,-273.22 1260.75,-262 1211.73,-239.66 1198.88,-226 1145,-226 1145,-226 1145,-226 241.25,-226 155.4,-226 112.82,-248.45 76,-326 37.3,-407.52 31.15,-689.68 30.18,-782.29"/>
<polygon fill="black" stroke="black" points="26.68,-782.04 30.09,-792.07 33.68,-782.11 26.68,-782.04"/>
<text xml:space="preserve" text-anchor="middle" x="669" y="-229.2" font-family="Times New Roman,serif" font-size="14.00">.__class__</text>
</g>
<!-- e_529&#45;&gt;e_25 -->
<g id="edge31" class="edge">
<title>e_529&#45;&gt;e_25</title>
<path fill="none" stroke="black" stroke-dasharray="5,2" d="M1426.99,-325.62C1395.23,-324.33 1342.42,-327.45 1312.5,-358 1282.73,-388.39 1311.63,-413.06 1294.5,-452 1278.04,-489.43 1205.1,-580.32 1167.53,-625.94"/>
<polygon fill="none" stroke="black" points="1164.94,-623.59 1161.26,-633.53 1170.33,-628.05 1164.94,-623.59"/>
</g>
<!-- e_569 -->
<g id="node18" class="node">
<title>e_569</title>
<path fill="#85cbd0" stroke="black" d="M1469.38,-218C1469.38,-218 1439.38,-218 1439.38,-218 1433.38,-218 1427.38,-212 1427.38,-206 1427.38,-206 1427.38,-194 1427.38,-194 1427.38,-188 1433.38,-182 1439.38,-182 1439.38,-182 1469.38,-182 1469.38,-182 1475.38,-182 1481.38,-188 1481.38,-194 1481.38,-194 1481.38,-206 1481.38,-206 1481.38,-212 1475.38,-218 1469.38,-218"/>
<text xml:space="preserve" text-anchor="middle" x="1454.38" y="-192.25" font-family="Times New Roman,serif" font-size="20.00">24 i</text>
</g>
<!-- e_569&#45;&gt;e_16 -->
<g id="edge32" class="edge">
<title>e_569&#45;&gt;e_16</title>
<path fill="none" stroke="black" d="M1426.9,-194.82C1357.39,-181.31 1173.13,-146 1145,-146 1145,-146 1145,-146 241.25,-146 164.64,-146 123.8,-135.14 76,-195 39.06,-241.26 31.63,-665.38 30.28,-782.28"/>
<polygon fill="black" stroke="black" points="26.78,-781.96 30.17,-792 33.78,-782.04 26.78,-781.96"/>
<text xml:space="preserve" text-anchor="middle" x="669" y="-149.2" font-family="Times New Roman,serif" font-size="14.00">.__class__</text>
</g>
<!-- e_569&#45;&gt;e_25 -->
<g id="edge33" class="edge">
<title>e_569&#45;&gt;e_25</title>
<path fill="none" stroke="black" stroke-dasharray="5,2" d="M1426.95,-199.31C1394.63,-200.04 1340.75,-206.62 1312.5,-240 1289.1,-267.65 1306.03,-367.66 1294.5,-402 1292.46,-408.08 1200.39,-561.12 1161.77,-625.19"/>
<polygon fill="none" stroke="black" points="1159,-623.01 1156.84,-633.38 1165,-626.62 1159,-623.01"/>
</g>
<!-- e_609 -->
<g id="node19" class="node">
<title>e_609</title>
<path fill="#85cbd0" stroke="black" d="M1469.38,-622C1469.38,-622 1439.38,-622 1439.38,-622 1433.38,-622 1427.38,-616 1427.38,-610 1427.38,-610 1427.38,-598 1427.38,-598 1427.38,-592 1433.38,-586 1439.38,-586 1439.38,-586 1469.38,-586 1469.38,-586 1475.38,-586 1481.38,-592 1481.38,-598 1481.38,-598 1481.38,-610 1481.38,-610 1481.38,-616 1475.38,-622 1469.38,-622"/>
<text xml:space="preserve" text-anchor="middle" x="1454.38" y="-596.25" font-family="Times New Roman,serif" font-size="20.00">24 i</text>
</g>
<!-- e_609&#45;&gt;e_16 -->
<g id="edge34" class="edge">
<title>e_609&#45;&gt;e_16</title>
<path fill="none" stroke="black" d="M1426.99,-602.14C1373.72,-598.54 1249.49,-591 1145,-591 1145,-591 1145,-591 241.25,-591 136.07,-591 67.14,-723.43 41.37,-783.26"/>
<polygon fill="black" stroke="black" points="38.28,-781.57 37.64,-792.14 44.74,-784.27 38.28,-781.57"/>
<text xml:space="preserve" text-anchor="middle" x="669" y="-594.2" font-family="Times New Roman,serif" font-size="14.00">.__class__</text>
</g>
<!-- e_609&#45;&gt;e_25 -->
<g id="edge35" class="edge">
<title>e_609&#45;&gt;e_25</title>
<path fill="none" stroke="black" stroke-dasharray="5,2" d="M1427.08,-608.18C1372.37,-616.87 1246.11,-636.93 1182.73,-647"/>
<polygon fill="none" stroke="black" points="1182.48,-643.5 1173.16,-648.53 1183.58,-650.41 1182.48,-643.5"/>
</g>
<!-- e_649 -->
<g id="node20" class="node">
<title>e_649</title>
<path fill="#85cbd0" stroke="black" d="M1469.38,-568C1469.38,-568 1439.38,-568 1439.38,-568 1433.38,-568 1427.38,-562 1427.38,-556 1427.38,-556 1427.38,-544 1427.38,-544 1427.38,-538 1433.38,-532 1439.38,-532 1439.38,-532 1469.38,-532 1469.38,-532 1475.38,-532 1481.38,-538 1481.38,-544 1481.38,-544 1481.38,-556 1481.38,-556 1481.38,-562 1475.38,-568 1469.38,-568"/>
<text xml:space="preserve" text-anchor="middle" x="1454.38" y="-542.25" font-family="Times New Roman,serif" font-size="20.00">24 i</text>
</g>
<!-- e_649&#45;&gt;e_16 -->
<g id="edge36" class="edge">
<title>e_649&#45;&gt;e_16</title>
<path fill="none" stroke="black" d="M1427.1,-548.1C1264.53,-536.72 394.91,-481.18 151,-577 110.48,-592.92 99.37,-603.27 76,-640 47.6,-684.63 36.61,-746.47 32.45,-782.55"/>
<polygon fill="black" stroke="black" points="29,-781.92 31.44,-792.23 35.96,-782.65 29,-781.92"/>
<text xml:space="preserve" text-anchor="middle" x="669" y="-525.57" font-family="Times New Roman,serif" font-size="14.00">.__class__</text>
</g>
<!-- e_649&#45;&gt;e_25 -->
<g id="edge37" class="edge">
<title>e_649&#45;&gt;e_25</title>
<path fill="none" stroke="black" stroke-dasharray="5,2" d="M1426.95,-553.16C1398.29,-557.03 1351.42,-564.63 1312.5,-577 1265.95,-591.79 1215.24,-616.04 1181.95,-633.16"/>
<polygon fill="none" stroke="black" points="1180.38,-630.03 1173.12,-637.75 1183.61,-636.24 1180.38,-630.03"/>
</g>
<!-- e_689 -->
<g id="node21" class="node">
<title>e_689</title>
<path fill="#85cbd0" stroke="black" d="M1469.38,-163C1469.38,-163 1439.38,-163 1439.38,-163 1433.38,-163 1427.38,-157 1427.38,-151 1427.38,-151 1427.38,-139 1427.38,-139 1427.38,-133 1433.38,-127 1439.38,-127 1439.38,-127 1469.38,-127 1469.38,-127 1475.38,-127 1481.38,-133 1481.38,-139 1481.38,-139 1481.38,-151 1481.38,-151 1481.38,-157 1475.38,-163 1469.38,-163"/>
<text xml:space="preserve" text-anchor="middle" x="1454.38" y="-137.25" font-family="Times New Roman,serif" font-size="20.00">24 i</text>
</g>
<!-- e_689&#45;&gt;e_16 -->
<g id="edge38" class="edge">
<title>e_689&#45;&gt;e_16</title>
<path fill="none" stroke="black" d="M1427.12,-139.41C1374.07,-128.63 1250.23,-106 1145,-106 1145,-106 1145,-106 241.25,-106 165.47,-106 124.56,-89.82 76,-148 34.93,-197.21 30.5,-659.91 30.04,-782.38"/>
<polygon fill="black" stroke="black" points="26.55,-782.24 30.02,-792.25 33.55,-782.26 26.55,-782.24"/>
<text xml:space="preserve" text-anchor="middle" x="669" y="-109.2" font-family="Times New Roman,serif" font-size="14.00">.__class__</text>
</g>
<!-- e_689&#45;&gt;e_25 -->
<g id="edge39" class="edge">
<title>e_689&#45;&gt;e_25</title>
<path fill="none" stroke="black" stroke-dasharray="5,2" d="M1427.08,-141.75C1394.89,-139.41 1341.14,-141.08 1312.5,-173 1282.11,-206.87 1307.96,-333.53 1294.5,-377 1290.28,-390.64 1285.64,-392.49 1278.75,-405 1235.07,-484.3 1184.64,-578.57 1160.05,-624.71"/>
<polygon fill="none" stroke="black" points="1157.11,-622.78 1155.5,-633.25 1163.29,-626.07 1157.11,-622.78"/>
</g>
<!-- e_729 -->
<g id="node22" class="node">
<title>e_729</title>
<path fill="#85cbd0" stroke="black" d="M1469.38,-514C1469.38,-514 1439.38,-514 1439.38,-514 1433.38,-514 1427.38,-508 1427.38,-502 1427.38,-502 1427.38,-490 1427.38,-490 1427.38,-484 1433.38,-478 1439.38,-478 1439.38,-478 1469.38,-478 1469.38,-478 1475.38,-478 1481.38,-484 1481.38,-490 1481.38,-490 1481.38,-502 1481.38,-502 1481.38,-508 1475.38,-514 1469.38,-514"/>
<text xml:space="preserve" text-anchor="middle" x="1454.38" y="-488.25" font-family="Times New Roman,serif" font-size="20.00">24 i</text>
</g>
<!-- e_729&#45;&gt;e_16 -->
<g id="edge40" class="edge">
<title>e_729&#45;&gt;e_16</title>
<path fill="none" stroke="black" d="M1427.25,-491.69C1290.24,-470.15 642.36,-381.1 151,-536 113.93,-547.69 98.38,-549.22 76,-581 53.35,-613.17 38.76,-727.52 32.91,-782.31"/>
<polygon fill="black" stroke="black" points="29.44,-781.84 31.89,-792.15 36.4,-782.56 29.44,-781.84"/>
<text xml:space="preserve" text-anchor="middle" x="669" y="-455.62" font-family="Times New Roman,serif" font-size="14.00">.__class__</text>
</g>
<!-- e_729&#45;&gt;e_25 -->
<g id="edge41" class="edge">
<title>e_729&#45;&gt;e_25</title>
<path fill="none" stroke="black" stroke-dasharray="5,2" d="M1427.09,-497.37C1397.93,-499.71 1350.05,-506.02 1312.5,-523 1256.09,-548.51 1201.5,-596.61 1170.69,-626.61"/>
<polygon fill="none" stroke="black" points="1168.38,-623.97 1163.73,-633.49 1173.3,-628.95 1168.38,-623.97"/>
</g>
<!-- e_769 -->
<g id="node23" class="node">
<title>e_769</title>
<path fill="#85cbd0" stroke="black" d="M1469.38,-403C1469.38,-403 1439.38,-403 1439.38,-403 1433.38,-403 1427.38,-397 1427.38,-391 1427.38,-391 1427.38,-379 1427.38,-379 1427.38,-373 1433.38,-367 1439.38,-367 1439.38,-367 1469.38,-367 1469.38,-367 1475.38,-367 1481.38,-373 1481.38,-379 1481.38,-379 1481.38,-391 1481.38,-391 1481.38,-397 1475.38,-403 1469.38,-403"/>
<text xml:space="preserve" text-anchor="middle" x="1454.38" y="-377.25" font-family="Times New Roman,serif" font-size="20.00">24 i</text>
</g>
<!-- e_769&#45;&gt;e_16 -->
<g id="edge42" class="edge">
<title>e_769&#45;&gt;e_16</title>
<path fill="none" stroke="black" d="M1427.06,-381.63C1398.3,-377.45 1351.15,-369.07 1312.5,-355 1233.28,-326.16 1229.3,-266 1145,-266 1145,-266 1145,-266 241.25,-266 117.54,-266 122.89,-375.52 76,-490 34.44,-591.48 29.46,-724.28 29.48,-782.5"/>
<polygon fill="black" stroke="black" points="25.98,-782.26 29.54,-792.23 32.98,-782.21 25.98,-782.26"/>
<text xml:space="preserve" text-anchor="middle" x="669" y="-269.2" font-family="Times New Roman,serif" font-size="14.00">.__class__</text>
</g>
<!-- e_769&#45;&gt;e_25 -->
<g id="edge43" class="edge">
<title>e_769&#45;&gt;e_25</title>
<path fill="none" stroke="black" stroke-dasharray="5,2" d="M1426.9,-382.85C1395.53,-381.82 1343.62,-385.13 1312.5,-414 1291.15,-433.8 1308.24,-451.32 1294.5,-477 1262.42,-536.96 1207.22,-594.73 1173.62,-626.89"/>
<polygon fill="none" stroke="black" points="1171.53,-624.05 1166.67,-633.46 1176.34,-629.13 1171.53,-624.05"/>
</g>
<!-- e_809 -->
<g id="node24" class="node">
<title>e_809</title>
<path fill="#85cbd0" stroke="black" d="M1469.38,-459C1469.38,-459 1439.38,-459 1439.38,-459 1433.38,-459 1427.38,-453 1427.38,-447 1427.38,-447 1427.38,-435 1427.38,-435 1427.38,-429 1433.38,-423 1439.38,-423 1439.38,-423 1469.38,-423 1469.38,-423 1475.38,-423 1481.38,-429 1481.38,-435 1481.38,-435 1481.38,-447 1481.38,-447 1481.38,-453 1475.38,-459 1469.38,-459"/>
<text xml:space="preserve" text-anchor="middle" x="1454.38" y="-433.25" font-family="Times New Roman,serif" font-size="20.00">24 i</text>
</g>
<!-- e_809&#45;&gt;e_16 -->
<g id="edge44" class="edge">
<title>e_809&#45;&gt;e_16</title>
<path fill="none" stroke="black" d="M1426.88,-435.83C1288.01,-409.96 632.27,-302.91 151,-487 113.35,-501.4 97.75,-504.06 76,-538 50.26,-578.17 36.83,-719.86 32.06,-782.19"/>
<polygon fill="black" stroke="black" points="28.58,-781.81 31.33,-792.04 35.56,-782.33 28.58,-781.81"/>
<text xml:space="preserve" text-anchor="middle" x="669" y="-390.59" font-family="Times New Roman,serif" font-size="14.00">.__class__</text>
</g>
<!-- e_809&#45;&gt;e_25 -->
<g id="edge45" class="edge">
<title>e_809&#45;&gt;e_25</title>
<path fill="none" stroke="black" stroke-dasharray="5,2" d="M1427.12,-439.86C1396.68,-439.86 1346.36,-444.12 1312.5,-469 1299.04,-478.89 1304.48,-488.6 1294.5,-502 1258.46,-550.42 1207.42,-598.63 1175.28,-627.12"/>
<polygon fill="none" stroke="black" points="1173.08,-624.38 1167.88,-633.61 1177.7,-629.65 1173.08,-624.38"/>
</g>
<!-- e_849 -->
<g id="node25" class="node">
<title>e_849</title>
<path fill="#85cbd0" stroke="black" d="M1469.38,-285C1469.38,-285 1439.38,-285 1439.38,-285 1433.38,-285 1427.38,-279 1427.38,-273 1427.38,-273 1427.38,-261 1427.38,-261 1427.38,-255 1433.38,-249 1439.38,-249 1439.38,-249 1469.38,-249 1469.38,-249 1475.38,-249 1481.38,-255 1481.38,-261 1481.38,-261 1481.38,-273 1481.38,-273 1481.38,-279 1475.38,-285 1469.38,-285"/>
<text xml:space="preserve" text-anchor="middle" x="1454.38" y="-259.25" font-family="Times New Roman,serif" font-size="20.00">24 i</text>
</g>
<!-- e_849&#45;&gt;e_16 -->
<g id="edge46" class="edge">
<title>e_849&#45;&gt;e_16</title>
<path fill="none" stroke="black" d="M1426.95,-259.67C1354.91,-239.73 1159.43,-186 1145,-186 1145,-186 1145,-186 241.25,-186 162.65,-186 120.19,-184 76,-249 45.87,-293.32 33.66,-672.38 30.73,-782.26"/>
<polygon fill="black" stroke="black" points="27.23,-782.13 30.47,-792.22 34.23,-782.32 27.23,-782.13"/>
<text xml:space="preserve" text-anchor="middle" x="669" y="-189.2" font-family="Times New Roman,serif" font-size="14.00">.__class__</text>
</g>
<!-- e_849&#45;&gt;e_25 -->
<g id="edge47" class="edge">
<title>e_849&#45;&gt;e_25</title>
<path fill="none" stroke="black" stroke-dasharray="5,2" d="M1426.95,-265.23C1394.89,-264.67 1341.53,-269.08 1312.5,-301 1274.44,-342.85 1314.59,-374.12 1294.5,-427 1290.35,-437.91 1202.74,-567.8 1163.6,-625.58"/>
<polygon fill="none" stroke="black" points="1160.88,-623.35 1158.17,-633.6 1166.68,-627.28 1160.88,-623.35"/>
</g>
<!-- e_23&#45;&gt;e_22 -->
<g id="edge2" class="edge">
<title>e_23&#45;&gt;e_22</title>
<path fill="none" stroke="black" d="M459.91,-747C404.76,-747 326.8,-747 280.98,-747"/>
<polygon fill="black" stroke="black" points="281.03,-743.5 271.03,-747 281.03,-750.5 281.03,-743.5"/>
</g>
<!-- e_25&#45;&gt;e_24 -->
<g id="edge5" class="edge">
<title>e_25&#45;&gt;e_24</title>
<path fill="none" stroke="black" d="M1116.12,-660.69C1067.22,-674.68 962.1,-704.76 889.85,-725.44"/>
<polygon fill="none" stroke="black" points="889.1,-722.01 880.44,-728.13 891.02,-728.74 889.1,-722.01"/>
</g>
<!-- e_29 -->
<g id="node28" class="node">
<title>e_29</title>
<polygon fill="#3a85b9" stroke="black" points="622.5,-1412 426.5,-1412 426.5,-1376 622.5,-1376 622.5,-1412"/>
<text xml:space="preserve" text-anchor="middle" x="524.5" y="-1386.25" font-family="Times New Roman,serif" font-size="20.00" fill="white">39 time.perf_counter()</text>
</g>
<!-- e_27 -->
<g id="node29" class="node">
<title>e_27</title>
<path fill="#85cbd0" stroke="black" d="M321.5,-1412C321.5,-1412 163,-1412 163,-1412 157,-1412 151,-1406 151,-1400 151,-1400 151,-1388 151,-1388 151,-1382 157,-1376 163,-1376 163,-1376 321.5,-1376 321.5,-1376 327.5,-1376 333.5,-1382 333.5,-1388 333.5,-1388 333.5,-1400 333.5,-1400 333.5,-1406 327.5,-1412 321.5,-1412"/>
<text xml:space="preserve" text-anchor="middle" x="242.25" y="-1386.25" font-family="Times New Roman,serif" font-size="20.00">39 time.perf_counter</text>
</g>
<!-- e_29&#45;&gt;e_27 -->
<g id="edge6" class="edge">
<title>e_29&#45;&gt;e_27</title>
<path fill="none" stroke="black" d="M426.27,-1394C399.99,-1394 371.48,-1394 344.95,-1394"/>
<polygon fill="black" stroke="black" points="345.24,-1390.5 335.24,-1394 345.24,-1397.5 345.24,-1390.5"/>
</g>
<!-- e_31 -->
<g id="node30" class="node">
<title>e_31</title>
<path fill="#85cbd0" stroke="black" d="M832,-1412C832,-1412 795,-1412 795,-1412 789,-1412 783,-1406 783,-1400 783,-1400 783,-1388 783,-1388 783,-1382 789,-1376 795,-1376 795,-1376 832,-1376 832,-1376 838,-1376 844,-1382 844,-1388 844,-1388 844,-1400 844,-1400 844,-1406 838,-1412 832,-1412"/>
<text xml:space="preserve" text-anchor="middle" x="813.5" y="-1386.25" font-family="Times New Roman,serif" font-size="20.00">39 dti</text>
</g>
<!-- e_31&#45;&gt;e_29 -->
<g id="edge7" class="edge">
<title>e_31&#45;&gt;e_29</title>
<path fill="none" stroke="black" d="M782.6,-1394C747.55,-1394 687.47,-1394 634.2,-1394"/>
<polygon fill="none" stroke="black" points="634.46,-1390.5 624.46,-1394 634.46,-1397.5 634.46,-1390.5"/>
</g>
<!-- e_34 -->
<g id="node31" class="node">
<title>e_34</title>
<polygon fill="#3a85b9" stroke="black" points="1508.5,-82 1400.25,-82 1400.25,-46 1508.5,-46 1508.5,-82"/>
<text xml:space="preserve" text-anchor="middle" x="1454.38" y="-56.25" font-family="Times New Roman,serif" font-size="20.00" fill="white">40 main(N)</text>
</g>
<!-- e_34&#45;&gt;e_36 -->
<g id="edge50" class="edge">
<title>e_34&#45;&gt;e_36</title>
<path fill="none" stroke="black" stroke-dasharray="5,2" d="M1399.84,-64C1305.95,-64 1112.88,-64 1021.05,-64"/>
<polygon fill="none" stroke="black" points="1021.09,-60.5 1011.09,-64 1021.09,-67.5 1021.09,-60.5"/>
<text xml:space="preserve" text-anchor="middle" x="1286.62" y="-67.2" font-family="Times New Roman,serif" font-size="14.00">[0]</text>
</g>
<!-- e_34&#45;&gt;e_25 -->
<g id="edge49" class="edge">
<title>e_34&#45;&gt;e_25</title>
<path fill="none" stroke="black" stroke-dasharray="5,2" d="M1399.81,-72.76C1370.4,-80.17 1335.36,-93.66 1312.5,-118 1171.86,-267.74 1149.27,-534.25 1145.67,-623.19"/>
<polygon fill="none" stroke="black" points="1142.18,-622.9 1145.33,-633.01 1149.17,-623.14 1142.18,-622.9"/>
</g>
<!-- e_9 -->
<g id="node32" class="node">
<title>e_9</title>
<path fill="#85cbd0" stroke="black" d="M1172.25,-36C1172.25,-36 1115.75,-36 1115.75,-36 1109.75,-36 1103.75,-30 1103.75,-24 1103.75,-24 1103.75,-12 1103.75,-12 1103.75,-6 1109.75,0 1115.75,0 1115.75,0 1172.25,0 1172.25,0 1178.25,0 1184.25,-6 1184.25,-12 1184.25,-12 1184.25,-24 1184.25,-24 1184.25,-30 1178.25,-36 1172.25,-36"/>
<text xml:space="preserve" text-anchor="middle" x="1144" y="-10.25" font-family="Times New Roman,serif" font-size="20.00">29 main</text>
</g>
<!-- e_34&#45;&gt;e_9 -->
<g id="edge48" class="edge">
<title>e_34&#45;&gt;e_9</title>
<path fill="none" stroke="black" d="M1400.01,-56.04C1342.6,-47.48 1251.97,-33.96 1195.64,-25.55"/>
<polygon fill="black" stroke="black" points="1196.41,-22.13 1186,-24.12 1195.38,-29.05 1196.41,-22.13"/>
</g>
<!-- e_898 -->
<g id="node33" class="node">
<title>e_898</title>
<polygon fill="#3a85b9" stroke="black" points="911.5,-1358 715.5,-1358 715.5,-1322 911.5,-1322 911.5,-1358"/>
<text xml:space="preserve" text-anchor="middle" x="813.5" y="-1332.25" font-family="Times New Roman,serif" font-size="20.00" fill="white">41 time.perf_counter()</text>
</g>
<!-- e_897 -->
<g id="node34" class="node">
<title>e_897</title>
<path fill="#85cbd0" stroke="black" d="M603.75,-1358C603.75,-1358 445.25,-1358 445.25,-1358 439.25,-1358 433.25,-1352 433.25,-1346 433.25,-1346 433.25,-1334 433.25,-1334 433.25,-1328 439.25,-1322 445.25,-1322 445.25,-1322 603.75,-1322 603.75,-1322 609.75,-1322 615.75,-1328 615.75,-1334 615.75,-1334 615.75,-1346 615.75,-1346 615.75,-1352 609.75,-1358 603.75,-1358"/>
<text xml:space="preserve" text-anchor="middle" x="524.5" y="-1332.25" font-family="Times New Roman,serif" font-size="20.00">41 time.perf_counter</text>
</g>
<!-- e_898&#45;&gt;e_897 -->
<g id="edge51" class="edge">
<title>e_898&#45;&gt;e_897</title>
<path fill="none" stroke="black" d="M715.33,-1340C686.91,-1340 655.77,-1340 627.08,-1340"/>
<polygon fill="black" stroke="black" points="627.31,-1336.5 617.31,-1340 627.31,-1343.5 627.31,-1336.5"/>
</g>
<!-- e_900 -->
<g id="node35" class="node">
<title>e_900</title>
<path fill="#85cbd0" stroke="black" d="M1248.75,-1408C1248.75,-1408 1039.25,-1408 1039.25,-1408 1033.25,-1408 1027.25,-1402 1027.25,-1396 1027.25,-1396 1027.25,-1384 1027.25,-1384 1027.25,-1378 1033.25,-1372 1039.25,-1372 1039.25,-1372 1248.75,-1372 1248.75,-1372 1254.75,-1372 1260.75,-1378 1260.75,-1384 1260.75,-1384 1260.75,-1396 1260.75,-1396 1260.75,-1402 1254.75,-1408 1248.75,-1408"/>
<text xml:space="preserve" text-anchor="middle" x="1144" y="-1382.25" font-family="Times New Roman,serif" font-size="20.00">41 time.perf_counter() &#45; dti</text>
</g>
<!-- e_900&#45;&gt;e_31 -->
<g id="edge53" class="edge">
<title>e_900&#45;&gt;e_31</title>
<path fill="none" stroke="black" stroke-dasharray="5,2" d="M1027.18,-1391.41C967.58,-1392.14 898.63,-1392.98 855.79,-1393.5"/>
<polygon fill="none" stroke="black" points="855.9,-1390 845.94,-1393.62 855.98,-1397 855.9,-1390"/>
</g>
<!-- e_900&#45;&gt;e_898 -->
<g id="edge52" class="edge">
<title>e_900&#45;&gt;e_898</title>
<path fill="none" stroke="black" d="M1027.18,-1372.37C993.33,-1367.22 956.46,-1361.61 923.07,-1356.52"/>
<polygon fill="black" stroke="black" points="923.8,-1353.1 913.38,-1355.05 922.74,-1360.02 923.8,-1353.1"/>
</g>
<!-- e_901 -->
<g id="node36" class="node">
<title>e_901</title>
<polygon fill="#3a85b9" stroke="black" points="1596.25,-1374 1312.5,-1374 1312.5,-1338 1596.25,-1338 1596.25,-1374"/>
<text xml:space="preserve" text-anchor="middle" x="1454.38" y="-1348.25" font-family="Times New Roman,serif" font-size="20.00" fill="white">41 print(time.perf_counter() &#45; dti)</text>
</g>
<!-- e_901&#45;&gt;e_900 -->
<g id="edge55" class="edge">
<title>e_901&#45;&gt;e_900</title>
<path fill="none" stroke="black" d="M1312.27,-1371.56C1298.89,-1373.03 1285.38,-1374.52 1272.14,-1375.98"/>
<polygon fill="black" stroke="black" points="1272.15,-1372.46 1262.6,-1377.03 1272.92,-1379.42 1272.15,-1372.46"/>
</g>
<!-- e_894 -->
<g id="node37" class="node">
<title>e_894</title>
<path fill="#85cbd0" stroke="black" d="M1169.25,-1354C1169.25,-1354 1118.75,-1354 1118.75,-1354 1112.75,-1354 1106.75,-1348 1106.75,-1342 1106.75,-1342 1106.75,-1330 1106.75,-1330 1106.75,-1324 1112.75,-1318 1118.75,-1318 1118.75,-1318 1169.25,-1318 1169.25,-1318 1175.25,-1318 1181.25,-1324 1181.25,-1330 1181.25,-1330 1181.25,-1342 1181.25,-1342 1181.25,-1348 1175.25,-1354 1169.25,-1354"/>
<text xml:space="preserve" text-anchor="middle" x="1144" y="-1328.25" font-family="Times New Roman,serif" font-size="20.00">&#45;1 print</text>
</g>
<!-- e_901&#45;&gt;e_894 -->
<g id="edge54" class="edge">
<title>e_901&#45;&gt;e_894</title>
<path fill="none" stroke="black" d="M1312.27,-1346.85C1269.33,-1344.06 1225.03,-1341.19 1192.82,-1339.1"/>
<polygon fill="black" stroke="black" points="1193.23,-1335.62 1183.03,-1338.47 1192.78,-1342.61 1193.23,-1335.62"/>
</g>
</g>
</svg>
