<?xml version="1.0" encoding="UTF-8" standalone="no"?>
<!DOCTYPE svg PUBLIC "-//W3C//DTD SVG 1.1//EN"
 "http://www.w3.org/Graphics/SVG/1.1/DTD/svg11.dtd">
<!-- Generated by graphviz version 14.1.2 (20260124.0452)
 -->
<!-- Title: e_1 Pages: 1 -->
<svg width="1511pt" height="1409pt"
 viewBox="0.00 0.00 1511.00 1409.00" xmlns="http://www.w3.org/2000/svg" xmlns:xlink="http://www.w3.org/1999/xlink">
<g id="graph0" class="graph" transform="scale(1 1) rotate(0) translate(4 1405)">
<title>e_1</title>
<polygon fill="white" stroke="none" points="-4,4 -4,-1405 1506.75,-1405 1506.75,4 -4,4"/>
<!-- e_20 -->
<g id="node1" class="node">
<title>e_20</title>
<polygon fill="#3a85b9" stroke="black" points="894.62,-737 732.38,-737 732.38,-701 894.62,-701 894.62,-737"/>
<text xml:space="preserve" text-anchor="middle" x="813.5" y="-711.25" font-family="Times New Roman,serif" font-size="20.00" fill="white">22 int(sys.argv[1])</text>
</g>
<!-- e_12 -->
<g id="node2" class="node">
<title>e_12</title>
<path fill="#85cbd0" stroke="black" d="M46,-802C46,-802 12,-802 12,-802 6,-802 0,-796 0,-790 0,-790 0,-778 0,-778 0,-772 6,-766 12,-766 12,-766 46,-766 46,-766 52,-766 58,-772 58,-778 58,-778 58,-790 58,-790 58,-796 52,-802 46,-802"/>
<text xml:space="preserve" text-anchor="middle" x="29" y="-776.25" font-family="Times New Roman,serif" font-size="20.00">&#45;1 int</text>
</g>
<!-- e_20&#45;&gt;e_12 -->
<g id="edge3" class="edge">
<title>e_20&#45;&gt;e_12</title>
<path fill="none" stroke="black" d="M732.24,-731.8C698.43,-736.83 658.63,-742.28 622.5,-746 415.03,-767.36 165.37,-778.7 69.83,-782.51"/>
<polygon fill="black" stroke="black" points="69.8,-779.01 59.94,-782.9 70.07,-786 69.8,-779.01"/>
<text xml:space="preserve" text-anchor="middle" x="380" y="-770.93" font-family="Times New Roman,serif" font-size="14.00">.__class__</text>
</g>
<!-- e_19 -->
<g id="node26" class="node">
<title>e_19</title>
<path fill="#85cbd0" stroke="black" d="M576.75,-737C576.75,-737 472.25,-737 472.25,-737 466.25,-737 460.25,-731 460.25,-725 460.25,-725 460.25,-713 460.25,-713 460.25,-707 466.25,-701 472.25,-701 472.25,-701 576.75,-701 576.75,-701 582.75,-701 588.75,-707 588.75,-713 588.75,-713 588.75,-725 588.75,-725 588.75,-731 582.75,-737 576.75,-737"/>
<text xml:space="preserve" text-anchor="middle" x="524.5" y="-711.25" font-family="Times New Roman,serif" font-size="20.00">22 sys.argv[1]</text>
</g>
<!-- e_20&#45;&gt;e_19 -->
<g id="edge4" class="edge">
<title>e_20&#45;&gt;e_19</title>
<path fill="none" stroke="black" d="M732.17,-719C690.88,-719 640.87,-719 600.39,-719"/>
<polygon fill="black" stroke="black" points="600.48,-715.5 590.48,-719 600.48,-722.5 600.48,-715.5"/>
</g>
<!-- e_18 -->
<g id="node3" class="node">
<title>e_18</title>
<path fill="#85cbd0" stroke="black" d="M257.25,-737C257.25,-737 227.25,-737 227.25,-737 221.25,-737 215.25,-731 215.25,-725 215.25,-725 215.25,-713 215.25,-713 215.25,-707 221.25,-701 227.25,-701 227.25,-701 257.25,-701 257.25,-701 263.25,-701 269.25,-707 269.25,-713 269.25,-713 269.25,-725 269.25,-725 269.25,-731 263.25,-737 257.25,-737"/>
<text xml:space="preserve" text-anchor="middle" x="242.25" y="-711.25" font-family="Times New Roman,serif" font-size="20.00">22 1</text>
</g>
<!-- e_18&#45;&gt;e_12 -->
<g id="edge1" class="edge">
<title>e_18&#45;&gt;e_12</title>
<path fill="none" stroke="black" d="M214.8,-715.91C180.81,-713.14 120.85,-712.4 76,-734.5 65.53,-739.66 56.26,-748.28 48.83,-756.89"/>
<polygon fill="black" stroke="black" points="46.22,-754.54 42.72,-764.54 51.69,-758.91 46.22,-754.54"/>
<text xml:space="preserve" text-anchor="middle" x="104.5" y="-737.7" font-family="Times New Roman,serif" font-size="14.00">.__class__</text>
</g>
<!-- e_42 -->
<g id="node4" class="node">
<title>e_42</title>
<path fill="#85cbd0" stroke="black" d="M257.25,-1198C257.25,-1198 227.25,-1198 227.25,-1198 221.25,-1198 215.25,-1192 215.25,-1186 215.25,-1186 215.25,-1174 215.25,-1174 215.25,-1168 221.25,-1162 227.25,-1162 227.25,-1162 257.25,-1162 257.25,-1162 263.25,-1162 269.25,-1168 269.25,-1174 269.25,-1174 269.25,-1186 269.25,-1186 269.25,-1192 263.25,-1198 257.25,-1198"/>
<text xml:space="preserve" text-anchor="middle" x="242.25" y="-1172.25" font-family="Times New Roman,serif" font-size="20.00">10 0</text>
</g>
<!-- e_42&#45;&gt;e_12 -->
<g id="edge55" class="edge">
<title>e_42&#45;&gt;e_12</title>
<path fill="none" stroke="black" d="M215.03,-1182.71C178.15,-1184.91 111.51,-1182.75 76,-1144 31.96,-1095.93 29.06,-890.36 29.57,-813.31"/>
<polygon fill="black" stroke="black" points="33.07,-813.64 29.66,-803.61 26.07,-813.57 33.07,-813.64"/>
<text xml:space="preserve" text-anchor="middle" x="104.5" y="-1178.22" font-family="Times New Roman,serif" font-size="14.00">.__class__</text>
</g>
<!-- e_45 -->
<g id="node5" class="node">
<title>e_45</title>
<path fill="#85cbd0" stroke="black" d="M269.75,-1144C269.75,-1144 214.75,-1144 214.75,-1144 208.75,-1144 202.75,-1138 202.75,-1132 202.75,-1132 202.75,-1120 202.75,-1120 202.75,-1114 208.75,-1108 214.75,-1108 214.75,-1108 269.75,-1108 269.75,-1108 275.75,-1108 281.75,-1114 281.75,-1120 281.75,-1120 281.75,-1132 281.75,-1132 281.75,-1138 275.75,-1144 269.75,-1144"/>
<text xml:space="preserve" text-anchor="middle" x="242.25" y="-1118.25" font-family="Times New Roman,serif" font-size="20.00">11 5000</text>
</g>
<!-- e_45&#45;&gt;e_12 -->
<g id="edge56" class="edge">
<title>e_45&#45;&gt;e_12</title>
<path fill="none" stroke="black" d="M202.6,-1130.13C164.8,-1131.83 108.33,-1127.78 76,-1094 37.94,-1054.23 31.31,-883.65 30.2,-813.9"/>
<polygon fill="black" stroke="black" points="33.7,-813.94 30.07,-803.99 26.7,-814.03 33.7,-813.94"/>
<text xml:space="preserve" text-anchor="middle" x="104.5" y="-1126.86" font-family="Times New Roman,serif" font-size="14.00">.__class__</text>
</g>
<!-- e_67 -->
<g id="node6" class="node">
<title>e_67</title>
<path fill="#85cbd0" stroke="black" d="M1375.88,-936C1375.88,-936 1345.88,-936 1345.88,-936 1339.88,-936 1333.88,-930 1333.88,-924 1333.88,-924 1333.88,-912 1333.88,-912 1333.88,-906 1339.88,-900 1345.88,-900 1345.88,-900 1375.88,-900 1375.88,-900 1381.88,-900 1387.88,-906 1387.88,-912 1387.88,-912 1387.88,-924 1387.88,-924 1387.88,-930 1381.88,-936 1375.88,-936"/>
<text xml:space="preserve" text-anchor="middle" x="1360.88" y="-910.25" font-family="Times New Roman,serif" font-size="20.00">14 i</text>
</g>
<!-- e_67&#45;&gt;e_12 -->
<g id="edge8" class="edge">
<title>e_67&#45;&gt;e_12</title>
<path fill="none" stroke="black" d="M1333.6,-923.07C1271.8,-934.84 1118.47,-963 1066.25,-963 1066.25,-963 1066.25,-963 241.25,-963 163.41,-963 129.93,-961.13 76,-905 51.72,-879.73 39.95,-840.35 34.46,-813.43"/>
<polygon fill="black" stroke="black" points="37.95,-813.07 32.69,-803.87 31.07,-814.34 37.95,-813.07"/>
<text xml:space="preserve" text-anchor="middle" x="669" y="-966.2" font-family="Times New Roman,serif" font-size="14.00">.__class__</text>
</g>
<!-- e_21 -->
<g id="node27" class="node">
<title>e_21</title>
<path fill="#85cbd0" stroke="black" d="M1080.75,-654C1080.75,-654 1049.75,-654 1049.75,-654 1043.75,-654 1037.75,-648 1037.75,-642 1037.75,-642 1037.75,-630 1037.75,-630 1037.75,-624 1043.75,-618 1049.75,-618 1049.75,-618 1080.75,-618 1080.75,-618 1086.75,-618 1092.75,-624 1092.75,-630 1092.75,-630 1092.75,-642 1092.75,-642 1092.75,-648 1086.75,-654 1080.75,-654"/>
<text xml:space="preserve" text-anchor="middle" x="1065.25" y="-628.25" font-family="Times New Roman,serif" font-size="20.00">22 N</text>
</g>
<!-- e_67&#45;&gt;e_21 -->
<g id="edge9" class="edge">
<title>e_67&#45;&gt;e_21</title>
<path fill="none" stroke="black" stroke-dasharray="5,2" d="M1333.46,-920.43C1301.41,-921.79 1248.07,-918.62 1219,-887 1178.03,-842.44 1229.82,-805.23 1201,-752 1178.45,-710.36 1134.54,-676.97 1102.97,-656.9"/>
<polygon fill="none" stroke="black" points="1104.83,-653.93 1094.48,-651.65 1101.15,-659.89 1104.83,-653.93"/>
</g>
<!-- e_95 -->
<g id="node7" class="node">
<title>e_95</title>
<path fill="#85cbd0" stroke="black" d="M1375.88,-878C1375.88,-878 1345.88,-878 1345.88,-878 1339.88,-878 1333.88,-872 1333.88,-866 1333.88,-866 1333.88,-854 1333.88,-854 1333.88,-848 1339.88,-842 1345.88,-842 1345.88,-842 1375.88,-842 1375.88,-842 1381.88,-842 1387.88,-848 1387.88,-854 1387.88,-854 1387.88,-866 1387.88,-866 1387.88,-872 1381.88,-878 1375.88,-878"/>
<text xml:space="preserve" text-anchor="middle" x="1360.88" y="-852.25" font-family="Times New Roman,serif" font-size="20.00">14 i</text>
</g>
<!-- e_95&#45;&gt;e_12 -->
<g id="edge10" class="edge">
<title>e_95&#45;&gt;e_12</title>
<path fill="none" stroke="black" d="M1333.55,-860.7C1303.73,-862.59 1254.64,-869.11 1219,-891 1208.24,-897.61 1212.37,-907.48 1201,-913 1094.83,-964.54 788.02,-923 670,-923 670,-923 670,-923 241.25,-923 164.52,-923 134.99,-922.07 76,-873 57.44,-857.57 45.49,-832.71 38.43,-813.19"/>
<polygon fill="black" stroke="black" points="41.8,-812.23 35.31,-803.86 35.16,-814.45 41.8,-812.23"/>
<text xml:space="preserve" text-anchor="middle" x="669" y="-926.74" font-family="Times New Roman,serif" font-size="14.00">.__class__</text>
</g>
<!-- e_95&#45;&gt;e_21 -->
<g id="edge11" class="edge">
<title>e_95&#45;&gt;e_21</title>
<path fill="none" stroke="black" stroke-dasharray="5,2" d="M1333.64,-861.37C1301.77,-861.5 1248.6,-856.49 1219,-825 1188.67,-792.73 1225.24,-764.06 1201,-727 1177.57,-691.18 1134.63,-665.87 1103.5,-651.18"/>
<polygon fill="none" stroke="black" points="1104.97,-648 1094.41,-647.06 1102.07,-654.38 1104.97,-648"/>
</g>
<!-- e_120 -->
<g id="node8" class="node">
<title>e_120</title>
<path fill="#85cbd0" stroke="black" d="M1375.88,-816C1375.88,-816 1345.88,-816 1345.88,-816 1339.88,-816 1333.88,-810 1333.88,-804 1333.88,-804 1333.88,-792 1333.88,-792 1333.88,-786 1339.88,-780 1345.88,-780 1345.88,-780 1375.88,-780 1375.88,-780 1381.88,-780 1387.88,-786 1387.88,-792 1387.88,-792 1387.88,-804 1387.88,-804 1387.88,-810 1381.88,-816 1375.88,-816"/>
<text xml:space="preserve" text-anchor="middle" x="1360.88" y="-790.25" font-family="Times New Roman,serif" font-size="20.00">14 i</text>
</g>
<!-- e_120&#45;&gt;e_12 -->
<g id="edge12" class="edge">
<title>e_120&#45;&gt;e_12</title>
<path fill="none" stroke="black" d="M1333.51,-797.05C1302.01,-797.41 1249.73,-802.96 1219,-833 1197.17,-854.34 1230.52,-899.57 1200,-899 1184.38,-898.71 89.53,-864.8 76,-857 59.23,-847.34 47.68,-828.83 40.34,-812.88"/>
<polygon fill="black" stroke="black" points="43.61,-811.63 36.51,-803.77 37.16,-814.35 43.61,-811.63"/>
<text xml:space="preserve" text-anchor="middle" x="669" y="-886.03" font-family="Times New Roman,serif" font-size="14.00">.__class__</text>
</g>
<!-- e_120&#45;&gt;e_21 -->
<g id="edge13" class="edge">
<title>e_120&#45;&gt;e_21</title>
<path fill="none" stroke="black" stroke-dasharray="5,2" d="M1333.43,-796.95C1302.09,-794.29 1250.21,-785.26 1219,-755 1201.14,-737.69 1217.43,-720.68 1201,-702 1175.45,-672.95 1134.19,-655.39 1104.05,-645.77"/>
<polygon fill="none" stroke="black" points="1105.13,-642.44 1094.55,-642.9 1103.11,-649.14 1105.13,-642.44"/>
</g>
<!-- e_145 -->
<g id="node9" class="node">
<title>e_145</title>
<path fill="#85cbd0" stroke="black" d="M1375.88,-1282C1375.88,-1282 1345.88,-1282 1345.88,-1282 1339.88,-1282 1333.88,-1276 1333.88,-1270 1333.88,-1270 1333.88,-1258 1333.88,-1258 1333.88,-1252 1339.88,-1246 1345.88,-1246 1345.88,-1246 1375.88,-1246 1375.88,-1246 1381.88,-1246 1387.88,-1252 1387.88,-1258 1387.88,-1258 1387.88,-1270 1387.88,-1270 1387.88,-1276 1381.88,-1282 1375.88,-1282"/>
<text xml:space="preserve" text-anchor="middle" x="1360.88" y="-1256.25" font-family="Times New Roman,serif" font-size="20.00">14 i</text>
</g>
<!-- e_145&#45;&gt;e_12 -->
<g id="edge14" class="edge">
<title>e_145&#45;&gt;e_12</title>
<path fill="none" stroke="black" d="M1333.57,-1265.8C1282.21,-1269.14 1164.97,-1276 1066.25,-1276 1066.25,-1276 1066.25,-1276 241.25,-1276 164.64,-1276 124.94,-1285.93 76,-1227 49.61,-1195.23 35.23,-907.92 31.19,-813.74"/>
<polygon fill="black" stroke="black" points="34.69,-813.62 30.78,-803.78 27.7,-813.92 34.69,-813.62"/>
<text xml:space="preserve" text-anchor="middle" x="669" y="-1279.2" font-family="Times New Roman,serif" font-size="14.00">.__class__</text>
</g>
<!-- e_145&#45;&gt;e_21 -->
<g id="edge15" class="edge">
<title>e_145&#45;&gt;e_21</title>
<path fill="none" stroke="black" stroke-dasharray="5,2" d="M1333.41,-1258.1C1301.57,-1249.62 1248.68,-1230.89 1219,-1195 1083.35,-1030.99 1067.58,-756.32 1066.2,-665.87"/>
<polygon fill="none" stroke="black" points="1069.7,-665.84 1066.1,-655.88 1062.7,-665.91 1069.7,-665.84"/>
</g>
<!-- e_170 -->
<g id="node10" class="node">
<title>e_170</title>
<path fill="#85cbd0" stroke="black" d="M1375.88,-1186C1375.88,-1186 1345.88,-1186 1345.88,-1186 1339.88,-1186 1333.88,-1180 1333.88,-1174 1333.88,-1174 1333.88,-1162 1333.88,-1162 1333.88,-1156 1339.88,-1150 1345.88,-1150 1345.88,-1150 1375.88,-1150 1375.88,-1150 1381.88,-1150 1387.88,-1156 1387.88,-1162 1387.88,-1162 1387.88,-1174 1387.88,-1174 1387.88,-1180 1381.88,-1186 1375.88,-1186"/>
<text xml:space="preserve" text-anchor="middle" x="1360.88" y="-1160.25" font-family="Times New Roman,serif" font-size="20.00">14 i</text>
</g>
<!-- e_170&#45;&gt;e_12 -->
<g id="edge16" class="edge">
<title>e_170&#45;&gt;e_12</title>
<path fill="none" stroke="black" d="M1333.5,-1176.81C1282.5,-1193.03 1166.54,-1226 1066.25,-1226 1066.25,-1226 1066.25,-1226 241.25,-1226 166.61,-1226 126.95,-1250.56 76,-1196 49.96,-1168.12 35.5,-903.8 31.3,-813.82"/>
<polygon fill="black" stroke="black" points="34.8,-813.67 30.85,-803.84 27.8,-813.99 34.8,-813.67"/>
<text xml:space="preserve" text-anchor="middle" x="669" y="-1229.2" font-family="Times New Roman,serif" font-size="14.00">.__class__</text>
</g>
<!-- e_170&#45;&gt;e_21 -->
<g id="edge17" class="edge">
<title>e_170&#45;&gt;e_21</title>
<path fill="none" stroke="black" stroke-dasharray="5,2" d="M1333.47,-1164C1301.93,-1157.85 1249.61,-1143.12 1219,-1110 1096.77,-977.73 1072.32,-746.88 1067.45,-665.45"/>
<polygon fill="none" stroke="black" points="1070.96,-665.44 1066.93,-655.64 1063.97,-665.81 1070.96,-665.44"/>
</g>
<!-- e_195 -->
<g id="node11" class="node">
<title>e_195</title>
<path fill="#85cbd0" stroke="black" d="M1375.88,-746C1375.88,-746 1345.88,-746 1345.88,-746 1339.88,-746 1333.88,-740 1333.88,-734 1333.88,-734 1333.88,-722 1333.88,-722 1333.88,-716 1339.88,-710 1345.88,-710 1345.88,-710 1375.88,-710 1375.88,-710 1381.88,-710 1387.88,-716 1387.88,-722 1387.88,-722 1387.88,-734 1387.88,-734 1387.88,-740 1381.88,-746 1375.88,-746"/>
<text xml:space="preserve" text-anchor="middle" x="1360.88" y="-720.25" font-family="Times New Roman,serif" font-size="20.00">14 i</text>
</g>
<!-- e_195&#45;&gt;e_12 -->
<g id="edge18" class="edge">
<title>e_195&#45;&gt;e_12</title>
<path fill="none" stroke="black" d="M1333.45,-728.22C1301.4,-730.01 1248.04,-738.14 1219,-771 1188.17,-805.88 1246.54,-875.18 1200,-874 1137.5,-872.42 135.02,-837.64 76,-817 70.2,-814.97 64.49,-811.97 59.18,-808.58"/>
<polygon fill="black" stroke="black" points="61.53,-805.96 51.33,-803.08 57.51,-811.69 61.53,-805.96"/>
<text xml:space="preserve" text-anchor="middle" x="669" y="-858.43" font-family="Times New Roman,serif" font-size="14.00">.__class__</text>
</g>
<!-- e_195&#45;&gt;e_21 -->
<g id="edge19" class="edge">
<title>e_195&#45;&gt;e_21</title>
<path fill="none" stroke="black" stroke-dasharray="5,2" d="M1333.49,-719.39C1302,-709.15 1247.73,-691.61 1201,-677 1168.33,-666.79 1131.09,-655.48 1104.05,-647.33"/>
<polygon fill="none" stroke="black" points="1105.17,-644.01 1094.58,-644.48 1103.15,-650.72 1105.17,-644.01"/>
</g>
<!-- e_220 -->
<g id="node12" class="node">
<title>e_220</title>
<path fill="#85cbd0" stroke="black" d="M1375.88,-661C1375.88,-661 1345.88,-661 1345.88,-661 1339.88,-661 1333.88,-655 1333.88,-649 1333.88,-649 1333.88,-637 1333.88,-637 1333.88,-631 1339.88,-625 1345.88,-625 1345.88,-625 1375.88,-625 1375.88,-625 1381.88,-625 1387.88,-631 1387.88,-637 1387.88,-637 1387.88,-649 1387.88,-649 1387.88,-655 1381.88,-661 1375.88,-661"/>
<text xml:space="preserve" text-anchor="middle" x="1360.88" y="-635.25" font-family="Times New Roman,serif" font-size="20.00">14 i</text>
</g>
<!-- e_220&#45;&gt;e_12 -->
<g id="edge20" class="edge">
<title>e_220&#45;&gt;e_12</title>
<path fill="none" stroke="black" d="M1333.43,-653.75C1242.69,-689.62 934.96,-803 670,-803 670,-803 670,-803 241.25,-803 181.17,-803 111.86,-795.28 69.49,-789.68"/>
<polygon fill="black" stroke="black" points="70.17,-786.24 59.79,-788.37 69.23,-793.18 70.17,-786.24"/>
<text xml:space="preserve" text-anchor="middle" x="669" y="-806.2" font-family="Times New Roman,serif" font-size="14.00">.__class__</text>
</g>
<!-- e_220&#45;&gt;e_21 -->
<g id="edge21" class="edge">
<title>e_220&#45;&gt;e_21</title>
<path fill="none" stroke="black" stroke-dasharray="5,2" d="M1333.56,-642.37C1281.43,-641.13 1164.88,-638.35 1104.36,-636.91"/>
<polygon fill="none" stroke="black" points="1104.63,-633.41 1094.55,-636.67 1104.46,-640.41 1104.63,-633.41"/>
</g>
<!-- e_245 -->
<g id="node13" class="node">
<title>e_245</title>
<path fill="#85cbd0" stroke="black" d="M1375.88,-1101C1375.88,-1101 1345.88,-1101 1345.88,-1101 1339.88,-1101 1333.88,-1095 1333.88,-1089 1333.88,-1089 1333.88,-1077 1333.88,-1077 1333.88,-1071 1339.88,-1065 1345.88,-1065 1345.88,-1065 1375.88,-1065 1375.88,-1065 1381.88,-1065 1387.88,-1071 1387.88,-1077 1387.88,-1077 1387.88,-1089 1387.88,-1089 1387.88,-1095 1381.88,-1101 1375.88,-1101"/>
<text xml:space="preserve" text-anchor="middle" x="1360.88" y="-1075.25" font-family="Times New Roman,serif" font-size="20.00">14 i</text>
</g>
<!-- e_245&#45;&gt;e_12 -->
<g id="edge22" class="edge">
<title>e_245&#45;&gt;e_12</title>
<path fill="none" stroke="black" d="M1333.76,-1086.39C1203.42,-1102.47 611.37,-1165.34 151,-1046 115.21,-1036.72 98.73,-1039.16 76,-1010 52.37,-979.68 38.31,-867.74 32.76,-813.64"/>
<polygon fill="black" stroke="black" points="36.27,-813.53 31.79,-803.93 29.3,-814.23 36.27,-813.53"/>
<text xml:space="preserve" text-anchor="middle" x="669" y="-1118.74" font-family="Times New Roman,serif" font-size="14.00">.__class__</text>
</g>
<!-- e_245&#45;&gt;e_21 -->
<g id="edge23" class="edge">
<title>e_245&#45;&gt;e_21</title>
<path fill="none" stroke="black" stroke-dasharray="5,2" d="M1333.55,-1086.5C1301.34,-1089.14 1247.56,-1087.92 1219,-1056 1184.96,-1017.96 1218.33,-875.01 1201,-827 1177.18,-761.02 1124.1,-697.06 1092.12,-662.48"/>
<polygon fill="none" stroke="black" points="1094.91,-660.33 1085.52,-655.44 1089.81,-665.12 1094.91,-660.33"/>
</g>
<!-- e_270 -->
<g id="node14" class="node">
<title>e_270</title>
<path fill="#85cbd0" stroke="black" d="M1375.88,-1047C1375.88,-1047 1345.88,-1047 1345.88,-1047 1339.88,-1047 1333.88,-1041 1333.88,-1035 1333.88,-1035 1333.88,-1023 1333.88,-1023 1333.88,-1017 1339.88,-1011 1345.88,-1011 1345.88,-1011 1375.88,-1011 1375.88,-1011 1381.88,-1011 1387.88,-1017 1387.88,-1023 1387.88,-1023 1387.88,-1035 1387.88,-1035 1387.88,-1041 1381.88,-1047 1375.88,-1047"/>
<text xml:space="preserve" text-anchor="middle" x="1360.88" y="-1021.25" font-family="Times New Roman,serif" font-size="20.00">14 i</text>
</g>
<!-- e_270&#45;&gt;e_12 -->
<g id="edge24" class="edge">
<title>e_270&#45;&gt;e_12</title>
<path fill="none" stroke="black" d="M1333.57,-1031.1C1282.22,-1035 1165,-1043 1066.25,-1043 1066.25,-1043 1066.25,-1043 523.5,-1043 423.01,-1043 137.77,-1057.26 76,-978 38.22,-929.52 30.72,-854.97 29.67,-813.83"/>
<polygon fill="black" stroke="black" points="33.17,-813.91 29.54,-803.95 26.17,-814 33.17,-813.91"/>
<text xml:space="preserve" text-anchor="middle" x="669" y="-1046.2" font-family="Times New Roman,serif" font-size="14.00">.__class__</text>
</g>
<!-- e_270&#45;&gt;e_21 -->
<g id="edge25" class="edge">
<title>e_270&#45;&gt;e_21</title>
<path fill="none" stroke="black" stroke-dasharray="5,2" d="M1333.59,-1032.24C1301.41,-1034.57 1247.68,-1032.89 1219,-1001 1189.31,-967.98 1217.72,-843.14 1201,-802 1177.78,-744.86 1127.94,-691.97 1095.81,-661.88"/>
<polygon fill="none" stroke="black" points="1098.5,-659.59 1088.77,-655.39 1093.76,-664.74 1098.5,-659.59"/>
</g>
<!-- e_295 -->
<g id="node15" class="node">
<title>e_295</title>
<path fill="#85cbd0" stroke="black" d="M1375.88,-992C1375.88,-992 1345.88,-992 1345.88,-992 1339.88,-992 1333.88,-986 1333.88,-980 1333.88,-980 1333.88,-968 1333.88,-968 1333.88,-962 1339.88,-956 1345.88,-956 1345.88,-956 1375.88,-956 1375.88,-956 1381.88,-956 1387.88,-962 1387.88,-968 1387.88,-968 1387.88,-980 1387.88,-980 1387.88,-986 1381.88,-992 1375.88,-992"/>
<text xml:space="preserve" text-anchor="middle" x="1360.88" y="-966.25" font-family="Times New Roman,serif" font-size="20.00">14 i</text>
</g>
<!-- e_295&#45;&gt;e_12 -->
<g id="edge26" class="edge">
<title>e_295&#45;&gt;e_12</title>
<path fill="none" stroke="black" d="M1333.64,-978.34C1282.4,-986.43 1165.37,-1003 1066.25,-1003 1066.25,-1003 1066.25,-1003 241.25,-1003 162.81,-1003 126.78,-1000.79 76,-941 45,-904.5 34.88,-847.97 31.58,-813.63"/>
<polygon fill="black" stroke="black" points="35.1,-813.67 30.8,-803.99 28.12,-814.24 35.1,-813.67"/>
<text xml:space="preserve" text-anchor="middle" x="669" y="-1006.2" font-family="Times New Roman,serif" font-size="14.00">.__class__</text>
</g>
<!-- e_295&#45;&gt;e_21 -->
<g id="edge27" class="edge">
<title>e_295&#45;&gt;e_21</title>
<path fill="none" stroke="black" stroke-dasharray="5,2" d="M1333.65,-976.95C1301.54,-978.96 1247.87,-976.8 1219,-945 1193.76,-917.2 1216.81,-811.05 1201,-777 1178.61,-728.78 1133,-686.68 1101.07,-661.32"/>
<polygon fill="none" stroke="black" points="1103.29,-658.61 1093.25,-655.24 1099,-664.14 1103.29,-658.61"/>
</g>
<!-- e_320 -->
<g id="node16" class="node">
<title>e_320</title>
<path fill="#85cbd0" stroke="black" d="M1375.88,-36C1375.88,-36 1345.88,-36 1345.88,-36 1339.88,-36 1333.88,-30 1333.88,-24 1333.88,-24 1333.88,-12 1333.88,-12 1333.88,-6 1339.88,0 1345.88,0 1345.88,0 1375.88,0 1375.88,0 1381.88,0 1387.88,-6 1387.88,-12 1387.88,-12 1387.88,-24 1387.88,-24 1387.88,-30 1381.88,-36 1375.88,-36"/>
<text xml:space="preserve" text-anchor="middle" x="1360.88" y="-10.25" font-family="Times New Roman,serif" font-size="20.00">14 i</text>
</g>
<!-- e_320&#45;&gt;e_12 -->
<g id="edge28" class="edge">
<title>e_320&#45;&gt;e_12</title>
<path fill="none" stroke="black" d="M1333.55,-17.85C1282.17,-17.57 1164.89,-17 1066.25,-17 1066.25,-17 1066.25,-17 241.25,-17 165.68,-17 124.58,0.88 76,-57 30.56,-111.14 29.4,-625.05 29.84,-754.51"/>
<polygon fill="black" stroke="black" points="26.34,-754.31 29.88,-764.29 33.34,-754.28 26.34,-754.31"/>
<text xml:space="preserve" text-anchor="middle" x="669" y="-20.2" font-family="Times New Roman,serif" font-size="14.00">.__class__</text>
</g>
<!-- e_320&#45;&gt;e_21 -->
<g id="edge29" class="edge">
<title>e_320&#45;&gt;e_21</title>
<path fill="none" stroke="black" stroke-dasharray="5,2" d="M1333.41,-17.97C1301.31,-19.46 1247.92,-27.14 1219,-60 1151.76,-136.41 1206.28,-187.16 1182,-286 1152.1,-407.74 1100.19,-548.09 1077.46,-607.3"/>
<polygon fill="none" stroke="black" points="1074.32,-605.71 1073.98,-616.29 1080.85,-608.23 1074.32,-605.71"/>
</g>
<!-- e_345 -->
<g id="node17" class="node">
<title>e_345</title>
<path fill="#85cbd0" stroke="black" d="M1375.88,-281C1375.88,-281 1345.88,-281 1345.88,-281 1339.88,-281 1333.88,-275 1333.88,-269 1333.88,-269 1333.88,-257 1333.88,-257 1333.88,-251 1339.88,-245 1345.88,-245 1345.88,-245 1375.88,-245 1375.88,-245 1381.88,-245 1387.88,-251 1387.88,-257 1387.88,-257 1387.88,-269 1387.88,-269 1387.88,-275 1381.88,-281 1375.88,-281"/>
<text xml:space="preserve" text-anchor="middle" x="1360.88" y="-255.25" font-family="Times New Roman,serif" font-size="20.00">14 i</text>
</g>
<!-- e_345&#45;&gt;e_12 -->
<g id="edge30" class="edge">
<title>e_345&#45;&gt;e_12</title>
<path fill="none" stroke="black" d="M1333.43,-260.22C1304.55,-256.58 1257.3,-248.84 1219,-234 1201.16,-227.09 1200.26,-217.7 1182,-212 964.26,-144.09 898.09,-177 670,-177 670,-177 670,-177 241.25,-177 151,-177 121.02,-216.78 76,-295 30.66,-373.77 28.93,-660.44 29.63,-754.14"/>
<polygon fill="black" stroke="black" points="26.12,-754.08 29.72,-764.05 33.12,-754.02 26.12,-754.08"/>
<text xml:space="preserve" text-anchor="middle" x="669" y="-180.2" font-family="Times New Roman,serif" font-size="14.00">.__class__</text>
</g>
<!-- e_345&#45;&gt;e_21 -->
<g id="edge31" class="edge">
<title>e_345&#45;&gt;e_21</title>
<path fill="none" stroke="black" stroke-dasharray="5,2" d="M1333.54,-259.95C1301.56,-257.86 1248.29,-259.84 1219,-291 1198.57,-312.73 1211.24,-395.99 1201,-424 1174.39,-496.81 1119.77,-570.72 1088.87,-609.09"/>
<polygon fill="none" stroke="black" points="1086.48,-606.49 1082.87,-616.45 1091.9,-610.91 1086.48,-606.49"/>
</g>
<!-- e_370 -->
<g id="node18" class="node">
<title>e_370</title>
<path fill="#85cbd0" stroke="black" d="M1375.88,-225C1375.88,-225 1345.88,-225 1345.88,-225 1339.88,-225 1333.88,-219 1333.88,-213 1333.88,-213 1333.88,-201 1333.88,-201 1333.88,-195 1339.88,-189 1345.88,-189 1345.88,-189 1375.88,-189 1375.88,-189 1381.88,-189 1387.88,-195 1387.88,-201 1387.88,-201 1387.88,-213 1387.88,-213 1387.88,-219 1381.88,-225 1375.88,-225"/>
<text xml:space="preserve" text-anchor="middle" x="1360.88" y="-199.25" font-family="Times New Roman,serif" font-size="20.00">14 i</text>
</g>
<!-- e_370&#45;&gt;e_12 -->
<g id="edge32" class="edge">
<title>e_370&#45;&gt;e_12</title>
<path fill="none" stroke="black" d="M1333.52,-201.79C1305.11,-196.05 1258.64,-186.24 1219,-176 1151.16,-158.48 1136.32,-137 1066.25,-137 1066.25,-137 1066.25,-137 241.25,-137 160.41,-137 116.98,-143.32 76,-213 48.42,-259.89 34.38,-643.73 30.88,-754.3"/>
<polygon fill="black" stroke="black" points="27.39,-753.93 30.58,-764.04 34.39,-754.15 27.39,-753.93"/>
<text xml:space="preserve" text-anchor="middle" x="669" y="-140.2" font-family="Times New Roman,serif" font-size="14.00">.__class__</text>
</g>
<!-- e_370&#45;&gt;e_21 -->
<g id="edge33" class="edge">
<title>e_370&#45;&gt;e_21</title>
<path fill="none" stroke="black" stroke-dasharray="5,2" d="M1333.39,-204.05C1301.26,-202.09 1247.84,-204.34 1219,-236 1194.46,-262.94 1212.24,-364.33 1201,-399 1174.46,-480.87 1117.64,-566.01 1086.94,-608.47"/>
<polygon fill="none" stroke="black" points="1084.24,-606.23 1081.17,-616.37 1089.89,-610.36 1084.24,-606.23"/>
</g>
<!-- e_395 -->
<g id="node19" class="node">
<title>e_395</title>
<path fill="#85cbd0" stroke="black" d="M1375.88,-167C1375.88,-167 1345.88,-167 1345.88,-167 1339.88,-167 1333.88,-161 1333.88,-155 1333.88,-155 1333.88,-143 1333.88,-143 1333.88,-137 1339.88,-131 1345.88,-131 1345.88,-131 1375.88,-131 1375.88,-131 1381.88,-131 1387.88,-137 1387.88,-143 1387.88,-143 1387.88,-155 1387.88,-155 1387.88,-161 1381.88,-167 1375.88,-167"/>
<text xml:space="preserve" text-anchor="middle" x="1360.88" y="-141.25" font-family="Times New Roman,serif" font-size="20.00">14 i</text>
</g>
<!-- e_395&#45;&gt;e_12 -->
<g id="edge34" class="edge">
<title>e_395&#45;&gt;e_12</title>
<path fill="none" stroke="black" d="M1333.63,-143.14C1271.88,-129.54 1118.67,-97 1066.25,-97 1066.25,-97 1066.25,-97 241.25,-97 163.98,-97 122.33,-89.16 76,-151 39.51,-199.7 31.74,-635.8 30.3,-754.36"/>
<polygon fill="black" stroke="black" points="26.8,-754.17 30.19,-764.21 33.8,-754.25 26.8,-754.17"/>
<text xml:space="preserve" text-anchor="middle" x="669" y="-100.2" font-family="Times New Roman,serif" font-size="14.00">.__class__</text>
</g>
<!-- e_395&#45;&gt;e_21 -->
<g id="edge35" class="edge">
<title>e_395&#45;&gt;e_21</title>
<path fill="none" stroke="black" stroke-dasharray="5,2" d="M1333.54,-146.39C1301.3,-144.82 1247.51,-147.71 1219,-180 1190.34,-212.45 1213.12,-332.44 1201,-374 1174.38,-465.27 1115.39,-562.11 1085.06,-608.33"/>
<polygon fill="none" stroke="black" points="1082.31,-606.13 1079.71,-616.4 1088.15,-610 1082.31,-606.13"/>
</g>
<!-- e_420 -->
<g id="node20" class="node">
<title>e_420</title>
<path fill="#85cbd0" stroke="black" d="M1375.88,-606C1375.88,-606 1345.88,-606 1345.88,-606 1339.88,-606 1333.88,-600 1333.88,-594 1333.88,-594 1333.88,-582 1333.88,-582 1333.88,-576 1339.88,-570 1345.88,-570 1345.88,-570 1375.88,-570 1375.88,-570 1381.88,-570 1387.88,-576 1387.88,-582 1387.88,-582 1387.88,-594 1387.88,-594 1387.88,-600 1381.88,-606 1375.88,-606"/>
<text xml:space="preserve" text-anchor="middle" x="1360.88" y="-580.25" font-family="Times New Roman,serif" font-size="20.00">14 i</text>
</g>
<!-- e_420&#45;&gt;e_12 -->
<g id="edge36" class="edge">
<title>e_420&#45;&gt;e_12</title>
<path fill="none" stroke="black" d="M1333.55,-588C1282.17,-588 1164.89,-588 1066.25,-588 1066.25,-588 1066.25,-588 241.25,-588 143.93,-588 72.53,-701.18 43.86,-755.53"/>
<polygon fill="black" stroke="black" points="40.85,-753.72 39.39,-764.21 47.07,-756.92 40.85,-753.72"/>
<text xml:space="preserve" text-anchor="middle" x="669" y="-591.2" font-family="Times New Roman,serif" font-size="14.00">.__class__</text>
</g>
<!-- e_420&#45;&gt;e_21 -->
<g id="edge37" class="edge">
<title>e_420&#45;&gt;e_21</title>
<path fill="none" stroke="black" stroke-dasharray="5,2" d="M1333.56,-592.3C1281.43,-600.82 1164.88,-619.88 1104.36,-629.77"/>
<polygon fill="none" stroke="black" points="1103.83,-626.31 1094.53,-631.38 1104.96,-633.22 1103.83,-626.31"/>
</g>
<!-- e_445 -->
<g id="node21" class="node">
<title>e_445</title>
<path fill="#85cbd0" stroke="black" d="M1375.88,-552C1375.88,-552 1345.88,-552 1345.88,-552 1339.88,-552 1333.88,-546 1333.88,-540 1333.88,-540 1333.88,-528 1333.88,-528 1333.88,-522 1339.88,-516 1345.88,-516 1345.88,-516 1375.88,-516 1375.88,-516 1381.88,-516 1387.88,-522 1387.88,-528 1387.88,-528 1387.88,-540 1387.88,-540 1387.88,-546 1381.88,-552 1375.88,-552"/>
<text xml:space="preserve" text-anchor="middle" x="1360.88" y="-526.25" font-family="Times New Roman,serif" font-size="20.00">14 i</text>
</g>
<!-- e_445&#45;&gt;e_12 -->
<g id="edge38" class="edge">
<title>e_445&#45;&gt;e_12</title>
<path fill="none" stroke="black" d="M1333.47,-529.82C1305.02,-525.1 1258.52,-516.81 1219,-507 1036.51,-461.68 1002.54,-383 814.5,-383 814.5,-383 814.5,-383 241.25,-383 73.32,-383 38.57,-661.69 31.65,-754.41"/>
<polygon fill="black" stroke="black" points="28.17,-754 30.98,-764.22 35.15,-754.48 28.17,-754"/>
<text xml:space="preserve" text-anchor="middle" x="669" y="-386.2" font-family="Times New Roman,serif" font-size="14.00">.__class__</text>
</g>
<!-- e_445&#45;&gt;e_21 -->
<g id="edge39" class="edge">
<title>e_445&#45;&gt;e_21</title>
<path fill="none" stroke="black" stroke-dasharray="5,2" d="M1333.38,-536.93C1304.65,-540.6 1257.73,-548.04 1219,-561 1177.59,-574.85 1133.09,-597.71 1102.86,-614.55"/>
<polygon fill="none" stroke="black" points="1101.49,-611.31 1094.5,-619.27 1104.93,-617.41 1101.49,-611.31"/>
</g>
<!-- e_470 -->
<g id="node22" class="node">
<title>e_470</title>
<path fill="#85cbd0" stroke="black" d="M1375.88,-336C1375.88,-336 1345.88,-336 1345.88,-336 1339.88,-336 1333.88,-330 1333.88,-324 1333.88,-324 1333.88,-312 1333.88,-312 1333.88,-306 1339.88,-300 1345.88,-300 1345.88,-300 1375.88,-300 1375.88,-300 1381.88,-300 1387.88,-306 1387.88,-312 1387.88,-312 1387.88,-324 1387.88,-324 1387.88,-330 1381.88,-336 1375.88,-336"/>
<text xml:space="preserve" text-anchor="middle" x="1360.88" y="-310.25" font-family="Times New Roman,serif" font-size="20.00">14 i</text>
</g>
<!-- e_470&#45;&gt;e_12 -->
<g id="edge40" class="edge">
<title>e_470&#45;&gt;e_12</title>
<path fill="none" stroke="black" d="M1333.47,-319.69C1302.65,-320.24 1251.74,-316.53 1219,-290 1203.22,-277.21 1213.09,-264.32 1201,-248 1194.43,-239.13 1192.37,-235.78 1182,-232 1066.12,-189.71 154.82,-234.1 76,-329 48.85,-361.69 34.94,-657.99 31.11,-754.07"/>
<polygon fill="black" stroke="black" points="27.62,-753.87 30.72,-764 34.61,-754.14 27.62,-753.87"/>
<text xml:space="preserve" text-anchor="middle" x="669" y="-230.48" font-family="Times New Roman,serif" font-size="14.00">.__class__</text>
</g>
<!-- e_470&#45;&gt;e_21 -->
<g id="edge41" class="edge">
<title>e_470&#45;&gt;e_21</title>
<path fill="none" stroke="black" stroke-dasharray="5,2" d="M1333.46,-314.91C1301.67,-312.78 1248.84,-314.62 1219,-345 1186.13,-378.47 1219.18,-405.76 1201,-449 1174.27,-512.59 1122.44,-575.34 1091.43,-609.54"/>
<polygon fill="none" stroke="black" points="1089.23,-606.76 1085.05,-616.49 1094.39,-611.49 1089.23,-606.76"/>
</g>
<!-- e_495 -->
<g id="node23" class="node">
<title>e_495</title>
<path fill="#85cbd0" stroke="black" d="M1375.88,-105C1375.88,-105 1345.88,-105 1345.88,-105 1339.88,-105 1333.88,-99 1333.88,-93 1333.88,-93 1333.88,-81 1333.88,-81 1333.88,-75 1339.88,-69 1345.88,-69 1345.88,-69 1375.88,-69 1375.88,-69 1381.88,-69 1387.88,-75 1387.88,-81 1387.88,-81 1387.88,-93 1387.88,-93 1387.88,-99 1381.88,-105 1375.88,-105"/>
<text xml:space="preserve" text-anchor="middle" x="1360.88" y="-79.25" font-family="Times New Roman,serif" font-size="20.00">14 i</text>
</g>
<!-- e_495&#45;&gt;e_12 -->
<g id="edge42" class="edge">
<title>e_495&#45;&gt;e_12</title>
<path fill="none" stroke="black" d="M1333.65,-82.51C1282.42,-74.14 1165.4,-57 1066.25,-57 1066.25,-57 1066.25,-57 241.25,-57 165.25,-57 124.31,-42.33 76,-101 34,-152 30.26,-629.64 30,-754.34"/>
<polygon fill="black" stroke="black" points="26.5,-754.07 29.99,-764.08 33.5,-754.08 26.5,-754.07"/>
<text xml:space="preserve" text-anchor="middle" x="669" y="-60.2" font-family="Times New Roman,serif" font-size="14.00">.__class__</text>
</g>
<!-- e_495&#45;&gt;e_21 -->
<g id="edge43" class="edge">
<title>e_495&#45;&gt;e_21</title>
<path fill="none" stroke="black" stroke-dasharray="5,2" d="M1333.38,-85.15C1300.99,-84.5 1247.03,-88.94 1219,-122 1186.28,-160.6 1213.96,-300.09 1201,-349 1174.34,-449.59 1113.57,-558.13 1083.61,-608.02"/>
<polygon fill="none" stroke="black" points="1080.68,-606.09 1078.49,-616.46 1086.67,-609.72 1080.68,-606.09"/>
</g>
<!-- e_520 -->
<g id="node24" class="node">
<title>e_520</title>
<path fill="#85cbd0" stroke="black" d="M1375.88,-444C1375.88,-444 1345.88,-444 1345.88,-444 1339.88,-444 1333.88,-438 1333.88,-432 1333.88,-432 1333.88,-420 1333.88,-420 1333.88,-414 1339.88,-408 1345.88,-408 1345.88,-408 1375.88,-408 1375.88,-408 1381.88,-408 1387.88,-414 1387.88,-420 1387.88,-420 1387.88,-432 1387.88,-432 1387.88,-438 1381.88,-444 1375.88,-444"/>
<text xml:space="preserve" text-anchor="middle" x="1360.88" y="-418.25" font-family="Times New Roman,serif" font-size="20.00">14 i</text>
</g>
<!-- e_520&#45;&gt;e_12 -->
<g id="edge44" class="edge">
<title>e_520&#45;&gt;e_12</title>
<path fill="none" stroke="black" d="M1333.56,-427.09C1303.29,-427.05 1253.35,-422.88 1219,-399 1192.96,-380.9 1209.08,-354.5 1182,-338 1084.17,-278.38 262.34,-302.01 151,-329 115.43,-337.62 97.47,-333.36 76,-363 30.67,-425.57 28.76,-669.14 29.54,-754.36"/>
<polygon fill="black" stroke="black" points="26.03,-754.27 29.65,-764.23 33.03,-754.19 26.03,-754.27"/>
<text xml:space="preserve" text-anchor="middle" x="669" y="-304.52" font-family="Times New Roman,serif" font-size="14.00">.__class__</text>
</g>
<!-- e_520&#45;&gt;e_21 -->
<g id="edge45" class="edge">
<title>e_520&#45;&gt;e_21</title>
<path fill="none" stroke="black" stroke-dasharray="5,2" d="M1333.61,-423.92C1302.69,-422.93 1251.46,-426.02 1219,-453 1202.12,-467.04 1212.94,-480.58 1201,-499 1172.47,-543.02 1128.15,-584.65 1098.2,-610.22"/>
<polygon fill="none" stroke="black" points="1095.96,-607.53 1090.56,-616.65 1100.47,-612.88 1095.96,-607.53"/>
</g>
<!-- e_545 -->
<g id="node25" class="node">
<title>e_545</title>
<path fill="#85cbd0" stroke="black" d="M1375.88,-498C1375.88,-498 1345.88,-498 1345.88,-498 1339.88,-498 1333.88,-492 1333.88,-486 1333.88,-486 1333.88,-474 1333.88,-474 1333.88,-468 1339.88,-462 1345.88,-462 1345.88,-462 1375.88,-462 1375.88,-462 1381.88,-462 1387.88,-468 1387.88,-474 1387.88,-474 1387.88,-486 1387.88,-486 1387.88,-492 1381.88,-498 1375.88,-498"/>
<text xml:space="preserve" text-anchor="middle" x="1360.88" y="-472.25" font-family="Times New Roman,serif" font-size="20.00">14 i</text>
</g>
<!-- e_545&#45;&gt;e_12 -->
<g id="edge46" class="edge">
<title>e_545&#45;&gt;e_12</title>
<path fill="none" stroke="black" d="M1333.45,-480.85C1303.3,-480.56 1253.7,-476.14 1219,-453 1194.18,-436.45 1206.63,-413.82 1182,-397 1087.59,-332.52 1044.83,-343 930.5,-343 930.5,-343 930.5,-343 241.25,-343 156.75,-343 115.25,-362.17 76,-437 47.06,-492.18 34.96,-681.65 31.3,-754.83"/>
<polygon fill="black" stroke="black" points="27.82,-754.26 30.84,-764.41 34.82,-754.59 27.82,-754.26"/>
<text xml:space="preserve" text-anchor="middle" x="669" y="-346.2" font-family="Times New Roman,serif" font-size="14.00">.__class__</text>
</g>
<!-- e_545&#45;&gt;e_21 -->
<g id="edge47" class="edge">
<title>e_545&#45;&gt;e_21</title>
<path fill="none" stroke="black" stroke-dasharray="5,2" d="M1333.53,-480.68C1304.11,-482.4 1255.8,-488.16 1219,-507 1209.2,-512.01 1209.24,-516.7 1201,-524 1166.43,-554.63 1125.47,-588.33 1097.85,-610.68"/>
<polygon fill="none" stroke="black" points="1095.79,-607.84 1090.21,-616.85 1100.19,-613.29 1095.79,-607.84"/>
</g>
<!-- e_19&#45;&gt;e_18 -->
<g id="edge2" class="edge">
<title>e_19&#45;&gt;e_18</title>
<path fill="none" stroke="black" d="M459.91,-719C404.76,-719 326.8,-719 280.98,-719"/>
<polygon fill="black" stroke="black" points="281.03,-715.5 271.03,-719 281.03,-722.5 281.03,-715.5"/>
</g>
<!-- e_21&#45;&gt;e_20 -->
<g id="edge5" class="edge">
<title>e_21&#45;&gt;e_20</title>
<path fill="none" stroke="black" d="M1037.52,-644.88C1000.4,-657.22 932.01,-679.95 880.71,-697"/>
<polygon fill="none" stroke="black" points="879.87,-693.59 871.48,-700.06 882.07,-700.23 879.87,-693.59"/>
</g>
<!-- e_25 -->
<g id="node28" class="node">
<title>e_25</title>
<polygon fill="#3a85b9" stroke="black" points="622.5,-1401 426.5,-1401 426.5,-1365 622.5,-1365 622.5,-1401"/>
<text xml:space="preserve" text-anchor="middle" x="524.5" y="-1375.25" font-family="Times New Roman,serif" font-size="20.00" fill="white">23 time.perf_counter()</text>
</g>
<!-- e_23 -->
<g id="node29" class="node">
<title>e_23</title>
<path fill="#85cbd0" stroke="black" d="M321.5,-1401C321.5,-1401 163,-1401 163,-1401 157,-1401 151,-1395 151,-1389 151,-1389 151,-1377 151,-1377 151,-1371 157,-1365 163,-1365 163,-1365 321.5,-1365 321.5,-1365 327.5,-1365 333.5,-1371 333.5,-1377 333.5,-1377 333.5,-1389 333.5,-1389 333.5,-1395 327.5,-1401 321.5,-1401"/>
<text xml:space="preserve" text-anchor="middle" x="242.25" y="-1375.25" font-family="Times New Roman,serif" font-size="20.00">23 time.perf_counter</text>
</g>
<!-- e_25&#45;&gt;e_23 -->
<g id="edge6" class="edge">
<title>e_25&#45;&gt;e_23</title>
<path fill="none" stroke="black" d="M426.27,-1383C399.99,-1383 371.48,-1383 344.95,-1383"/>
<polygon fill="black" stroke="black" points="345.24,-1379.5 335.24,-1383 345.24,-1386.5 345.24,-1379.5"/>
</g>
<!-- e_27 -->
<g id="node30" class="node">
<title>e_27</title>
<path fill="#85cbd0" stroke="black" d="M832,-1401C832,-1401 795,-1401 795,-1401 789,-1401 783,-1395 783,-1389 783,-1389 783,-1377 783,-1377 783,-1371 789,-1365 795,-1365 795,-1365 832,-1365 832,-1365 838,-1365 844,-1371 844,-1377 844,-1377 844,-1389 844,-1389 844,-1395 838,-1401 832,-1401"/>
<text xml:space="preserve" text-anchor="middle" x="813.5" y="-1375.25" font-family="Times New Roman,serif" font-size="20.00">23 dti</text>
</g>
<!-- e_27&#45;&gt;e_25 -->
<g id="edge7" class="edge">
<title>e_27&#45;&gt;e_25</title>
<path fill="none" stroke="black" d="M782.6,-1383C747.55,-1383 687.47,-1383 634.2,-1383"/>
<polygon fill="none" stroke="black" points="634.46,-1379.5 624.46,-1383 634.46,-1386.5 634.46,-1379.5"/>
</g>
<!-- e_30 -->
<g id="node31" class="node">
<title>e_30</title>
<polygon fill="#3a85b9" stroke="black" points="1415,-390 1306.75,-390 1306.75,-354 1415,-354 1415,-390"/>
<text xml:space="preserve" text-anchor="middle" x="1360.88" y="-364.25" font-family="Times New Roman,serif" font-size="20.00" fill="white">24 main(N)</text>
</g>
<!-- e_30&#45;&gt;e_21 -->
<g id="edge49" class="edge">
<title>e_30&#45;&gt;e_21</title>
<path fill="none" stroke="black" d="M1306.38,-369.01C1277,-370.29 1241.96,-377.07 1219,-399 1194.21,-422.67 1216.36,-443.36 1201,-474 1173.88,-528.11 1125.53,-579.94 1094.72,-609.84"/>
<polygon fill="black" stroke="black" points="1092.43,-607.19 1087.62,-616.63 1097.27,-612.25 1092.43,-607.19"/>
</g>
<!-- e_5 -->
<g id="node32" class="node">
<title>e_5</title>
<path fill="#85cbd0" stroke="black" d="M1093.5,-277C1093.5,-277 1037,-277 1037,-277 1031,-277 1025,-271 1025,-265 1025,-265 1025,-253 1025,-253 1025,-247 1031,-241 1037,-241 1037,-241 1093.5,-241 1093.5,-241 1099.5,-241 1105.5,-247 1105.5,-253 1105.5,-253 1105.5,-265 1105.5,-265 1105.5,-271 1099.5,-277 1093.5,-277"/>
<text xml:space="preserve" text-anchor="middle" x="1065.25" y="-251.25" font-family="Times New Roman,serif" font-size="20.00">19 main</text>
</g>
<!-- e_30&#45;&gt;e_5 -->
<g id="edge48" class="edge">
<title>e_30&#45;&gt;e_5</title>
<path fill="none" stroke="black" d="M1306.36,-375.39C1276.78,-374.27 1241.56,-367.52 1219,-345 1189.2,-315.26 1233.47,-278.79 1201,-252 1178.05,-233.07 1144.71,-234.64 1116.93,-241.04"/>
<polygon fill="black" stroke="black" points="1116.08,-237.64 1107.28,-243.53 1117.83,-244.42 1116.08,-237.64"/>
</g>
<!-- e_576 -->
<g id="node33" class="node">
<title>e_576</title>
<polygon fill="#3a85b9" stroke="black" points="911.5,-1347 715.5,-1347 715.5,-1311 911.5,-1311 911.5,-1347"/>
<text xml:space="preserve" text-anchor="middle" x="813.5" y="-1321.25" font-family="Times New Roman,serif" font-size="20.00" fill="white">25 time.perf_counter()</text>
</g>
<!-- e_575 -->
<g id="node34" class="node">
<title>e_575</title>
<path fill="#85cbd0" stroke="black" d="M603.75,-1347C603.75,-1347 445.25,-1347 445.25,-1347 439.25,-1347 433.25,-1341 433.25,-1335 433.25,-1335 433.25,-1323 433.25,-1323 433.25,-1317 439.25,-1311 445.25,-1311 445.25,-1311 603.75,-1311 603.75,-1311 609.75,-1311 615.75,-1317 615.75,-1323 615.75,-1323 615.75,-1335 615.75,-1335 615.75,-1341 609.75,-1347 603.75,-1347"/>
<text xml:space="preserve" text-anchor="middle" x="524.5" y="-1321.25" font-family="Times New Roman,serif" font-size="20.00">25 time.perf_counter</text>
</g>
<!-- e_576&#45;&gt;e_575 -->
<g id="edge50" class="edge">
<title>e_576&#45;&gt;e_575</title>
<path fill="none" stroke="black" d="M715.33,-1329C686.91,-1329 655.77,-1329 627.08,-1329"/>
<polygon fill="black" stroke="black" points="627.31,-1325.5 617.31,-1329 627.31,-1332.5 627.31,-1325.5"/>
</g>
<!-- e_578 -->
<g id="node35" class="node">
<title>e_578</title>
<path fill="#85cbd0" stroke="black" d="M1170,-1394C1170,-1394 960.5,-1394 960.5,-1394 954.5,-1394 948.5,-1388 948.5,-1382 948.5,-1382 948.5,-1370 948.5,-1370 948.5,-1364 954.5,-1358 960.5,-1358 960.5,-1358 1170,-1358 1170,-1358 1176,-1358 1182,-1364 1182,-1370 1182,-1370 1182,-1382 1182,-1382 1182,-1388 1176,-1394 1170,-1394"/>
<text xml:space="preserve" text-anchor="middle" x="1065.25" y="-1368.25" font-family="Times New Roman,serif" font-size="20.00">25 time.perf_counter() &#45; dti</text>
</g>
<!-- e_578&#45;&gt;e_27 -->
<g id="edge52" class="edge">
<title>e_578&#45;&gt;e_27</title>
<path fill="none" stroke="black" stroke-dasharray="5,2" d="M948.15,-1379.25C915.05,-1380.18 881.12,-1381.13 855.73,-1381.84"/>
<polygon fill="none" stroke="black" points="855.76,-1378.34 845.86,-1382.12 855.96,-1385.34 855.76,-1378.34"/>
</g>
<!-- e_578&#45;&gt;e_576 -->
<g id="edge51" class="edge">
<title>e_578&#45;&gt;e_576</title>
<path fill="none" stroke="black" d="M966.26,-1357.56C951.99,-1354.87 937.24,-1352.1 922.78,-1349.38"/>
<polygon fill="black" stroke="black" points="923.76,-1346 913.29,-1347.59 922.47,-1352.88 923.76,-1346"/>
</g>
<!-- e_579 -->
<g id="node36" class="node">
<title>e_579</title>
<polygon fill="#3a85b9" stroke="black" points="1502.75,-1360 1219,-1360 1219,-1324 1502.75,-1324 1502.75,-1360"/>
<text xml:space="preserve" text-anchor="middle" x="1360.88" y="-1334.25" font-family="Times New Roman,serif" font-size="20.00" fill="white">25 print(time.perf_counter() &#45; dti)</text>
</g>
<!-- e_579&#45;&gt;e_578 -->
<g id="edge54" class="edge">
<title>e_579&#45;&gt;e_578</title>
<path fill="none" stroke="black" d="M1218.65,-1358.35C1210.27,-1359.32 1201.86,-1360.3 1193.54,-1361.26"/>
<polygon fill="black" stroke="black" points="1193.29,-1357.77 1183.76,-1362.39 1194.09,-1364.72 1193.29,-1357.77"/>
</g>
<!-- e_572 -->
<g id="node37" class="node">
<title>e_572</title>
<path fill="#85cbd0" stroke="black" d="M1090.5,-1340C1090.5,-1340 1040,-1340 1040,-1340 1034,-1340 1028,-1334 1028,-1328 1028,-1328 1028,-1316 1028,-1316 1028,-1310 1034,-1304 1040,-1304 1040,-1304 1090.5,-1304 1090.5,-1304 1096.5,-1304 1102.5,-1310 1102.5,-1316 1102.5,-1316 1102.5,-1328 1102.5,-1328 1102.5,-1334 1096.5,-1340 1090.5,-1340"/>
<text xml:space="preserve" text-anchor="middle" x="1065.25" y="-1314.25" font-family="Times New Roman,serif" font-size="20.00">&#45;1 print</text>
</g>
<!-- e_579&#45;&gt;e_572 -->
<g id="edge53" class="edge">
<title>e_579&#45;&gt;e_572</title>
<path fill="none" stroke="black" d="M1218.65,-1332.38C1180.95,-1329.81 1142.75,-1327.21 1114.03,-1325.25"/>
<polygon fill="black" stroke="black" points="1114.45,-1321.77 1104.23,-1324.59 1113.97,-1328.76 1114.45,-1321.77"/>
</g>
</g>
</svg>
