<?xml version="1.0" encoding="UTF-8" standalone="no"?>
<!DOCTYPE svg PUBLIC "-//W3C//DTD SVG 1.1//EN"
 "http://www.w3.org/Graphics/SVG/1.1/DTD/svg11.dtd">
<!-- Generated by graphviz version 14.1.2 (20260124.0452)
 -->
<!-- Title: e_1 Pages: 1 -->
<svg width="1557pt" height="1555pt"
 viewBox="0.00 0.00 1557.00 1555.00" xmlns="http://www.w3.org/2000/svg" xmlns:xlink="http://www.w3.org/1999/xlink">
<g id="graph0" class="graph" transform="scale(1 1) rotate(0) translate(4 1551)">
<title>e_1</title>
<polygon fill="white" stroke="none" points="-4,4 -4,-1551 1552.5,-1551 1552.5,4 -4,4"/>
<!-- e_20 -->
<g id="node1" class="node">
<title>e_20</title>
<polygon fill="#3a85b9" stroke="black" points="408.5,-1278 230.5,-1278 230.5,-1242 408.5,-1242 408.5,-1278"/>
<text xml:space="preserve" text-anchor="middle" x="319.5" y="-1252.25" font-family="Times New Roman,serif" font-size="20.00" fill="white">18 float(sys.argv[1])</text>
</g>
<!-- e_11 -->
<g id="node2" class="node">
<title>e_11</title>
<path fill="#85cbd0" stroke="black" d="M89.12,-1422C89.12,-1422 39.38,-1422 39.38,-1422 33.38,-1422 27.38,-1416 27.38,-1410 27.38,-1410 27.38,-1398 27.38,-1398 27.38,-1392 33.38,-1386 39.38,-1386 39.38,-1386 89.12,-1386 89.12,-1386 95.12,-1386 101.12,-1392 101.12,-1398 101.12,-1398 101.12,-1410 101.12,-1410 101.12,-1416 95.12,-1422 89.12,-1422"/>
<text xml:space="preserve" text-anchor="middle" x="64.25" y="-1396.25" font-family="Times New Roman,serif" font-size="20.00">&#45;1 float</text>
</g>
<!-- e_20&#45;&gt;e_11 -->
<g id="edge37" class="edge">
<title>e_20&#45;&gt;e_11</title>
<path fill="none" stroke="black" d="M241.48,-1278.41C210.18,-1288.24 174.8,-1302.53 146.5,-1322.5 124.4,-1338.1 102.95,-1359.99 87.64,-1377.16"/>
<polygon fill="black" stroke="black" points="85.16,-1374.68 81.22,-1384.51 90.44,-1379.28 85.16,-1374.68"/>
<text xml:space="preserve" text-anchor="middle" x="175" y="-1325.7" font-family="Times New Roman,serif" font-size="14.00">.__class__</text>
</g>
<!-- e_19 -->
<g id="node8" class="node">
<title>e_19</title>
<path fill="#85cbd0" stroke="black" d="M116.5,-1278C116.5,-1278 12,-1278 12,-1278 6,-1278 0,-1272 0,-1266 0,-1266 0,-1254 0,-1254 0,-1248 6,-1242 12,-1242 12,-1242 116.5,-1242 116.5,-1242 122.5,-1242 128.5,-1248 128.5,-1254 128.5,-1254 128.5,-1266 128.5,-1266 128.5,-1272 122.5,-1278 116.5,-1278"/>
<text xml:space="preserve" text-anchor="middle" x="64.25" y="-1252.25" font-family="Times New Roman,serif" font-size="20.00">18 sys.argv[1]</text>
</g>
<!-- e_20&#45;&gt;e_19 -->
<g id="edge38" class="edge">
<title>e_20&#45;&gt;e_19</title>
<path fill="none" stroke="black" d="M230.28,-1260C200.92,-1260 168.52,-1260 140.26,-1260"/>
<polygon fill="black" stroke="black" points="140.35,-1256.5 130.35,-1260 140.35,-1263.5 140.35,-1256.5"/>
</g>
<!-- e_31 -->
<g id="node3" class="node">
<title>e_31</title>
<path fill="#85cbd0" stroke="black" d="M340.25,-1547C340.25,-1547 298.75,-1547 298.75,-1547 292.75,-1547 286.75,-1541 286.75,-1535 286.75,-1535 286.75,-1523 286.75,-1523 286.75,-1517 292.75,-1511 298.75,-1511 298.75,-1511 340.25,-1511 340.25,-1511 346.25,-1511 352.25,-1517 352.25,-1523 352.25,-1523 352.25,-1535 352.25,-1535 352.25,-1541 346.25,-1547 340.25,-1547"/>
<text xml:space="preserve" text-anchor="middle" x="319.5" y="-1521.25" font-family="Times New Roman,serif" font-size="20.00">8 0.15</text>
</g>
<!-- e_31&#45;&gt;e_11 -->
<g id="edge45" class="edge">
<title>e_31&#45;&gt;e_11</title>
<path fill="none" stroke="black" d="M286.29,-1522.75C250.34,-1514.8 191.33,-1498.79 146.5,-1472 126.83,-1460.25 107.07,-1443.83 91.96,-1430.08"/>
<polygon fill="black" stroke="black" points="94.45,-1427.61 84.75,-1423.37 89.69,-1432.74 94.45,-1427.61"/>
<text xml:space="preserve" text-anchor="middle" x="175" y="-1500.65" font-family="Times New Roman,serif" font-size="14.00">.__class__</text>
</g>
<!-- e_33 -->
<g id="node4" class="node">
<title>e_33</title>
<path fill="#85cbd0" stroke="black" d="M340.25,-1493C340.25,-1493 298.75,-1493 298.75,-1493 292.75,-1493 286.75,-1487 286.75,-1481 286.75,-1481 286.75,-1469 286.75,-1469 286.75,-1463 292.75,-1457 298.75,-1457 298.75,-1457 340.25,-1457 340.25,-1457 346.25,-1457 352.25,-1463 352.25,-1469 352.25,-1469 352.25,-1481 352.25,-1481 352.25,-1487 346.25,-1493 340.25,-1493"/>
<text xml:space="preserve" text-anchor="middle" x="319.5" y="-1467.25" font-family="Times New Roman,serif" font-size="20.00">9 0.15</text>
</g>
<!-- e_33&#45;&gt;e_11 -->
<g id="edge46" class="edge">
<title>e_33&#45;&gt;e_11</title>
<path fill="none" stroke="black" d="M286.42,-1469.24C251.58,-1462.64 194.49,-1450.8 146.5,-1436 135.08,-1432.48 122.99,-1428.09 111.73,-1423.71"/>
<polygon fill="black" stroke="black" points="113.22,-1420.54 102.64,-1420.09 110.64,-1427.04 113.22,-1420.54"/>
<text xml:space="preserve" text-anchor="middle" x="175" y="-1454.47" font-family="Times New Roman,serif" font-size="14.00">.__class__</text>
</g>
<!-- e_40 -->
<g id="node5" class="node">
<title>e_40</title>
<polygon fill="#3a85b9" stroke="black" points="417.12,-1386 221.88,-1386 221.88,-1350 417.12,-1350 417.12,-1386"/>
<text xml:space="preserve" text-anchor="middle" x="319.5" y="-1360.25" font-family="Times New Roman,serif" font-size="20.00" fill="white">11 time.perf_counter()</text>
</g>
<!-- e_40&#45;&gt;e_11 -->
<g id="edge40" class="edge">
<title>e_40&#45;&gt;e_11</title>
<path fill="none" stroke="black" d="M221.58,-1380.95C197.07,-1384.31 170.81,-1387.97 146.5,-1391.5 135.49,-1393.1 123.66,-1394.88 112.52,-1396.59"/>
<polygon fill="black" stroke="black" points="112.07,-1393.12 102.72,-1398.1 113.14,-1400.04 112.07,-1393.12"/>
<text xml:space="preserve" text-anchor="middle" x="175" y="-1394.7" font-family="Times New Roman,serif" font-size="14.00">.__class__</text>
</g>
<!-- e_60 -->
<g id="node6" class="node">
<title>e_60</title>
<polygon fill="#3a85b9" stroke="black" points="417.5,-1332 221.5,-1332 221.5,-1296 417.5,-1296 417.5,-1332"/>
<text xml:space="preserve" text-anchor="middle" x="319.5" y="-1306.25" font-family="Times New Roman,serif" font-size="20.00" fill="white">15 time.perf_counter()</text>
</g>
<!-- e_60&#45;&gt;e_11 -->
<g id="edge41" class="edge">
<title>e_60&#45;&gt;e_11</title>
<path fill="none" stroke="black" d="M240.34,-1332.47C210.53,-1340.44 176.52,-1350.66 146.5,-1362.5 133.61,-1367.59 120.04,-1374.04 107.76,-1380.34"/>
<polygon fill="black" stroke="black" points="106.36,-1377.12 99.13,-1384.86 109.61,-1383.32 106.36,-1377.12"/>
<text xml:space="preserve" text-anchor="middle" x="175" y="-1365.7" font-family="Times New Roman,serif" font-size="14.00">.__class__</text>
</g>
<!-- e_66 -->
<g id="node7" class="node">
<title>e_66</title>
<path fill="#85cbd0" stroke="black" d="M789.62,-1386C789.62,-1386 603.38,-1386 603.38,-1386 597.38,-1386 591.38,-1380 591.38,-1374 591.38,-1374 591.38,-1362 591.38,-1362 591.38,-1356 597.38,-1350 603.38,-1350 603.38,-1350 789.62,-1350 789.62,-1350 795.62,-1350 801.62,-1356 801.62,-1362 801.62,-1362 801.62,-1374 801.62,-1374 801.62,-1380 795.62,-1386 789.62,-1386"/>
<text xml:space="preserve" text-anchor="middle" x="696.5" y="-1360.25" font-family="Times New Roman,serif" font-size="20.00">16 end_time &#45; start_time</text>
</g>
<!-- e_66&#45;&gt;e_11 -->
<g id="edge42" class="edge">
<title>e_66&#45;&gt;e_11</title>
<path fill="none" stroke="black" d="M591.06,-1379.59C491.58,-1389.89 337.56,-1403.93 203.5,-1408 178.18,-1408.77 171.83,-1408.62 146.5,-1408 135.5,-1407.73 123.66,-1407.25 112.53,-1406.72"/>
<polygon fill="black" stroke="black" points="112.91,-1403.24 102.75,-1406.23 112.56,-1410.23 112.91,-1403.24"/>
<text xml:space="preserve" text-anchor="middle" x="319.5" y="-1410.45" font-family="Times New Roman,serif" font-size="14.00">.__class__</text>
</g>
<!-- e_66&#45;&gt;e_40 -->
<g id="edge44" class="edge">
<title>e_66&#45;&gt;e_40</title>
<path fill="none" stroke="black" stroke-dasharray="5,2" d="M591.04,-1368C540.47,-1368 479.8,-1368 428.74,-1368"/>
<polygon fill="none" stroke="black" points="428.84,-1364.5 418.84,-1368 428.84,-1371.5 428.84,-1364.5"/>
</g>
<!-- e_66&#45;&gt;e_60 -->
<g id="edge43" class="edge">
<title>e_66&#45;&gt;e_60</title>
<path fill="none" stroke="black" stroke-dasharray="5,2" d="M591.04,-1352.96C540.67,-1345.7 480.28,-1337.01 429.35,-1329.67"/>
<polygon fill="none" stroke="black" points="429.86,-1326.21 419.46,-1328.25 428.86,-1333.14 429.86,-1326.21"/>
</g>
<!-- e_21 -->
<g id="node9" class="node">
<title>e_21</title>
<path fill="#85cbd0" stroke="black" d="M711.5,-1278C711.5,-1278 681.5,-1278 681.5,-1278 675.5,-1278 669.5,-1272 669.5,-1266 669.5,-1266 669.5,-1254 669.5,-1254 669.5,-1248 675.5,-1242 681.5,-1242 681.5,-1242 711.5,-1242 711.5,-1242 717.5,-1242 723.5,-1248 723.5,-1254 723.5,-1254 723.5,-1266 723.5,-1266 723.5,-1272 717.5,-1278 711.5,-1278"/>
<text xml:space="preserve" text-anchor="middle" x="696.5" y="-1252.25" font-family="Times New Roman,serif" font-size="20.00">18 n</text>
</g>
<!-- e_21&#45;&gt;e_20 -->
<g id="edge39" class="edge">
<title>e_21&#45;&gt;e_20</title>
<path fill="none" stroke="black" d="M669.13,-1260C618.21,-1260 503.96,-1260 420.07,-1260"/>
<polygon fill="none" stroke="black" points="420.21,-1256.5 410.21,-1260 420.21,-1263.5 420.21,-1256.5"/>
</g>
<!-- e_24 -->
<g id="node10" class="node">
<title>e_24</title>
<polygon fill="#3a85b9" stroke="black" points="1079.25,-792 975.5,-792 975.5,-756 1079.25,-756 1079.25,-792"/>
<text xml:space="preserve" text-anchor="middle" x="1027.38" y="-766.25" font-family="Times New Roman,serif" font-size="20.00" fill="white">19 main(n)</text>
</g>
<!-- e_24&#45;&gt;e_21 -->
<g id="edge24" class="edge">
<title>e_24&#45;&gt;e_21</title>
<path fill="none" stroke="black" d="M1025.9,-792.38C1023.44,-870.93 1009.38,-1176.95 938.5,-1233 879.83,-1279.39 786.52,-1274.4 734.91,-1267"/>
<polygon fill="black" stroke="black" points="735.56,-1263.55 725.14,-1265.48 734.48,-1270.47 735.56,-1263.55"/>
</g>
<!-- a_14 -->
<g id="node11" class="node">
<title>a_14</title>
<path fill="white" stroke="black" d="M864.25,-1224C864.25,-1224 528.75,-1224 528.75,-1224 522.75,-1224 516.75,-1218 516.75,-1212 516.75,-1212 516.75,-1200 516.75,-1200 516.75,-1194 522.75,-1188 528.75,-1188 528.75,-1188 864.25,-1188 864.25,-1188 870.25,-1188 876.25,-1194 876.25,-1200 876.25,-1200 876.25,-1212 876.25,-1212 876.25,-1218 870.25,-1224 864.25,-1224"/>
<text xml:space="preserve" text-anchor="middle" x="696.5" y="-1198.25" font-family="Times New Roman,serif" font-size="20.00">images/tmp/img_1771553521.0653365.png</text>
</g>
<!-- e_24&#45;&gt;a_14 -->
<g id="edge1" class="edge">
<title>e_24&#45;&gt;a_14</title>
<path fill="none" stroke="black" stroke-dasharray="5,2" d="M1025.13,-792.43C1020.25,-864.19 999.59,-1121.4 938.5,-1170 923.42,-1182 906.03,-1190.57 887.64,-1196.6"/>
<polygon fill="black" stroke="black" points="886.73,-1193.22 878.15,-1199.44 888.74,-1199.93 886.73,-1193.22"/>
</g>
<!-- a_24 -->
<g id="node12" class="node">
<title>a_24</title>
<path fill="white" stroke="black" d="M859.38,-1170C859.38,-1170 533.62,-1170 533.62,-1170 527.62,-1170 521.62,-1164 521.62,-1158 521.62,-1158 521.62,-1146 521.62,-1146 521.62,-1140 527.62,-1134 533.62,-1134 533.62,-1134 859.38,-1134 859.38,-1134 865.38,-1134 871.38,-1140 871.38,-1146 871.38,-1146 871.38,-1158 871.38,-1158 871.38,-1164 865.38,-1170 859.38,-1170"/>
<text xml:space="preserve" text-anchor="middle" x="696.5" y="-1144.25" font-family="Times New Roman,serif" font-size="20.00">images/tmp/img_1771553521.537066.png</text>
</g>
<!-- e_24&#45;&gt;a_24 -->
<g id="edge2" class="edge">
<title>e_24&#45;&gt;a_24</title>
<path fill="none" stroke="black" stroke-dasharray="5,2" d="M1024.3,-792.12C1017.17,-856.99 991.1,-1074.15 938.5,-1116 922.09,-1129.05 902.95,-1138.05 882.75,-1144.14"/>
<polygon fill="black" stroke="black" points="881.95,-1140.73 873.23,-1146.75 883.8,-1147.48 881.95,-1140.73"/>
</g>
<!-- a_34 -->
<g id="node13" class="node">
<title>a_34</title>
<path fill="white" stroke="black" d="M864.25,-1116C864.25,-1116 528.75,-1116 528.75,-1116 522.75,-1116 516.75,-1110 516.75,-1104 516.75,-1104 516.75,-1092 516.75,-1092 516.75,-1086 522.75,-1080 528.75,-1080 528.75,-1080 864.25,-1080 864.25,-1080 870.25,-1080 876.25,-1086 876.25,-1092 876.25,-1092 876.25,-1104 876.25,-1104 876.25,-1110 870.25,-1116 864.25,-1116"/>
<text xml:space="preserve" text-anchor="middle" x="696.5" y="-1090.25" font-family="Times New Roman,serif" font-size="20.00">images/tmp/img_1771553522.0266383.png</text>
</g>
<!-- e_24&#45;&gt;a_34 -->
<g id="edge3" class="edge">
<title>e_24&#45;&gt;a_34</title>
<path fill="none" stroke="black" stroke-dasharray="5,2" d="M1023.16,-792.38C1013.61,-850.67 983.25,-1027.79 938.5,-1062 923.26,-1073.65 905.81,-1082.01 887.43,-1087.93"/>
<polygon fill="black" stroke="black" points="886.56,-1084.53 877.95,-1090.71 888.54,-1091.25 886.56,-1084.53"/>
</g>
<!-- a_44 -->
<g id="node14" class="node">
<title>a_44</title>
<path fill="white" stroke="black" d="M864.25,-1062C864.25,-1062 528.75,-1062 528.75,-1062 522.75,-1062 516.75,-1056 516.75,-1050 516.75,-1050 516.75,-1038 516.75,-1038 516.75,-1032 522.75,-1026 528.75,-1026 528.75,-1026 864.25,-1026 864.25,-1026 870.25,-1026 876.25,-1032 876.25,-1038 876.25,-1038 876.25,-1050 876.25,-1050 876.25,-1056 870.25,-1062 864.25,-1062"/>
<text xml:space="preserve" text-anchor="middle" x="696.5" y="-1036.25" font-family="Times New Roman,serif" font-size="20.00">images/tmp/img_1771553522.5994854.png</text>
</g>
<!-- e_24&#45;&gt;a_44 -->
<g id="edge4" class="edge">
<title>e_24&#45;&gt;a_44</title>
<path fill="none" stroke="black" stroke-dasharray="5,2" d="M1025.8,-792.32C1023.2,-837.72 1009.44,-954.17 938.5,-1008 923.29,-1019.54 905.91,-1027.84 887.6,-1033.73"/>
<polygon fill="black" stroke="black" points="886.78,-1030.33 878.17,-1036.51 888.75,-1037.04 886.78,-1030.33"/>
</g>
<!-- a_54 -->
<g id="node15" class="node">
<title>a_54</title>
<path fill="white" stroke="black" d="M863.88,-1008C863.88,-1008 529.12,-1008 529.12,-1008 523.12,-1008 517.12,-1002 517.12,-996 517.12,-996 517.12,-984 517.12,-984 517.12,-978 523.12,-972 529.12,-972 529.12,-972 863.88,-972 863.88,-972 869.88,-972 875.88,-978 875.88,-984 875.88,-984 875.88,-996 875.88,-996 875.88,-1002 869.88,-1008 863.88,-1008"/>
<text xml:space="preserve" text-anchor="middle" x="696.5" y="-982.25" font-family="Times New Roman,serif" font-size="20.00">images/tmp/img_1771553523.1144197.png</text>
</g>
<!-- e_24&#45;&gt;a_54 -->
<g id="edge5" class="edge">
<title>e_24&#45;&gt;a_54</title>
<path fill="none" stroke="black" stroke-dasharray="5,2" d="M1022.88,-792.48C1015.46,-830.08 994.02,-914.06 938.5,-954 923,-965.15 905.43,-973.2 887.01,-978.94"/>
<polygon fill="black" stroke="black" points="886.18,-975.53 877.53,-981.64 888.1,-982.27 886.18,-975.53"/>
</g>
<!-- a_64 -->
<g id="node16" class="node">
<title>a_64</title>
<path fill="white" stroke="black" d="M864.25,-954C864.25,-954 528.75,-954 528.75,-954 522.75,-954 516.75,-948 516.75,-942 516.75,-942 516.75,-930 516.75,-930 516.75,-924 522.75,-918 528.75,-918 528.75,-918 864.25,-918 864.25,-918 870.25,-918 876.25,-924 876.25,-930 876.25,-930 876.25,-942 876.25,-942 876.25,-948 870.25,-954 864.25,-954"/>
<text xml:space="preserve" text-anchor="middle" x="696.5" y="-928.25" font-family="Times New Roman,serif" font-size="20.00">images/tmp/img_1771553523.5767035.png</text>
</g>
<!-- e_24&#45;&gt;a_64 -->
<g id="edge6" class="edge">
<title>e_24&#45;&gt;a_64</title>
<path fill="none" stroke="black" stroke-dasharray="5,2" d="M1018.06,-792.15C1005.92,-820.66 980.15,-874.31 938.5,-900 922.85,-909.65 905.52,-916.8 887.54,-922.06"/>
<polygon fill="black" stroke="black" points="886.79,-918.64 878.05,-924.62 888.61,-925.39 886.79,-918.64"/>
</g>
<!-- a_74 -->
<g id="node17" class="node">
<title>a_74</title>
<path fill="white" stroke="black" d="M864.25,-900C864.25,-900 528.75,-900 528.75,-900 522.75,-900 516.75,-894 516.75,-888 516.75,-888 516.75,-876 516.75,-876 516.75,-870 522.75,-864 528.75,-864 528.75,-864 864.25,-864 864.25,-864 870.25,-864 876.25,-870 876.25,-876 876.25,-876 876.25,-888 876.25,-888 876.25,-894 870.25,-900 864.25,-900"/>
<text xml:space="preserve" text-anchor="middle" x="696.5" y="-874.25" font-family="Times New Roman,serif" font-size="20.00">images/tmp/img_1771553524.0661743.png</text>
</g>
<!-- e_24&#45;&gt;a_74 -->
<g id="edge7" class="edge">
<title>e_24&#45;&gt;a_74</title>
<path fill="none" stroke="black" stroke-dasharray="5,2" d="M1006.24,-792.42C990.09,-809.52 965.68,-833.6 938.5,-846 922.48,-853.31 905.27,-858.95 887.67,-863.32"/>
<polygon fill="black" stroke="black" points="887.1,-859.86 878.15,-865.53 888.68,-866.67 887.1,-859.86"/>
</g>
<!-- a_84 -->
<g id="node18" class="node">
<title>a_84</title>
<path fill="white" stroke="black" d="M864.25,-846C864.25,-846 528.75,-846 528.75,-846 522.75,-846 516.75,-840 516.75,-834 516.75,-834 516.75,-822 516.75,-822 516.75,-816 522.75,-810 528.75,-810 528.75,-810 864.25,-810 864.25,-810 870.25,-810 876.25,-816 876.25,-822 876.25,-822 876.25,-834 876.25,-834 876.25,-840 870.25,-846 864.25,-846"/>
<text xml:space="preserve" text-anchor="middle" x="696.5" y="-820.25" font-family="Times New Roman,serif" font-size="20.00">images/tmp/img_1771553524.5905447.png</text>
</g>
<!-- e_24&#45;&gt;a_84 -->
<g id="edge8" class="edge">
<title>e_24&#45;&gt;a_84</title>
<path fill="none" stroke="black" stroke-dasharray="5,2" d="M975.05,-782.91C969.16,-784.69 963.22,-786.45 957.5,-788 924.64,-796.91 888.76,-803.26 854.43,-808.02"/>
<polygon fill="black" stroke="black" points="854.29,-804.5 844.84,-809.3 855.22,-811.44 854.29,-804.5"/>
</g>
<!-- a_94 -->
<g id="node19" class="node">
<title>a_94</title>
<path fill="white" stroke="black" d="M864.25,-792C864.25,-792 528.75,-792 528.75,-792 522.75,-792 516.75,-786 516.75,-780 516.75,-780 516.75,-768 516.75,-768 516.75,-762 522.75,-756 528.75,-756 528.75,-756 864.25,-756 864.25,-756 870.25,-756 876.25,-762 876.25,-768 876.25,-768 876.25,-780 876.25,-780 876.25,-786 870.25,-792 864.25,-792"/>
<text xml:space="preserve" text-anchor="middle" x="696.5" y="-766.25" font-family="Times New Roman,serif" font-size="20.00">images/tmp/img_1771553525.0705047.png</text>
</g>
<!-- e_24&#45;&gt;a_94 -->
<g id="edge9" class="edge">
<title>e_24&#45;&gt;a_94</title>
<path fill="none" stroke="black" stroke-dasharray="5,2" d="M975.35,-768.95C950.98,-768.06 920.13,-767.51 887.92,-767.33"/>
<polygon fill="black" stroke="black" points="888,-763.83 877.99,-767.28 887.97,-770.83 888,-763.83"/>
</g>
<!-- a_104 -->
<g id="node20" class="node">
<title>a_104</title>
<path fill="white" stroke="black" d="M864.25,-738C864.25,-738 528.75,-738 528.75,-738 522.75,-738 516.75,-732 516.75,-726 516.75,-726 516.75,-714 516.75,-714 516.75,-708 522.75,-702 528.75,-702 528.75,-702 864.25,-702 864.25,-702 870.25,-702 876.25,-708 876.25,-714 876.25,-714 876.25,-726 876.25,-726 876.25,-732 870.25,-738 864.25,-738"/>
<text xml:space="preserve" text-anchor="middle" x="696.5" y="-712.25" font-family="Times New Roman,serif" font-size="20.00">images/tmp/img_1771553525.7374396.png</text>
</g>
<!-- e_24&#45;&gt;a_104 -->
<g id="edge10" class="edge">
<title>e_24&#45;&gt;a_104</title>
<path fill="none" stroke="black" stroke-dasharray="5,2" d="M997.04,-755.58C980.13,-748.8 958.35,-742.12 938.5,-738 922.18,-734.61 905.15,-731.62 888.02,-729.03"/>
<polygon fill="black" stroke="black" points="888.65,-725.58 878.25,-727.6 887.63,-732.51 888.65,-725.58"/>
</g>
<!-- a_114 -->
<g id="node21" class="node">
<title>a_114</title>
<path fill="white" stroke="black" d="M864.25,-684C864.25,-684 528.75,-684 528.75,-684 522.75,-684 516.75,-678 516.75,-672 516.75,-672 516.75,-660 516.75,-660 516.75,-654 522.75,-648 528.75,-648 528.75,-648 864.25,-648 864.25,-648 870.25,-648 876.25,-654 876.25,-660 876.25,-660 876.25,-672 876.25,-672 876.25,-678 870.25,-684 864.25,-684"/>
<text xml:space="preserve" text-anchor="middle" x="696.5" y="-658.25" font-family="Times New Roman,serif" font-size="20.00">images/tmp/img_1771553526.2080464.png</text>
</g>
<!-- e_24&#45;&gt;a_114 -->
<g id="edge11" class="edge">
<title>e_24&#45;&gt;a_114</title>
<path fill="none" stroke="black" stroke-dasharray="5,2" d="M1017.2,-755.77C1002.78,-734 972.85,-699.68 938.5,-684 922.48,-676.69 905.27,-671.05 887.67,-666.76"/>
<polygon fill="black" stroke="black" points="888.68,-663.4 878.15,-664.6 887.13,-670.23 888.68,-663.4"/>
</g>
<!-- a_115 -->
<g id="node22" class="node">
<title>a_115</title>
<path fill="white" stroke="black" d="M926.5,-630C926.5,-630 466.5,-630 466.5,-630 460.5,-630 454.5,-624 454.5,-618 454.5,-618 454.5,-606 454.5,-606 454.5,-600 460.5,-594 466.5,-594 466.5,-594 926.5,-594 926.5,-594 932.5,-594 938.5,-600 938.5,-606 938.5,-606 938.5,-618 938.5,-618 938.5,-624 932.5,-630 926.5,-630"/>
<text xml:space="preserve" text-anchor="middle" x="696.5" y="-604.25" font-family="Times New Roman,serif" font-size="20.00">C:Usersas119OneDriveD ... mg_1771553521.0653365.png</text>
</g>
<!-- e_24&#45;&gt;a_115 -->
<g id="edge12" class="edge">
<title>e_24&#45;&gt;a_115</title>
<path fill="none" stroke="black" stroke-dasharray="5,2" d="M1020.37,-755.85C1009.38,-725.83 983.01,-666.45 938.5,-639 936.62,-637.84 934.71,-636.72 932.79,-635.63"/>
<polygon fill="black" stroke="black" points="934.79,-632.73 924.31,-631.17 931.53,-638.92 934.79,-632.73"/>
</g>
<!-- a_116 -->
<g id="node23" class="node">
<title>a_116</title>
<path fill="white" stroke="black" d="M924.25,-576C924.25,-576 468.75,-576 468.75,-576 462.75,-576 456.75,-570 456.75,-564 456.75,-564 456.75,-552 456.75,-552 456.75,-546 462.75,-540 468.75,-540 468.75,-540 924.25,-540 924.25,-540 930.25,-540 936.25,-546 936.25,-552 936.25,-552 936.25,-564 936.25,-564 936.25,-570 930.25,-576 924.25,-576"/>
<text xml:space="preserve" text-anchor="middle" x="696.5" y="-550.25" font-family="Times New Roman,serif" font-size="20.00">C:Usersas119OneDriveD ... img_1771553521.537066.png</text>
</g>
<!-- e_24&#45;&gt;a_116 -->
<g id="edge13" class="edge">
<title>e_24&#45;&gt;a_116</title>
<path fill="none" stroke="black" stroke-dasharray="5,2" d="M1023.84,-755.73C1017.42,-717.02 996.66,-626.84 938.5,-585 937.3,-584.14 936.08,-583.29 934.86,-582.46"/>
<polygon fill="black" stroke="black" points="936.86,-579.59 926.52,-577.27 933.16,-585.53 936.86,-579.59"/>
</g>
<!-- a_117 -->
<g id="node24" class="node">
<title>a_117</title>
<path fill="white" stroke="black" d="M926.5,-522C926.5,-522 466.5,-522 466.5,-522 460.5,-522 454.5,-516 454.5,-510 454.5,-510 454.5,-498 454.5,-498 454.5,-492 460.5,-486 466.5,-486 466.5,-486 926.5,-486 926.5,-486 932.5,-486 938.5,-492 938.5,-498 938.5,-498 938.5,-510 938.5,-510 938.5,-516 932.5,-522 926.5,-522"/>
<text xml:space="preserve" text-anchor="middle" x="696.5" y="-496.25" font-family="Times New Roman,serif" font-size="20.00">C:Usersas119OneDriveD ... mg_1771553522.0266383.png</text>
</g>
<!-- e_24&#45;&gt;a_117 -->
<g id="edge14" class="edge">
<title>e_24&#45;&gt;a_117</title>
<path fill="none" stroke="black" stroke-dasharray="5,2" d="M1025.9,-755.69C1023.62,-709.51 1010.72,-587.94 938.5,-531 937.53,-530.23 936.55,-529.48 935.56,-528.74"/>
<polygon fill="black" stroke="black" points="937.89,-526.1 927.66,-523.33 933.93,-531.87 937.89,-526.1"/>
</g>
<!-- a_118 -->
<g id="node25" class="node">
<title>a_118</title>
<path fill="white" stroke="black" d="M926.5,-468C926.5,-468 466.5,-468 466.5,-468 460.5,-468 454.5,-462 454.5,-456 454.5,-456 454.5,-444 454.5,-444 454.5,-438 460.5,-432 466.5,-432 466.5,-432 926.5,-432 926.5,-432 932.5,-432 938.5,-438 938.5,-444 938.5,-444 938.5,-456 938.5,-456 938.5,-462 932.5,-468 926.5,-468"/>
<text xml:space="preserve" text-anchor="middle" x="696.5" y="-442.25" font-family="Times New Roman,serif" font-size="20.00">C:Usersas119OneDriveD ... mg_1771553522.5994854.png</text>
</g>
<!-- e_24&#45;&gt;a_118 -->
<g id="edge15" class="edge">
<title>e_24&#45;&gt;a_118</title>
<path fill="none" stroke="black" stroke-dasharray="5,2" d="M1023.62,-755.62C1014.38,-696.66 982.6,-513.95 938.5,-477 937.69,-476.32 936.87,-475.65 936.04,-474.99"/>
<polygon fill="black" stroke="black" points="938.29,-472.3 928.15,-469.23 934.16,-477.95 938.29,-472.3"/>
</g>
<!-- a_119 -->
<g id="node26" class="node">
<title>a_119</title>
<path fill="white" stroke="black" d="M926.12,-414C926.12,-414 466.88,-414 466.88,-414 460.88,-414 454.88,-408 454.88,-402 454.88,-402 454.88,-390 454.88,-390 454.88,-384 460.88,-378 466.88,-378 466.88,-378 926.12,-378 926.12,-378 932.12,-378 938.12,-384 938.12,-390 938.12,-390 938.12,-402 938.12,-402 938.12,-408 932.12,-414 926.12,-414"/>
<text xml:space="preserve" text-anchor="middle" x="696.5" y="-388.25" font-family="Times New Roman,serif" font-size="20.00">C:Usersas119OneDriveD ... mg_1771553523.1144197.png</text>
</g>
<!-- e_24&#45;&gt;a_119 -->
<g id="edge16" class="edge">
<title>e_24&#45;&gt;a_119</title>
<path fill="none" stroke="black" stroke-dasharray="5,2" d="M1024.51,-755.61C1017.44,-689.84 990.06,-467.82 938.5,-423 937.83,-422.42 937.15,-421.84 936.47,-421.28"/>
<polygon fill="black" stroke="black" points="938.62,-418.51 928.55,-415.24 934.39,-424.08 938.62,-418.51"/>
</g>
<!-- a_120 -->
<g id="node27" class="node">
<title>a_120</title>
<path fill="white" stroke="black" d="M926.5,-360C926.5,-360 466.5,-360 466.5,-360 460.5,-360 454.5,-354 454.5,-348 454.5,-348 454.5,-336 454.5,-336 454.5,-330 460.5,-324 466.5,-324 466.5,-324 926.5,-324 926.5,-324 932.5,-324 938.5,-330 938.5,-336 938.5,-336 938.5,-348 938.5,-348 938.5,-354 932.5,-360 926.5,-360"/>
<text xml:space="preserve" text-anchor="middle" x="696.5" y="-334.25" font-family="Times New Roman,serif" font-size="20.00">C:Usersas119OneDriveD ... mg_1771553523.5767035.png</text>
</g>
<!-- e_24&#45;&gt;a_120 -->
<g id="edge17" class="edge">
<title>e_24&#45;&gt;a_120</title>
<path fill="none" stroke="black" stroke-dasharray="5,2" d="M1025.22,-755.81C1020.25,-683.95 998.2,-421.23 938.5,-369 937.85,-368.43 937.19,-367.86 936.52,-367.31"/>
<polygon fill="black" stroke="black" points="938.89,-364.71 928.83,-361.4 934.63,-370.26 938.89,-364.71"/>
</g>
<!-- a_121 -->
<g id="node28" class="node">
<title>a_121</title>
<path fill="white" stroke="black" d="M926.5,-306C926.5,-306 466.5,-306 466.5,-306 460.5,-306 454.5,-300 454.5,-294 454.5,-294 454.5,-282 454.5,-282 454.5,-276 460.5,-270 466.5,-270 466.5,-270 926.5,-270 926.5,-270 932.5,-270 938.5,-276 938.5,-282 938.5,-282 938.5,-294 938.5,-294 938.5,-300 932.5,-306 926.5,-306"/>
<text xml:space="preserve" text-anchor="middle" x="696.5" y="-280.25" font-family="Times New Roman,serif" font-size="20.00">C:Usersas119OneDriveD ... mg_1771553524.0661743.png</text>
</g>
<!-- e_24&#45;&gt;a_121 -->
<g id="edge18" class="edge">
<title>e_24&#45;&gt;a_121</title>
<path fill="none" stroke="black" stroke-dasharray="5,2" d="M1025.75,-755.52C1022.71,-677.23 1006.63,-374.21 938.5,-315 937.83,-314.42 937.15,-313.84 936.47,-313.28"/>
<polygon fill="black" stroke="black" points="938.62,-310.51 928.55,-307.24 934.39,-316.08 938.62,-310.51"/>
</g>
<!-- a_122 -->
<g id="node29" class="node">
<title>a_122</title>
<path fill="white" stroke="black" d="M926.5,-252C926.5,-252 466.5,-252 466.5,-252 460.5,-252 454.5,-246 454.5,-240 454.5,-240 454.5,-228 454.5,-228 454.5,-222 460.5,-216 466.5,-216 466.5,-216 926.5,-216 926.5,-216 932.5,-216 938.5,-222 938.5,-228 938.5,-228 938.5,-240 938.5,-240 938.5,-246 932.5,-252 926.5,-252"/>
<text xml:space="preserve" text-anchor="middle" x="696.5" y="-226.25" font-family="Times New Roman,serif" font-size="20.00">C:Usersas119OneDriveD ... mg_1771553524.5905447.png</text>
</g>
<!-- e_24&#45;&gt;a_122 -->
<g id="edge19" class="edge">
<title>e_24&#45;&gt;a_122</title>
<path fill="none" stroke="black" stroke-dasharray="5,2" d="M1026.19,-755.63C1024.92,-671.9 1015.05,-327.54 938.5,-261 937.83,-260.42 937.15,-259.84 936.47,-259.28"/>
<polygon fill="black" stroke="black" points="938.62,-256.51 928.55,-253.24 934.39,-262.08 938.62,-256.51"/>
</g>
<!-- a_123 -->
<g id="node30" class="node">
<title>a_123</title>
<path fill="white" stroke="black" d="M926.5,-198C926.5,-198 466.5,-198 466.5,-198 460.5,-198 454.5,-192 454.5,-186 454.5,-186 454.5,-174 454.5,-174 454.5,-168 460.5,-162 466.5,-162 466.5,-162 926.5,-162 926.5,-162 932.5,-162 938.5,-168 938.5,-174 938.5,-174 938.5,-186 938.5,-186 938.5,-192 932.5,-198 926.5,-198"/>
<text xml:space="preserve" text-anchor="middle" x="696.5" y="-172.25" font-family="Times New Roman,serif" font-size="20.00">C:Usersas119OneDriveD ... mg_1771553525.0705047.png</text>
</g>
<!-- e_24&#45;&gt;a_123 -->
<g id="edge20" class="edge">
<title>e_24&#45;&gt;a_123</title>
<path fill="none" stroke="black" stroke-dasharray="5,2" d="M1026.54,-755.5C1026.93,-666.17 1023.58,-280.7 938.5,-207 937.83,-206.42 937.15,-205.84 936.47,-205.28"/>
<polygon fill="black" stroke="black" points="938.62,-202.51 928.53,-199.26 934.39,-208.09 938.62,-202.51"/>
</g>
<!-- a_124 -->
<g id="node31" class="node">
<title>a_124</title>
<path fill="white" stroke="black" d="M926.5,-144C926.5,-144 466.5,-144 466.5,-144 460.5,-144 454.5,-138 454.5,-132 454.5,-132 454.5,-120 454.5,-120 454.5,-114 460.5,-108 466.5,-108 466.5,-108 926.5,-108 926.5,-108 932.5,-108 938.5,-114 938.5,-120 938.5,-120 938.5,-132 938.5,-132 938.5,-138 932.5,-144 926.5,-144"/>
<text xml:space="preserve" text-anchor="middle" x="696.5" y="-118.25" font-family="Times New Roman,serif" font-size="20.00">C:Usersas119OneDriveD ... mg_1771553525.7374396.png</text>
</g>
<!-- e_24&#45;&gt;a_124 -->
<g id="edge21" class="edge">
<title>e_24&#45;&gt;a_124</title>
<path fill="none" stroke="black" stroke-dasharray="5,2" d="M1025.2,-755.77C1018.68,-657.51 985.57,-193.77 938.5,-153 937.83,-152.42 937.15,-151.84 936.47,-151.28"/>
<polygon fill="black" stroke="black" points="938.62,-148.51 928.53,-145.26 934.39,-154.09 938.62,-148.51"/>
</g>
<!-- a_125 -->
<g id="node32" class="node">
<title>a_125</title>
<path fill="white" stroke="black" d="M926.5,-90C926.5,-90 466.5,-90 466.5,-90 460.5,-90 454.5,-84 454.5,-78 454.5,-78 454.5,-66 454.5,-66 454.5,-60 460.5,-54 466.5,-54 466.5,-54 926.5,-54 926.5,-54 932.5,-54 938.5,-60 938.5,-66 938.5,-66 938.5,-78 938.5,-78 938.5,-84 932.5,-90 926.5,-90"/>
<text xml:space="preserve" text-anchor="middle" x="696.5" y="-64.25" font-family="Times New Roman,serif" font-size="20.00">C:Usersas119OneDriveD ... mg_1771553526.2080464.png</text>
</g>
<!-- e_24&#45;&gt;a_125 -->
<g id="edge22" class="edge">
<title>e_24&#45;&gt;a_125</title>
<path fill="none" stroke="black" stroke-dasharray="5,2" d="M1025.38,-755.6C1019.62,-651.99 988.91,-144.45 938.5,-99 937.86,-98.42 937.2,-97.84 936.55,-97.28"/>
<polygon fill="black" stroke="black" points="938.96,-94.72 928.94,-91.27 934.62,-100.21 938.96,-94.72"/>
</g>
<!-- e_2 -->
<g id="node34" class="node">
<title>e_2</title>
<path fill="#85cbd0" stroke="black" d="M719.88,-36C719.88,-36 673.12,-36 673.12,-36 667.12,-36 661.12,-30 661.12,-24 661.12,-24 661.12,-12 661.12,-12 661.12,-6 667.12,0 673.12,0 673.12,0 719.88,0 719.88,0 725.88,0 731.88,-6 731.88,-12 731.88,-12 731.88,-24 731.88,-24 731.88,-30 725.88,-36 719.88,-36"/>
<text xml:space="preserve" text-anchor="middle" x="696.5" y="-10.25" font-family="Times New Roman,serif" font-size="20.00">6 main</text>
</g>
<!-- e_24&#45;&gt;e_2 -->
<g id="edge23" class="edge">
<title>e_24&#45;&gt;e_2</title>
<path fill="none" stroke="black" d="M1025.57,-755.56C1020.66,-647.01 993.06,-94.31 938.5,-45 885.54,2.86 797.01,-0.83 743.26,-8.78"/>
<polygon fill="black" stroke="black" points="742.83,-5.31 733.51,-10.35 743.94,-12.22 742.83,-5.31"/>
</g>
<!-- a_14&#45;&gt;e_24 -->
<g id="edge25" class="edge">
<title>a_14&#45;&gt;e_24</title>
<path fill="none" stroke="black" stroke-dasharray="5,2" d="M772.41,-1224.5C824.38,-1229.35 892.29,-1224.76 938.5,-1188 998.6,-1140.19 1019.57,-890.48 1024.88,-803.63"/>
<polygon fill="black" stroke="black" points="1028.37,-803.96 1025.45,-793.78 1021.38,-803.56 1028.37,-803.96"/>
</g>
<!-- a_24&#45;&gt;e_24 -->
<g id="edge26" class="edge">
<title>a_24&#45;&gt;e_24</title>
<path fill="none" stroke="black" stroke-dasharray="5,2" d="M772.41,-1170.5C824.38,-1175.35 892.29,-1170.76 938.5,-1134 990.29,-1092.8 1016.35,-881.68 1023.96,-803.21"/>
<polygon fill="black" stroke="black" points="1027.4,-804.01 1024.84,-793.72 1020.43,-803.35 1027.4,-804.01"/>
</g>
<!-- a_34&#45;&gt;e_24 -->
<g id="edge27" class="edge">
<title>a_34&#45;&gt;e_24</title>
<path fill="none" stroke="black" stroke-dasharray="5,2" d="M778.71,-1116.48C829.51,-1120.08 893.6,-1114.33 938.5,-1080 982.62,-1046.27 1012.75,-873.63 1022.74,-803.46"/>
<polygon fill="black" stroke="black" points="1026.17,-804.24 1024.07,-793.86 1019.23,-803.29 1026.17,-804.24"/>
</g>
<!-- a_44&#45;&gt;e_24 -->
<g id="edge28" class="edge">
<title>a_44&#45;&gt;e_24</title>
<path fill="none" stroke="black" stroke-dasharray="5,2" d="M780.33,-1062.49C830.82,-1065.79 893.98,-1059.78 938.5,-1026 1008.77,-972.68 1022.94,-857.91 1025.73,-803.47"/>
<polygon fill="black" stroke="black" points="1029.21,-803.85 1026.12,-793.71 1022.22,-803.56 1029.21,-803.85"/>
</g>
<!-- a_54&#45;&gt;e_24 -->
<g id="edge29" class="edge">
<title>a_54&#45;&gt;e_24</title>
<path fill="none" stroke="black" stroke-dasharray="5,2" d="M876.07,-999.89C898.45,-994.23 919.96,-985.34 938.5,-972 993.8,-932.22 1015.29,-848.75 1022.79,-803.78"/>
<polygon fill="black" stroke="black" points="1026.24,-804.35 1024.28,-793.93 1019.32,-803.29 1026.24,-804.35"/>
</g>
<!-- a_64&#45;&gt;e_24 -->
<g id="edge30" class="edge">
<title>a_64&#45;&gt;e_24</title>
<path fill="none" stroke="black" stroke-dasharray="5,2" d="M876.59,-942.86C898.45,-937.58 919.69,-929.6 938.5,-918 980.63,-892.02 1006.51,-837.43 1018.47,-803.24"/>
<polygon fill="black" stroke="black" points="1021.73,-804.53 1021.52,-793.93 1015.08,-802.34 1021.73,-804.53"/>
</g>
<!-- a_74&#45;&gt;e_24 -->
<g id="edge31" class="edge">
<title>a_74&#45;&gt;e_24</title>
<path fill="none" stroke="black" stroke-dasharray="5,2" d="M876.67,-883.73C898.07,-879.22 919.16,-872.83 938.5,-864 968.29,-850.4 994.75,-822.78 1010.66,-801.49"/>
<polygon fill="black" stroke="black" points="1013.42,-803.65 1016.33,-793.46 1007.7,-799.61 1013.42,-803.65"/>
</g>
<!-- a_84&#45;&gt;e_24 -->
<g id="edge32" class="edge">
<title>a_84&#45;&gt;e_24</title>
<path fill="none" stroke="black" stroke-dasharray="5,2" d="M876.45,-822.55C903.85,-818.45 931.61,-813.02 957.5,-806 967.4,-803.31 977.97,-800.01 987.77,-796.47"/>
<polygon fill="black" stroke="black" points="988.95,-799.77 997.04,-792.92 986.44,-793.23 988.95,-799.77"/>
</g>
<!-- a_94&#45;&gt;e_24 -->
<g id="edge33" class="edge">
<title>a_94&#45;&gt;e_24</title>
<path fill="none" stroke="black" stroke-dasharray="5,2" d="M876.47,-780.73C907.94,-780.62 938.7,-780.19 964.08,-779.42"/>
<polygon fill="black" stroke="black" points="963.96,-782.93 973.84,-779.1 963.73,-775.93 963.96,-782.93"/>
</g>
<!-- a_104&#45;&gt;e_24 -->
<g id="edge34" class="edge">
<title>a_104&#45;&gt;e_24</title>
<path fill="none" stroke="black" stroke-dasharray="5,2" d="M825.47,-738.48C862.18,-742.89 902.12,-748.44 938.5,-756 946.87,-757.74 955.58,-759.93 964.12,-762.23"/>
<polygon fill="black" stroke="black" points="963.19,-765.6 973.76,-764.88 965.04,-758.85 963.19,-765.6"/>
</g>
<!-- a_114&#45;&gt;e_24 -->
<g id="edge35" class="edge">
<title>a_114&#45;&gt;e_24</title>
<path fill="none" stroke="black" stroke-dasharray="5,2" d="M876.67,-682.13C898.07,-686.78 919.16,-693.17 938.5,-702 961.65,-712.56 982.78,-731.59 998.52,-747.56"/>
<polygon fill="black" stroke="black" points="995.73,-749.71 1005.19,-754.49 1000.77,-744.86 995.73,-749.71"/>
</g>
<!-- a_126 -->
<g id="node33" class="node">
<title>a_126</title>
<path fill="white" stroke="black" d="M1536.5,-792C1536.5,-792 1128.25,-792 1128.25,-792 1122.25,-792 1116.25,-786 1116.25,-780 1116.25,-780 1116.25,-768 1116.25,-768 1116.25,-762 1122.25,-756 1128.25,-756 1128.25,-756 1536.5,-756 1536.5,-756 1542.5,-756 1548.5,-762 1548.5,-768 1548.5,-768 1548.5,-780 1548.5,-780 1548.5,-786 1542.5,-792 1536.5,-792"/>
<text xml:space="preserve" text-anchor="middle" x="1332.38" y="-766.25" font-family="Times New Roman,serif" font-size="20.00">C:Usersas119OneDriveD ... n_luimagesgifmovie.gif</text>
</g>
<!-- a_126&#45;&gt;e_24 -->
<g id="edge36" class="edge">
<title>a_126&#45;&gt;e_24</title>
<path fill="none" stroke="black" stroke-dasharray="5,2" d="M1116.02,-774C1107.21,-774 1098.75,-774 1090.8,-774"/>
<polygon fill="black" stroke="black" points="1091.05,-770.5 1081.05,-774 1091.05,-777.5 1091.05,-770.5"/>
</g>
</g>
</svg>
