<svg xmlns="http://www.w3.org/2000/svg" xmlns:xlink="http://www.w3.org/1999/xlink" width="3955pt" height="1036pt" viewBox="0.00 0.00 3955.41 1036.16">
<g id="graph0" class="graph" transform="scale(1 1) rotate(0) translate(4 1032.16)">
<title>e_1</title>
<polygon fill="white" stroke="none" points="-4,4 -4,-1032.16 3951.41,-1032.16 3951.41,4 -4,4"/>
<!-- e_35 -->
<g id="node1" class="node">
<title>e_35</title>
<polygon fill="#3a85b9" stroke="black" points="585.86,-390.16 274.38,-390.16 274.38,-354.16 585.86,-354.16 585.86,-390.16"/>
<text text-anchor="middle" x="430.12" y="-366.16" font-family="Times,serif" font-size="20.00" fill="white">143 initialize_environment(sys.argv)</text>
</g>
<!-- e_18 -->
<g id="node2" class="node">
<title>e_18</title>
<path fill="#85cbd0" stroke="black" d="M210.05,-417.16C210.05,-417.16 12,-417.16 12,-417.16 6,-417.16 0,-411.16 0,-405.16 0,-405.16 0,-393.16 0,-393.16 0,-387.16 6,-381.16 12,-381.16 12,-381.16 210.05,-381.16 210.05,-381.16 216.05,-381.16 222.05,-387.16 222.05,-393.16 222.05,-393.16 222.05,-405.16 222.05,-405.16 222.05,-411.16 216.05,-417.16 210.05,-417.16"/>
<text text-anchor="middle" x="111.03" y="-393.16" font-family="Times,serif" font-size="20.00">15 initialize_environment</text>
</g>
<!-- e_35&#45;&gt;e_18 -->
<g id="edge18" class="edge">
<title>e_35-&gt;e_18</title>
<path fill="none" stroke="black" d="M274.29,-385.35C260.53,-386.52 246.74,-387.69 233.32,-388.83"/>
<polygon fill="black" stroke="black" points="233.33,-385.32 223.66,-389.66 233.92,-392.3 233.33,-385.32"/>
</g>
<!-- e_33 -->
<g id="node3" class="node">
<title>e_33</title>
<path fill="#85cbd0" stroke="black" d="M157.58,-363.16C157.58,-363.16 64.48,-363.16 64.48,-363.16 58.48,-363.16 52.48,-357.16 52.48,-351.16 52.48,-351.16 52.48,-339.16 52.48,-339.16 52.48,-333.16 58.48,-327.16 64.48,-327.16 64.48,-327.16 157.58,-327.16 157.58,-327.16 163.58,-327.16 169.58,-333.16 169.58,-339.16 169.58,-339.16 169.58,-351.16 169.58,-351.16 169.58,-357.16 163.58,-363.16 157.58,-363.16"/>
<text text-anchor="middle" x="111.03" y="-339.16" font-family="Times,serif" font-size="20.00">143 sys.argv</text>
</g>
<!-- e_35&#45;&gt;e_33 -->
<g id="edge19" class="edge">
<title>e_35-&gt;e_33</title>
<path fill="none" stroke="black" stroke-dasharray="5,2" d="M274.29,-358.98C241.69,-356.2 208.88,-353.41 181.37,-351.07"/>
<polygon fill="none" stroke="black" points="181.7,-347.58 171.44,-350.22 181.1,-354.56 181.7,-347.58"/>
<text text-anchor="middle" x="248.22" y="-361.25" font-family="Times,serif" font-size="14.00">[1]</text>
</g>
<!-- e_92 -->
<g id="node4" class="node">
<title>e_92</title>
<path fill="#85cbd0" stroke="black" d="M757.38,-689.16C757.38,-689.16 694.84,-689.16 694.84,-689.16 688.84,-689.16 682.84,-683.16 682.84,-677.16 682.84,-677.16 682.84,-665.16 682.84,-665.16 682.84,-659.16 688.84,-653.16 694.84,-653.16 694.84,-653.16 757.38,-653.16 757.38,-653.16 763.38,-653.16 769.38,-659.16 769.38,-665.16 769.38,-665.16 769.38,-677.16 769.38,-677.16 769.38,-683.16 763.38,-689.16 757.38,-689.16"/>
<text text-anchor="middle" x="726.11" y="-665.16" font-family="Times,serif" font-size="20.00">143 time</text>
</g>
<!-- e_92&#45;&gt;e_35 -->
<g id="edge20" class="edge">
<title>e_92-&gt;e_35</title>
<path fill="none" stroke="black" d="M682.51,-666.68C662.98,-663 640.35,-656.32 622.86,-644.16 530.77,-580.14 468.09,-456.81 443.17,-400.93"/>
<polygon fill="black" stroke="black" points="446.38,-399.53 439.16,-391.77 439.96,-402.33 446.38,-399.53"/>
</g>
<!-- e_93 -->
<g id="node5" class="node">
<title>e_93</title>
<path fill="#85cbd0" stroke="black" d="M1377.31,-63.16C1377.31,-63.16 1229.24,-63.16 1229.24,-63.16 1223.24,-63.16 1217.24,-57.16 1217.24,-51.16 1217.24,-51.16 1217.24,-39.16 1217.24,-39.16 1217.24,-33.16 1223.24,-27.16 1229.24,-27.16 1229.24,-27.16 1377.31,-27.16 1377.31,-27.16 1383.31,-27.16 1389.31,-33.16 1389.31,-39.16 1389.31,-39.16 1389.31,-51.16 1389.31,-51.16 1389.31,-57.16 1383.31,-63.16 1377.31,-63.16"/>
<text text-anchor="middle" x="1303.27" y="-39.16" font-family="Times,serif" font-size="20.00">143 program_name</text>
</g>
<!-- e_93&#45;&gt;e_35 -->
<g id="edge21" class="edge">
<title>e_93-&gt;e_35</title>
<path fill="none" stroke="black" d="M1221.44,-26.7C1083.58,0.11 799.03,34.68 603.86,-83.16 505.14,-142.77 455.98,-282.14 438.63,-342.93"/>
<polygon fill="black" stroke="black" points="435.36,-341.64 436.07,-352.21 442.11,-343.5 435.36,-341.64"/>
</g>
<!-- e_94 -->
<g id="node6" class="node">
<title>e_94</title>
<path fill="#85cbd0" stroke="black" d="M800.15,-466.16C800.15,-466.16 652.07,-466.16 652.07,-466.16 646.07,-466.16 640.07,-460.16 640.07,-454.16 640.07,-454.16 640.07,-442.16 640.07,-442.16 640.07,-436.16 646.07,-430.16 652.07,-430.16 652.07,-430.16 800.15,-430.16 800.15,-430.16 806.15,-430.16 812.15,-436.16 812.15,-442.16 812.15,-442.16 812.15,-454.16 812.15,-454.16 812.15,-460.16 806.15,-466.16 800.15,-466.16"/>
<text text-anchor="middle" x="726.11" y="-442.16" font-family="Times,serif" font-size="20.00">143 input_data_file</text>
</g>
<!-- e_94&#45;&gt;e_35 -->
<g id="edge22" class="edge">
<title>e_94-&gt;e_35</title>
<path fill="none" stroke="black" d="M653.57,-429.67C611.26,-418.73 557.52,-404.84 513.45,-393.45"/>
<polygon fill="black" stroke="black" points="514.49,-390.1 503.94,-390.99 512.74,-396.88 514.49,-390.1"/>
</g>
<!-- e_95 -->
<g id="node7" class="node">
<title>e_95</title>
<path fill="#85cbd0" stroke="black" d="M790.16,-390.16C790.16,-390.16 662.06,-390.16 662.06,-390.16 656.06,-390.16 650.06,-384.16 650.06,-378.16 650.06,-378.16 650.06,-366.16 650.06,-366.16 650.06,-360.16 656.06,-354.16 662.06,-354.16 662.06,-354.16 790.16,-354.16 790.16,-354.16 796.16,-354.16 802.16,-360.16 802.16,-366.16 802.16,-366.16 802.16,-378.16 802.16,-378.16 802.16,-384.16 796.16,-390.16 790.16,-390.16"/>
<text text-anchor="middle" x="726.11" y="-366.16" font-family="Times,serif" font-size="20.00">143 input_model</text>
</g>
<!-- e_95&#45;&gt;e_35 -->
<g id="edge23" class="edge">
<title>e_95-&gt;e_35</title>
<path fill="none" stroke="black" d="M649.78,-372.16C633.58,-372.16 615.84,-372.16 597.7,-372.16"/>
<polygon fill="black" stroke="black" points="597.87,-368.66 587.87,-372.16 597.87,-375.66 597.87,-368.66"/>
</g>
<!-- e_96 -->
<g id="node8" class="node">
<title>e_96</title>
<path fill="#85cbd0" stroke="black" d="M1642.42,-74.16C1642.42,-74.16 1532.08,-74.16 1532.08,-74.16 1526.08,-74.16 1520.08,-68.16 1520.08,-62.16 1520.08,-62.16 1520.08,-50.16 1520.08,-50.16 1520.08,-44.16 1526.08,-38.16 1532.08,-38.16 1532.08,-38.16 1642.42,-38.16 1642.42,-38.16 1648.42,-38.16 1654.42,-44.16 1654.42,-50.16 1654.42,-50.16 1654.42,-62.16 1654.42,-62.16 1654.42,-68.16 1648.42,-74.16 1642.42,-74.16"/>
<text text-anchor="middle" x="1587.25" y="-50.16" font-family="Times,serif" font-size="20.00">143 output_dir</text>
</g>
<!-- e_96&#45;&gt;e_35 -->
<g id="edge24" class="edge">
<title>e_96-&gt;e_35</title>
<path fill="none" stroke="black" d="M1519.73,-61.9C1481.57,-65.1 1432.76,-69.06 1389.31,-72.16 1219.1,-84.29 773.28,-38.59 622.86,-119.16 528.78,-169.56 467.31,-288.49 442.95,-343.42"/>
<polygon fill="black" stroke="black" points="439.81,-341.87 439.05,-352.43 446.24,-344.65 439.81,-341.87"/>
</g>
<!-- e_99 -->
<g id="node9" class="node">
<title>e_99</title>
<polygon fill="#3a85b9" stroke="black" points="1199.24,-635.16 881.69,-635.16 881.69,-599.16 1199.24,-599.16 1199.24,-635.16"/>
<text text-anchor="middle" x="1040.47" y="-611.16" font-family="Times,serif" font-size="20.00" fill="white">145 load_parameters(input_data_file)</text>
</g>
<!-- e_99&#45;&gt;e_94 -->
<g id="edge3" class="edge">
<title>e_99-&gt;e_94</title>
<path fill="none" stroke="black" d="M1005.44,-598.75C948.53,-567.96 834.07,-506.03 771.11,-471.97"/>
<polygon fill="black" stroke="black" points="772.88,-468.95 762.42,-467.27 769.55,-475.1 772.88,-468.95"/>
</g>
<!-- a_3 -->
<g id="node10" class="node">
<title>a_3</title>
<path fill="white" stroke="black" d="M817.37,-581.16C817.37,-581.16 634.86,-581.16 634.86,-581.16 628.86,-581.16 622.86,-575.16 622.86,-569.16 622.86,-569.16 622.86,-557.16 622.86,-557.16 622.86,-551.16 628.86,-545.16 634.86,-545.16 634.86,-545.16 817.37,-545.16 817.37,-545.16 823.37,-545.16 829.37,-551.16 829.37,-557.16 829.37,-557.16 829.37,-569.16 829.37,-569.16 829.37,-575.16 823.37,-581.16 817.37,-581.16"/>
<text text-anchor="middle" x="726.11" y="-557.16" font-family="Times,serif" font-size="20.00">input_data_file_002.dat</text>
</g>
<!-- e_99&#45;&gt;a_3 -->
<g id="edge1" class="edge">
<title>e_99-&gt;a_3</title>
<path fill="none" stroke="black" stroke-dasharray="5,2" d="M932.84,-598.73C903.17,-593.6 870.84,-588.01 840.78,-582.81"/>
<polygon fill="black" stroke="black" points="841.76,-579.43 831.31,-581.18 840.57,-586.33 841.76,-579.43"/>
</g>
<!-- e_20 -->
<g id="node11" class="node">
<title>e_20</title>
<path fill="#85cbd0" stroke="black" d="M800.69,-635.16C800.69,-635.16 651.53,-635.16 651.53,-635.16 645.53,-635.16 639.53,-629.16 639.53,-623.16 639.53,-623.16 639.53,-611.16 639.53,-611.16 639.53,-605.16 645.53,-599.16 651.53,-599.16 651.53,-599.16 800.69,-599.16 800.69,-599.16 806.69,-599.16 812.69,-605.16 812.69,-611.16 812.69,-611.16 812.69,-623.16 812.69,-623.16 812.69,-629.16 806.69,-635.16 800.69,-635.16"/>
<text text-anchor="middle" x="726.11" y="-611.16" font-family="Times,serif" font-size="20.00">28 load_parameters</text>
</g>
<!-- e_99&#45;&gt;e_20 -->
<g id="edge2" class="edge">
<title>e_99-&gt;e_20</title>
<path fill="none" stroke="black" d="M881.46,-617.16C862,-617.16 842.58,-617.16 824.41,-617.16"/>
<polygon fill="black" stroke="black" points="824.48,-613.66 814.48,-617.16 824.48,-620.66 824.48,-613.66"/>
</g>
<!-- e_317 -->
<g id="node12" class="node">
<title>e_317</title>
<path fill="#85cbd0" stroke="black" d="M2160.93,-533.16C2160.93,-533.16 2101.73,-533.16 2101.73,-533.16 2095.73,-533.16 2089.73,-527.16 2089.73,-521.16 2089.73,-521.16 2089.73,-509.16 2089.73,-509.16 2089.73,-503.16 2095.73,-497.16 2101.73,-497.16 2101.73,-497.16 2160.93,-497.16 2160.93,-497.16 2166.93,-497.16 2172.93,-503.16 2172.93,-509.16 2172.93,-509.16 2172.93,-521.16 2172.93,-521.16 2172.93,-527.16 2166.93,-533.16 2160.93,-533.16"/>
<text text-anchor="middle" x="2131.33" y="-509.16" font-family="Times,serif" font-size="20.00">145 freq</text>
</g>
<!-- e_317&#45;&gt;e_99 -->
<g id="edge25" class="edge">
<title>e_317-&gt;e_99</title>
<path fill="none" stroke="black" d="M2089.48,-514.44C1960.47,-512.82 1550.48,-512.7 1217.24,-568.16 1180.04,-574.35 1139.43,-585.38 1106.62,-595.41"/>
<polygon fill="black" stroke="black" points="1105.77,-592.01 1097.26,-598.32 1107.84,-598.7 1105.77,-592.01"/>
</g>
<!-- e_318 -->
<g id="node13" class="node">
<title>e_318</title>
<path fill="#85cbd0" stroke="black" d="M2449.89,-618.16C2449.89,-618.16 2390.69,-618.16 2390.69,-618.16 2384.69,-618.16 2378.69,-612.16 2378.69,-606.16 2378.69,-606.16 2378.69,-594.16 2378.69,-594.16 2378.69,-588.16 2384.69,-582.16 2390.69,-582.16 2390.69,-582.16 2449.89,-582.16 2449.89,-582.16 2455.89,-582.16 2461.89,-588.16 2461.89,-594.16 2461.89,-594.16 2461.89,-606.16 2461.89,-606.16 2461.89,-612.16 2455.89,-618.16 2449.89,-618.16"/>
<text text-anchor="middle" x="2420.29" y="-594.16" font-family="Times,serif" font-size="20.00">145 corr</text>
</g>
<!-- e_318&#45;&gt;e_99 -->
<g id="edge26" class="edge">
<title>e_318-&gt;e_99</title>
<path fill="none" stroke="black" d="M2378.43,-600.67C2205.76,-602.8 1530.16,-611.13 1210.66,-615.07"/>
<polygon fill="black" stroke="black" points="1210.92,-611.57 1200.96,-615.19 1211,-618.57 1210.92,-611.57"/>
</g>
<!-- e_319 -->
<g id="node14" class="node">
<title>e_319</title>
<path fill="#85cbd0" stroke="black" d="M1871.97,-580.16C1871.97,-580.16 1797.19,-580.16 1797.19,-580.16 1791.19,-580.16 1785.19,-574.16 1785.19,-568.16 1785.19,-568.16 1785.19,-556.16 1785.19,-556.16 1785.19,-550.16 1791.19,-544.16 1797.19,-544.16 1797.19,-544.16 1871.97,-544.16 1871.97,-544.16 1877.97,-544.16 1883.97,-550.16 1883.97,-556.16 1883.97,-556.16 1883.97,-568.16 1883.97,-568.16 1883.97,-574.16 1877.97,-580.16 1871.97,-580.16"/>
<text text-anchor="middle" x="1834.58" y="-556.16" font-family="Times,serif" font-size="20.00">145 delstd</text>
</g>
<!-- e_319&#45;&gt;e_99 -->
<g id="edge27" class="edge">
<title>e_319-&gt;e_99</title>
<path fill="none" stroke="black" d="M1785.07,-561.82C1680.83,-561.57 1427.8,-563.6 1217.24,-586.16 1193.3,-588.73 1167.7,-592.59 1143.66,-596.73"/>
<polygon fill="black" stroke="black" points="1143.1,-593.27 1133.85,-598.45 1144.31,-600.17 1143.1,-593.27"/>
</g>
<!-- e_320 -->
<g id="node15" class="node">
<title>e_320</title>
<path fill="#85cbd0" stroke="black" d="M2160.39,-473.16C2160.39,-473.16 2102.27,-473.16 2102.27,-473.16 2096.27,-473.16 2090.27,-467.16 2090.27,-461.16 2090.27,-461.16 2090.27,-449.16 2090.27,-449.16 2090.27,-443.16 2096.27,-437.16 2102.27,-437.16 2102.27,-437.16 2160.39,-437.16 2160.39,-437.16 2166.39,-437.16 2172.39,-443.16 2172.39,-449.16 2172.39,-449.16 2172.39,-461.16 2172.39,-461.16 2172.39,-467.16 2166.39,-473.16 2160.39,-473.16"/>
<text text-anchor="middle" x="2131.33" y="-449.16" font-family="Times,serif" font-size="20.00">145 ipol</text>
</g>
<!-- e_320&#45;&gt;e_99 -->
<g id="edge28" class="edge">
<title>e_320-&gt;e_99</title>
<path fill="none" stroke="black" d="M2089.93,-457.03C1935.85,-464.46 1385.35,-493.8 1217.24,-541.16 1171.28,-554.11 1121.55,-576.46 1086.76,-593.58"/>
<polygon fill="black" stroke="black" points="1085.21,-590.44 1077.82,-598.03 1088.33,-596.7 1085.21,-590.44"/>
</g>
<!-- e_321 -->
<g id="node16" class="node">
<title>e_321</title>
<path fill="#85cbd0" stroke="black" d="M1622.97,-1019.16C1622.97,-1019.16 1551.53,-1019.16 1551.53,-1019.16 1545.53,-1019.16 1539.53,-1013.16 1539.53,-1007.16 1539.53,-1007.16 1539.53,-995.16 1539.53,-995.16 1539.53,-989.16 1545.53,-983.16 1551.53,-983.16 1551.53,-983.16 1622.97,-983.16 1622.97,-983.16 1628.97,-983.16 1634.97,-989.16 1634.97,-995.16 1634.97,-995.16 1634.97,-1007.16 1634.97,-1007.16 1634.97,-1013.16 1628.97,-1019.16 1622.97,-1019.16"/>
<text text-anchor="middle" x="1587.25" y="-995.16" font-family="Times,serif" font-size="20.00">145 pstart</text>
</g>
<!-- e_321&#45;&gt;e_99 -->
<g id="edge29" class="edge">
<title>e_321-&gt;e_99</title>
<path fill="none" stroke="black" d="M1539.17,-997.37C1462.95,-988.92 1311.58,-962.27 1217.24,-880.16 1137.96,-811.15 1078.98,-698.33 1054.25,-645.78"/>
<polygon fill="black" stroke="black" points="1057.52,-644.49 1050.14,-636.89 1051.16,-647.43 1057.52,-644.49"/>
</g>
<!-- e_322 -->
<g id="node17" class="node">
<title>e_322</title>
<path fill="#85cbd0" stroke="black" d="M1622.42,-664.16C1622.42,-664.16 1552.08,-664.16 1552.08,-664.16 1546.08,-664.16 1540.08,-658.16 1540.08,-652.16 1540.08,-652.16 1540.08,-640.16 1540.08,-640.16 1540.08,-634.16 1546.08,-628.16 1552.08,-628.16 1552.08,-628.16 1622.42,-628.16 1622.42,-628.16 1628.42,-628.16 1634.42,-634.16 1634.42,-640.16 1634.42,-640.16 1634.42,-652.16 1634.42,-652.16 1634.42,-658.16 1628.42,-664.16 1622.42,-664.16"/>
<text text-anchor="middle" x="1587.25" y="-640.16" font-family="Times,serif" font-size="20.00">145 pstop</text>
</g>
<!-- e_322&#45;&gt;e_99 -->
<g id="edge30" class="edge">
<title>e_322-&gt;e_99</title>
<path fill="none" stroke="black" d="M1539.8,-643.69C1467.65,-639.85 1325.05,-632.26 1210.81,-626.18"/>
<polygon fill="black" stroke="black" points="1211.18,-622.69 1201.01,-625.65 1210.81,-629.68 1211.18,-622.69"/>
</g>
<!-- e_323 -->
<g id="node18" class="node">
<title>e_323</title>
<path fill="#85cbd0" stroke="black" d="M1617.97,-909.16C1617.97,-909.16 1556.53,-909.16 1556.53,-909.16 1550.53,-909.16 1544.53,-903.16 1544.53,-897.16 1544.53,-897.16 1544.53,-885.16 1544.53,-885.16 1544.53,-879.16 1550.53,-873.16 1556.53,-873.16 1556.53,-873.16 1617.97,-873.16 1617.97,-873.16 1623.97,-873.16 1629.97,-879.16 1629.97,-885.16 1629.97,-885.16 1629.97,-897.16 1629.97,-897.16 1629.97,-903.16 1623.97,-909.16 1617.97,-909.16"/>
<text text-anchor="middle" x="1587.25" y="-885.16" font-family="Times,serif" font-size="20.00">145 delp</text>
</g>
<!-- e_323&#45;&gt;e_99 -->
<g id="edge31" class="edge">
<title>e_323-&gt;e_99</title>
<path fill="none" stroke="black" d="M1544.04,-890.03C1506.9,-887.82 1451.95,-881.57 1407.31,-864.16 1267.75,-809.74 1128.02,-694.43 1069.75,-642.93"/>
<polygon fill="black" stroke="black" points="1072.36,-640.57 1062.56,-636.53 1067.7,-645.8 1072.36,-640.57"/>
</g>
<!-- e_324 -->
<g id="node19" class="node">
<title>e_324</title>
<path fill="#85cbd0" stroke="black" d="M1620.75,-718.16C1620.75,-718.16 1553.75,-718.16 1553.75,-718.16 1547.75,-718.16 1541.75,-712.16 1541.75,-706.16 1541.75,-706.16 1541.75,-694.16 1541.75,-694.16 1541.75,-688.16 1547.75,-682.16 1553.75,-682.16 1553.75,-682.16 1620.75,-682.16 1620.75,-682.16 1626.75,-682.16 1632.75,-688.16 1632.75,-694.16 1632.75,-694.16 1632.75,-706.16 1632.75,-706.16 1632.75,-712.16 1626.75,-718.16 1620.75,-718.16"/>
<text text-anchor="middle" x="1587.25" y="-694.16" font-family="Times,serif" font-size="20.00">145 tstart</text>
</g>
<!-- e_324&#45;&gt;e_99 -->
<g id="edge32" class="edge">
<title>e_324-&gt;e_99</title>
<path fill="none" stroke="black" d="M1541.35,-693.62C1471.86,-683.46 1334.07,-663.17 1217.24,-645.16 1201.08,-642.67 1184.09,-640.01 1167.31,-637.36"/>
<polygon fill="black" stroke="black" points="1168.24,-633.97 1157.82,-635.86 1167.15,-640.88 1168.24,-633.97"/>
</g>
<!-- e_325 -->
<g id="node20" class="node">
<title>e_325</title>
<path fill="#85cbd0" stroke="black" d="M1620.2,-801.16C1620.2,-801.16 1554.3,-801.16 1554.3,-801.16 1548.3,-801.16 1542.3,-795.16 1542.3,-789.16 1542.3,-789.16 1542.3,-777.16 1542.3,-777.16 1542.3,-771.16 1548.3,-765.16 1554.3,-765.16 1554.3,-765.16 1620.2,-765.16 1620.2,-765.16 1626.2,-765.16 1632.2,-771.16 1632.2,-777.16 1632.2,-777.16 1632.2,-789.16 1632.2,-789.16 1632.2,-795.16 1626.2,-801.16 1620.2,-801.16"/>
<text text-anchor="middle" x="1587.25" y="-777.16" font-family="Times,serif" font-size="20.00">145 tstop</text>
</g>
<!-- e_325&#45;&gt;e_99 -->
<g id="edge33" class="edge">
<title>e_325-&gt;e_99</title>
<path fill="none" stroke="black" d="M1541.9,-769.99C1472.56,-749.36 1334.28,-708.07 1217.24,-672.16 1182.09,-661.37 1143.05,-649.18 1110.7,-639.02"/>
<polygon fill="black" stroke="black" points="1112.04,-635.77 1101.45,-636.11 1109.94,-642.45 1112.04,-635.77"/>
</g>
<!-- e_326 -->
<g id="node21" class="node">
<title>e_326</title>
<path fill="#85cbd0" stroke="black" d="M1615.75,-963.16C1615.75,-963.16 1558.75,-963.16 1558.75,-963.16 1552.75,-963.16 1546.75,-957.16 1546.75,-951.16 1546.75,-951.16 1546.75,-939.16 1546.75,-939.16 1546.75,-933.16 1552.75,-927.16 1558.75,-927.16 1558.75,-927.16 1615.75,-927.16 1615.75,-927.16 1621.75,-927.16 1627.75,-933.16 1627.75,-939.16 1627.75,-939.16 1627.75,-951.16 1627.75,-951.16 1627.75,-957.16 1621.75,-963.16 1615.75,-963.16"/>
<text text-anchor="middle" x="1587.25" y="-939.16" font-family="Times,serif" font-size="20.00">145 delt</text>
</g>
<!-- e_326&#45;&gt;e_99 -->
<g id="edge34" class="edge">
<title>e_326-&gt;e_99</title>
<path fill="none" stroke="black" d="M1546.32,-942.82C1509.49,-939.81 1453.67,-933.06 1407.31,-918.16 1317.01,-889.16 1291.83,-879.74 1217.24,-821.16 1150.19,-768.5 1089.46,-687.33 1060.08,-645.01"/>
<polygon fill="black" stroke="black" points="1063.03,-643.12 1054.49,-636.86 1057.26,-647.08 1063.03,-643.12"/>
</g>
<!-- e_330 -->
<g id="node22" class="node">
<title>e_330</title>
<polygon fill="#3a85b9" stroke="black" points="2773.01,-251.16 2479.89,-251.16 2479.89,-215.16 2773.01,-215.16 2773.01,-251.16"/>
<text text-anchor="middle" x="2626.45" y="-227.16" font-family="Times,serif" font-size="20.00" fill="white">147 calculate_constants(freq, ipol)</text>
</g>
<!-- e_330&#45;&gt;e_317 -->
<g id="edge36" class="edge">
<title>e_330-&gt;e_317</title>
<path fill="none" stroke="black" stroke-dasharray="5,2" d="M2552.34,-251.66C2526.26,-261.57 2498.7,-276.38 2479.89,-298.16 2460.57,-320.52 2475.73,-336.05 2461.89,-362.16 2429.22,-423.8 2421.69,-448.29 2360.69,-482.16 2306.01,-512.52 2233.09,-518.12 2184.51,-517.87"/>
<polygon fill="none" stroke="black" points="2184.58,-514.38 2174.53,-517.73 2184.48,-521.37 2184.58,-514.38"/>
<text text-anchor="middle" x="2420.29" y="-474.49" font-family="Times,serif" font-size="14.00">[0]</text>
</g>
<!-- e_330&#45;&gt;e_320 -->
<g id="edge37" class="edge">
<title>e_330-&gt;e_320</title>
<path fill="none" stroke="black" stroke-dasharray="5,2" d="M2584.02,-251.61C2554.88,-264.59 2514.98,-282.4 2479.89,-298.16 2374.26,-345.61 2250.74,-401.5 2183.07,-432.16"/>
<polygon fill="none" stroke="black" points="2181.75,-428.91 2174.08,-436.23 2184.64,-435.29 2181.75,-428.91"/>
<text text-anchor="middle" x="2420.29" y="-345.36" font-family="Times,serif" font-size="14.00">[1]</text>
</g>
<!-- e_21 -->
<g id="node23" class="node">
<title>e_21</title>
<path fill="#85cbd0" stroke="black" d="M2217.57,-201.16C2217.57,-201.16 2045.08,-201.16 2045.08,-201.16 2039.08,-201.16 2033.08,-195.16 2033.08,-189.16 2033.08,-189.16 2033.08,-177.16 2033.08,-177.16 2033.08,-171.16 2039.08,-165.16 2045.08,-165.16 2045.08,-165.16 2217.57,-165.16 2217.57,-165.16 2223.57,-165.16 2229.57,-171.16 2229.57,-177.16 2229.57,-177.16 2229.57,-189.16 2229.57,-189.16 2229.57,-195.16 2223.57,-201.16 2217.57,-201.16"/>
<text text-anchor="middle" x="2131.33" y="-177.16" font-family="Times,serif" font-size="20.00">38 calculate_constants</text>
</g>
<!-- e_330&#45;&gt;e_21 -->
<g id="edge35" class="edge">
<title>e_330-&gt;e_21</title>
<path fill="none" stroke="black" d="M2479.66,-216.06C2473.66,-215.41 2467.72,-214.77 2461.89,-214.16 2388.29,-206.43 2305.35,-198.63 2241.09,-192.79"/>
<polygon fill="black" stroke="black" points="2241.5,-189.31 2231.23,-191.9 2240.87,-196.28 2241.5,-189.31"/>
</g>
<!-- e_355 -->
<g id="node24" class="node">
<title>e_355</title>
<path fill="#85cbd0" stroke="black" d="M3019.53,-280.16C3019.53,-280.16 2938.11,-280.16 2938.11,-280.16 2932.11,-280.16 2926.11,-274.16 2926.11,-268.16 2926.11,-268.16 2926.11,-256.16 2926.11,-256.16 2926.11,-250.16 2932.11,-244.16 2938.11,-244.16 2938.11,-244.16 3019.53,-244.16 3019.53,-244.16 3025.53,-244.16 3031.53,-250.16 3031.53,-256.16 3031.53,-256.16 3031.53,-268.16 3031.53,-268.16 3031.53,-274.16 3025.53,-280.16 3019.53,-280.16"/>
<text text-anchor="middle" x="2978.82" y="-256.16" font-family="Times,serif" font-size="20.00">147 waveL</text>
</g>
<!-- e_355&#45;&gt;e_330 -->
<g id="edge38" class="edge">
<title>e_355-&gt;e_330</title>
<path fill="none" stroke="black" d="M2925.81,-254.94C2904.67,-252.2 2879.98,-249.24 2857.56,-247.16 2833.98,-244.98 2809,-243.05 2784.53,-241.39"/>
<polygon fill="black" stroke="black" points="2785.05,-237.91 2774.84,-240.74 2784.58,-244.9 2785.05,-237.91"/>
</g>
<!-- e_356 -->
<g id="node25" class="node">
<title>e_356</title>
<path fill="#85cbd0" stroke="black" d="M2999.54,-226.16C2999.54,-226.16 2958.1,-226.16 2958.1,-226.16 2952.1,-226.16 2946.1,-220.16 2946.1,-214.16 2946.1,-214.16 2946.1,-202.16 2946.1,-202.16 2946.1,-196.16 2952.1,-190.16 2958.1,-190.16 2958.1,-190.16 2999.54,-190.16 2999.54,-190.16 3005.54,-190.16 3011.54,-196.16 3011.54,-202.16 3011.54,-202.16 3011.54,-214.16 3011.54,-214.16 3011.54,-220.16 3005.54,-226.16 2999.54,-226.16"/>
<text text-anchor="middle" x="2978.82" y="-202.16" font-family="Times,serif" font-size="20.00">147 et</text>
</g>
<!-- e_356&#45;&gt;e_330 -->
<g id="edge39" class="edge">
<title>e_356-&gt;e_330</title>
<path fill="none" stroke="black" d="M2945.8,-210.45C2908.82,-213.08 2845.28,-217.62 2784.65,-221.95"/>
<polygon fill="black" stroke="black" points="2784.6,-218.44 2774.87,-222.64 2785.1,-225.42 2784.6,-218.44"/>
</g>
<!-- e_357 -->
<g id="node26" class="node">
<title>e_357</title>
<path fill="#85cbd0" stroke="black" d="M3001.76,-452.16C3001.76,-452.16 2955.88,-452.16 2955.88,-452.16 2949.88,-452.16 2943.88,-446.16 2943.88,-440.16 2943.88,-440.16 2943.88,-428.16 2943.88,-428.16 2943.88,-422.16 2949.88,-416.16 2955.88,-416.16 2955.88,-416.16 3001.76,-416.16 3001.76,-416.16 3007.76,-416.16 3013.76,-422.16 3013.76,-428.16 3013.76,-428.16 3013.76,-440.16 3013.76,-440.16 3013.76,-446.16 3007.76,-452.16 3001.76,-452.16"/>
<text text-anchor="middle" x="2978.82" y="-428.16" font-family="Times,serif" font-size="20.00">147 ep</text>
</g>
<!-- e_357&#45;&gt;e_330 -->
<g id="edge40" class="edge">
<title>e_357-&gt;e_330</title>
<path fill="none" stroke="black" d="M2965.42,-415.91C2937.82,-375.51 2872.53,-281.34 2857.56,-272.16 2835.5,-258.63 2810.12,-249.43 2784.45,-243.23"/>
<polygon fill="black" stroke="black" points="2785.44,-239.86 2774.92,-241.08 2783.91,-246.69 2785.44,-239.86"/>
</g>
<!-- e_360 -->
<g id="node27" class="node">
<title>e_360</title>
<polygon fill="#3a85b9" stroke="black" points="1183.16,-218.16 897.77,-218.16 897.77,-182.16 1183.16,-182.16 1183.16,-218.16"/>
<text text-anchor="middle" x="1040.47" y="-194.16" font-family="Times,serif" font-size="20.00" fill="white">149 load_geometry(input_model)</text>
</g>
<!-- e_360&#45;&gt;e_95 -->
<g id="edge7" class="edge">
<title>e_360-&gt;e_95</title>
<path fill="none" stroke="black" stroke-dasharray="5,2" d="M1006.04,-218.57C949.09,-249.93 833.32,-313.68 770.31,-348.37"/>
<polygon fill="none" stroke="black" points="768.7,-345.27 761.62,-353.16 772.07,-351.4 768.7,-345.27"/>
<text text-anchor="middle" x="855.53" y="-305.77" font-family="Times,serif" font-size="14.00">[6]</text>
</g>
<!-- a_4 -->
<g id="node28" class="node">
<title>a_4</title>
<path fill="white" stroke="black" d="M802.38,-272.16C802.38,-272.16 649.85,-272.16 649.85,-272.16 643.85,-272.16 637.85,-266.16 637.85,-260.16 637.85,-260.16 637.85,-248.16 637.85,-248.16 637.85,-242.16 643.85,-236.16 649.85,-236.16 649.85,-236.16 802.38,-236.16 802.38,-236.16 808.38,-236.16 814.38,-242.16 814.38,-248.16 814.38,-248.16 814.38,-260.16 814.38,-260.16 814.38,-266.16 808.38,-272.16 802.38,-272.16"/>
<text text-anchor="middle" x="726.11" y="-248.16" font-family="Times,serif" font-size="20.00">BOX/coordinates.m</text>
</g>
<!-- e_360&#45;&gt;a_4 -->
<g id="edge4" class="edge">
<title>e_360-&gt;a_4</title>
<path fill="none" stroke="black" stroke-dasharray="5,2" d="M932.84,-218.59C898.16,-224.59 859.84,-231.22 825.76,-237.11"/>
<polygon fill="black" stroke="black" points="825.6,-233.58 816.35,-238.73 826.8,-240.48 825.6,-233.58"/>
</g>
<!-- a_5 -->
<g id="node29" class="node">
<title>a_5</title>
<path fill="white" stroke="black" d="M779.6,-218.16C779.6,-218.16 672.63,-218.16 672.63,-218.16 666.63,-218.16 660.63,-212.16 660.63,-206.16 660.63,-206.16 660.63,-194.16 660.63,-194.16 660.63,-188.16 666.63,-182.16 672.63,-182.16 672.63,-182.16 779.6,-182.16 779.6,-182.16 785.6,-182.16 791.6,-188.16 791.6,-194.16 791.6,-194.16 791.6,-206.16 791.6,-206.16 791.6,-212.16 785.6,-218.16 779.6,-218.16"/>
<text text-anchor="middle" x="726.11" y="-194.16" font-family="Times,serif" font-size="20.00">BOX/facets.m</text>
</g>
<!-- e_360&#45;&gt;a_5 -->
<g id="edge5" class="edge">
<title>e_360-&gt;a_5</title>
<path fill="none" stroke="black" stroke-dasharray="5,2" d="M897.46,-200.16C865.02,-200.16 831.76,-200.16 803.34,-200.16"/>
<polygon fill="black" stroke="black" points="803.4,-196.66 793.4,-200.16 803.4,-203.66 803.4,-196.66"/>
</g>
<!-- e_22 -->
<g id="node30" class="node">
<title>e_22</title>
<path fill="#85cbd0" stroke="black" d="M794.59,-164.16C794.59,-164.16 657.63,-164.16 657.63,-164.16 651.63,-164.16 645.63,-158.16 645.63,-152.16 645.63,-152.16 645.63,-140.16 645.63,-140.16 645.63,-134.16 651.63,-128.16 657.63,-128.16 657.63,-128.16 794.59,-128.16 794.59,-128.16 800.59,-128.16 806.59,-134.16 806.59,-140.16 806.59,-140.16 806.59,-152.16 806.59,-152.16 806.59,-158.16 800.59,-164.16 794.59,-164.16"/>
<text text-anchor="middle" x="726.11" y="-140.16" font-family="Times,serif" font-size="20.00">49 load_geometry</text>
</g>
<!-- e_360&#45;&gt;e_22 -->
<g id="edge6" class="edge">
<title>e_360-&gt;e_22</title>
<path fill="none" stroke="black" d="M932.84,-181.73C895.37,-175.25 853.64,-168.04 817.62,-161.81"/>
<polygon fill="black" stroke="black" points="818.57,-158.42 808.12,-160.17 817.38,-165.32 818.57,-158.42"/>
</g>
<!-- e_668 -->
<g id="node31" class="node">
<title>e_668</title>
<path fill="#85cbd0" stroke="black" d="M1604.08,-236.16C1604.08,-236.16 1570.42,-236.16 1570.42,-236.16 1564.42,-236.16 1558.42,-230.16 1558.42,-224.16 1558.42,-224.16 1558.42,-212.16 1558.42,-212.16 1558.42,-206.16 1564.42,-200.16 1570.42,-200.16 1570.42,-200.16 1604.08,-200.16 1604.08,-200.16 1610.08,-200.16 1616.08,-206.16 1616.08,-212.16 1616.08,-212.16 1616.08,-224.16 1616.08,-224.16 1616.08,-230.16 1610.08,-236.16 1604.08,-236.16"/>
<text text-anchor="middle" x="1587.25" y="-212.16" font-family="Times,serif" font-size="20.00">149 r</text>
</g>
<!-- e_668&#45;&gt;e_360 -->
<g id="edge41" class="edge">
<title>e_668-&gt;e_360</title>
<path fill="none" stroke="black" d="M1558.11,-217.23C1491.8,-215.04 1321.8,-209.42 1194.8,-205.23"/>
<polygon fill="black" stroke="black" points="1195.04,-201.73 1184.93,-204.9 1194.81,-208.73 1195.04,-201.73"/>
</g>
<!-- e_669 -->
<g id="node32" class="node">
<title>e_669</title>
<path fill="#85cbd0" stroke="black" d="M1618.53,-182.16C1618.53,-182.16 1555.97,-182.16 1555.97,-182.16 1549.97,-182.16 1543.97,-176.16 1543.97,-170.16 1543.97,-170.16 1543.97,-158.16 1543.97,-158.16 1543.97,-152.16 1549.97,-146.16 1555.97,-146.16 1555.97,-146.16 1618.53,-146.16 1618.53,-146.16 1624.53,-146.16 1630.53,-152.16 1630.53,-158.16 1630.53,-158.16 1630.53,-170.16 1630.53,-170.16 1630.53,-176.16 1624.53,-182.16 1618.53,-182.16"/>
<text text-anchor="middle" x="1587.25" y="-158.16" font-family="Times,serif" font-size="20.00">149 vind</text>
</g>
<!-- e_669&#45;&gt;e_360 -->
<g id="edge42" class="edge">
<title>e_669-&gt;e_360</title>
<path fill="none" stroke="black" d="M1543.5,-166.99C1469.33,-171.89 1313.37,-182.19 1194.83,-190.03"/>
<polygon fill="black" stroke="black" points="1194.74,-186.53 1184.99,-190.68 1195.2,-193.51 1194.74,-186.53"/>
</g>
<!-- e_670 -->
<g id="node33" class="node">
<title>e_670</title>
<path fill="#85cbd0" stroke="black" d="M1619.08,-128.16C1619.08,-128.16 1555.42,-128.16 1555.42,-128.16 1549.42,-128.16 1543.42,-122.16 1543.42,-116.16 1543.42,-116.16 1543.42,-104.16 1543.42,-104.16 1543.42,-98.16 1549.42,-92.16 1555.42,-92.16 1555.42,-92.16 1619.08,-92.16 1619.08,-92.16 1625.08,-92.16 1631.08,-98.16 1631.08,-104.16 1631.08,-104.16 1631.08,-116.16 1631.08,-116.16 1631.08,-122.16 1625.08,-128.16 1619.08,-128.16"/>
<text text-anchor="middle" x="1587.25" y="-104.16" font-family="Times,serif" font-size="20.00">149 ntria</text>
</g>
<!-- e_670&#45;&gt;e_360 -->
<g id="edge43" class="edge">
<title>e_670-&gt;e_360</title>
<path fill="none" stroke="black" d="M1543.18,-116.4C1506.91,-121.72 1453.68,-129.67 1407.31,-137.16 1323.19,-150.75 1228.38,-167.11 1156.35,-179.75"/>
<polygon fill="black" stroke="black" points="1156.18,-176.22 1146.94,-181.4 1157.39,-183.12 1156.18,-176.22"/>
</g>
<!-- e_677 -->
<g id="node34" class="node">
<title>e_677</title>
<polygon fill="#3a85b9" stroke="black" points="2360.69,-293.16 1901.97,-293.16 1901.97,-257.16 2360.69,-257.16 2360.69,-293.16"/>
<text text-anchor="middle" x="2131.33" y="-269.16" font-family="Times,serif" font-size="20.00" fill="white">151 plot_model(r, vind, ntria, input_model, output_dir)</text>
</g>
<!-- e_677&#45;&gt;e_95 -->
<g id="edge13" class="edge">
<title>e_677-&gt;e_95</title>
<path fill="none" stroke="black" d="M2063.38,-293.62C1991,-312.61 1871.93,-341.07 1767.19,-353.16 1415.65,-393.74 992.91,-383.33 813.92,-376.21"/>
<polygon fill="black" stroke="black" points="814.14,-372.72 804,-375.81 813.85,-379.71 814.14,-372.72"/>
</g>
<!-- e_677&#45;&gt;e_96 -->
<g id="edge14" class="edge">
<title>e_677-&gt;e_96</title>
<path fill="none" stroke="black" d="M1919.1,-256.95C1913.02,-252.9 1907.28,-248.32 1901.97,-243.16 1867.98,-210.2 1913.02,-175.54 1883.97,-138.16 1854.47,-100.22 1827.74,-116.52 1785.19,-94.16 1776.89,-89.8 1776,-86.37 1767.19,-83.16 1735.11,-71.48 1698.01,-64.85 1665.94,-61.09"/>
<polygon fill="black" stroke="black" points="1666.65,-57.65 1656.33,-60.04 1665.89,-64.6 1666.65,-57.65"/>
</g>
<!-- e_677&#45;&gt;e_668 -->
<g id="edge10" class="edge">
<title>e_677-&gt;e_668</title>
<path fill="none" stroke="black" d="M1954.71,-256.69C1838.6,-244.49 1695.72,-229.46 1627.76,-222.32"/>
<polygon fill="black" stroke="black" points="1628.17,-218.84 1617.86,-221.28 1627.44,-225.8 1628.17,-218.84"/>
</g>
<!-- e_677&#45;&gt;e_669 -->
<g id="edge11" class="edge">
<title>e_677-&gt;e_669</title>
<path fill="none" stroke="black" d="M1965.39,-256.7C1943.9,-252.94 1922.3,-248.46 1901.97,-243.16 1893.66,-241 1891.97,-239.26 1883.97,-236.16 1832.1,-216.08 1820.96,-205.4 1767.19,-191.16 1725.81,-180.21 1677.79,-173.26 1641.92,-169.17"/>
<polygon fill="black" stroke="black" points="1642.55,-165.72 1632.22,-168.1 1641.78,-172.67 1642.55,-165.72"/>
</g>
<!-- e_677&#45;&gt;e_670 -->
<g id="edge12" class="edge">
<title>e_677-&gt;e_670</title>
<path fill="none" stroke="black" d="M1922.04,-256.74C1914.98,-252.78 1908.26,-248.27 1901.97,-243.16 1883.63,-228.27 1899.8,-210.69 1883.97,-193.16 1845.39,-150.45 1822.21,-154.09 1767.19,-137.16 1726.41,-124.62 1678.54,-117.78 1642.58,-114.13"/>
<polygon fill="black" stroke="black" points="1643.14,-110.67 1632.85,-113.2 1642.47,-117.64 1643.14,-110.67"/>
</g>
<!-- a_15 -->
<g id="node35" class="node">
<title>a_15</title>
<path fill="white" stroke="black" d="M1755.19,-344.16C1755.19,-344.16 1419.31,-344.16 1419.31,-344.16 1413.31,-344.16 1407.31,-338.16 1407.31,-332.16 1407.31,-332.16 1407.31,-320.16 1407.31,-320.16 1407.31,-314.16 1413.31,-308.16 1419.31,-308.16 1419.31,-308.16 1755.19,-308.16 1755.19,-308.16 1761.19,-308.16 1767.19,-314.16 1767.19,-320.16 1767.19,-320.16 1767.19,-332.16 1767.19,-332.16 1767.19,-338.16 1761.19,-344.16 1755.19,-344.16"/>
<text text-anchor="middle" x="1587.25" y="-320.16" font-family="Times,serif" font-size="20.00">outputmonolithic20260219122814plot.png</text>
</g>
<!-- e_677&#45;&gt;a_15 -->
<g id="edge8" class="edge">
<title>e_677-&gt;a_15</title>
<path fill="none" stroke="black" stroke-dasharray="5,2" d="M1901.62,-290C1844.51,-295.18 1784.83,-301 1733.06,-306.49"/>
<polygon fill="black" stroke="black" points="1732.87,-302.99 1723.3,-307.53 1733.61,-309.95 1732.87,-302.99"/>
</g>
<!-- e_23 -->
<g id="node36" class="node">
<title>e_23</title>
<path fill="#85cbd0" stroke="black" d="M1641.3,-290.16C1641.3,-290.16 1533.2,-290.16 1533.2,-290.16 1527.2,-290.16 1521.2,-284.16 1521.2,-278.16 1521.2,-278.16 1521.2,-266.16 1521.2,-266.16 1521.2,-260.16 1527.2,-254.16 1533.2,-254.16 1533.2,-254.16 1641.3,-254.16 1641.3,-254.16 1647.3,-254.16 1653.3,-260.16 1653.3,-266.16 1653.3,-266.16 1653.3,-278.16 1653.3,-278.16 1653.3,-284.16 1647.3,-290.16 1641.3,-290.16"/>
<text text-anchor="middle" x="1587.25" y="-266.16" font-family="Times,serif" font-size="20.00">75 plot_model</text>
</g>
<!-- e_677&#45;&gt;e_23 -->
<g id="edge9" class="edge">
<title>e_677-&gt;e_23</title>
<path fill="none" stroke="black" d="M1901.62,-273.9C1816.96,-273.43 1726.65,-272.93 1664.84,-272.59"/>
<polygon fill="black" stroke="black" points="1665.17,-269.09 1655.15,-272.53 1665.13,-276.09 1665.17,-269.09"/>
</g>
<!-- a_15&#45;&gt;e_677 -->
<g id="edge15" class="edge">
<title>a_15-&gt;e_677</title>
<path fill="none" stroke="black" stroke-dasharray="5,2" d="M1767.45,-315.7C1838.27,-309.6 1918.58,-301.93 1985.61,-294.83"/>
<polygon fill="black" stroke="black" points="1985.6,-298.35 1995.17,-293.81 1984.86,-291.39 1985.6,-298.35"/>
</g>
<!-- e_3087 -->
<g id="node37" class="node">
<title>e_3087</title>
<path fill="#85cbd0" stroke="black" d="M2657.17,-343.16C2657.17,-343.16 2595.73,-343.16 2595.73,-343.16 2589.73,-343.16 2583.73,-337.16 2583.73,-331.16 2583.73,-331.16 2583.73,-319.16 2583.73,-319.16 2583.73,-313.16 2589.73,-307.16 2595.73,-307.16 2595.73,-307.16 2657.17,-307.16 2657.17,-307.16 2663.17,-307.16 2669.17,-313.16 2669.17,-319.16 2669.17,-319.16 2669.17,-331.16 2669.17,-331.16 2669.17,-337.16 2663.17,-343.16 2657.17,-343.16"/>
<text text-anchor="middle" x="2626.45" y="-319.16" font-family="Times,serif" font-size="20.00">151 now</text>
</g>
<!-- e_3087&#45;&gt;e_677 -->
<g id="edge44" class="edge">
<title>e_3087-&gt;e_677</title>
<path fill="none" stroke="black" d="M2583.41,-320.9C2526.33,-315.11 2420.56,-304.39 2325.79,-294.78"/>
<polygon fill="none" stroke="black" points="2326.39,-291.32 2316.09,-293.79 2325.68,-298.29 2326.39,-291.32"/>
</g>
<!-- e_3095 -->
<g id="node38" class="node">
<title>e_3095</title>
<polygon fill="#3a85b9" stroke="black" points="2350.39,-876.16 1912.27,-876.16 1912.27,-840.16 2350.39,-840.16 2350.39,-876.16"/>
<text text-anchor="middle" x="2131.33" y="-852.16" font-family="Times,serif" font-size="20.00" fill="white">153 calculate_grid(pstart, ps ... elp, tstart, tstop, delt)</text>
</g>
<!-- e_3095&#45;&gt;e_321 -->
<g id="edge46" class="edge">
<title>e_3095-&gt;e_321</title>
<path fill="none" stroke="black" stroke-dasharray="5,2" d="M2079.87,-876.63C2010.34,-901.47 1880.75,-945.59 1767.19,-972.16 1727.24,-981.51 1681.56,-988.86 1646.36,-993.82"/>
<polygon fill="none" stroke="black" points="1646.24,-990.3 1636.82,-995.14 1647.2,-997.24 1646.24,-990.3"/>
<text text-anchor="middle" x="1834.58" y="-971.57" font-family="Times,serif" font-size="14.00">[3]</text>
</g>
<!-- e_3095&#45;&gt;e_322 -->
<g id="edge47" class="edge">
<title>e_3095-&gt;e_322</title>
<path fill="none" stroke="black" stroke-dasharray="5,2" d="M2102.05,-839.71C2042.68,-801.9 1899.58,-715.64 1767.19,-673.16 1727.78,-660.52 1681.54,-653.74 1645.94,-650.13"/>
<polygon fill="none" stroke="black" points="1646.57,-646.68 1636.29,-649.21 1645.91,-653.65 1646.57,-646.68"/>
<text text-anchor="middle" x="1834.58" y="-722.5" font-family="Times,serif" font-size="14.00">[3]</text>
</g>
<!-- e_3095&#45;&gt;e_323 -->
<g id="edge48" class="edge">
<title>e_3095-&gt;e_323</title>
<path fill="none" stroke="black" stroke-dasharray="5,2" d="M1911.8,-871.47C1812.98,-877.48 1704.49,-884.09 1641.59,-887.91"/>
<polygon fill="none" stroke="black" points="1641.67,-884.4 1631.91,-888.5 1642.1,-891.39 1641.67,-884.4"/>
<text text-anchor="middle" x="1834.58" y="-882.79" font-family="Times,serif" font-size="14.00">[0]</text>
</g>
<!-- e_3095&#45;&gt;e_324 -->
<g id="edge49" class="edge">
<title>e_3095-&gt;e_324</title>
<path fill="none" stroke="black" stroke-dasharray="5,2" d="M2067.08,-839.73C1960.21,-808.58 1745.63,-746.03 1644.03,-716.42"/>
<polygon fill="none" stroke="black" points="1645.12,-713.09 1634.54,-713.65 1643.16,-719.81 1645.12,-713.09"/>
<text text-anchor="middle" x="1834.58" y="-788.1" font-family="Times,serif" font-size="14.00">[2]</text>
</g>
<!-- e_3095&#45;&gt;e_325 -->
<g id="edge50" class="edge">
<title>e_3095-&gt;e_325</title>
<path fill="none" stroke="black" stroke-dasharray="5,2" d="M1996.68,-839.67C1883.31,-823.99 1726.35,-802.27 1643.92,-790.86"/>
<polygon fill="none" stroke="black" points="1644.44,-787.4 1634.06,-789.5 1643.48,-794.34 1644.44,-787.4"/>
<text text-anchor="middle" x="1834.58" y="-827.11" font-family="Times,serif" font-size="14.00">[2]</text>
</g>
<!-- e_3095&#45;&gt;e_326 -->
<g id="edge51" class="edge">
<title>e_3095-&gt;e_326</title>
<path fill="none" stroke="black" stroke-dasharray="5,2" d="M2021.56,-876.61C1949.45,-888.73 1852.73,-904.75 1767.19,-918.16 1724.06,-924.92 1675.03,-932.3 1639.21,-937.63"/>
<polygon fill="none" stroke="black" points="1638.94,-934.13 1629.57,-939.07 1639.97,-941.06 1638.94,-934.13"/>
<text text-anchor="middle" x="1834.58" y="-919.28" font-family="Times,serif" font-size="14.00">[1]</text>
</g>
<!-- e_24 -->
<g id="node39" class="node">
<title>e_24</title>
<path fill="#85cbd0" stroke="black" d="M1652.39,-855.16C1652.39,-855.16 1522.11,-855.16 1522.11,-855.16 1516.11,-855.16 1510.11,-849.16 1510.11,-843.16 1510.11,-843.16 1510.11,-831.16 1510.11,-831.16 1510.11,-825.16 1516.11,-819.16 1522.11,-819.16 1522.11,-819.16 1652.39,-819.16 1652.39,-819.16 1658.39,-819.16 1664.39,-825.16 1664.39,-831.16 1664.39,-831.16 1664.39,-843.16 1664.39,-843.16 1664.39,-849.16 1658.39,-855.16 1652.39,-855.16"/>
<text text-anchor="middle" x="1587.25" y="-831.16" font-family="Times,serif" font-size="20.00">90 calculate_grid</text>
</g>
<!-- e_3095&#45;&gt;e_24 -->
<g id="edge45" class="edge">
<title>e_3095-&gt;e_24</title>
<path fill="none" stroke="black" d="M1911.8,-849.7C1829.14,-846.49 1739.71,-843.03 1675.87,-840.56"/>
<polygon fill="black" stroke="black" points="1676.29,-837.07 1666.16,-840.18 1676.02,-844.06 1676.29,-837.07"/>
</g>
<!-- e_3147 -->
<g id="node40" class="node">
<title>e_3147</title>
<path fill="#85cbd0" stroke="black" d="M2657.17,-876.16C2657.17,-876.16 2595.73,-876.16 2595.73,-876.16 2589.73,-876.16 2583.73,-870.16 2583.73,-864.16 2583.73,-864.16 2583.73,-852.16 2583.73,-852.16 2583.73,-846.16 2589.73,-840.16 2595.73,-840.16 2595.73,-840.16 2657.17,-840.16 2657.17,-840.16 2663.17,-840.16 2669.17,-846.16 2669.17,-852.16 2669.17,-852.16 2669.17,-864.16 2669.17,-864.16 2669.17,-870.16 2663.17,-876.16 2657.17,-876.16"/>
<text text-anchor="middle" x="2626.45" y="-852.16" font-family="Times,serif" font-size="20.00">153 delp</text>
</g>
<!-- e_3147&#45;&gt;e_3095 -->
<g id="edge52" class="edge">
<title>e_3147-&gt;e_3095</title>
<path fill="none" stroke="black" d="M2583.41,-858.16C2533.53,-858.16 2446.47,-858.16 2362.06,-858.16"/>
<polygon fill="black" stroke="black" points="2362.22,-854.66 2352.22,-858.16 2362.22,-861.66 2362.22,-854.66"/>
</g>
<!-- e_3148 -->
<g id="node41" class="node">
<title>e_3148</title>
<path fill="#85cbd0" stroke="black" d="M2654.94,-822.16C2654.94,-822.16 2597.95,-822.16 2597.95,-822.16 2591.95,-822.16 2585.95,-816.16 2585.95,-810.16 2585.95,-810.16 2585.95,-798.16 2585.95,-798.16 2585.95,-792.16 2591.95,-786.16 2597.95,-786.16 2597.95,-786.16 2654.94,-786.16 2654.94,-786.16 2660.94,-786.16 2666.94,-792.16 2666.94,-798.16 2666.94,-798.16 2666.94,-810.16 2666.94,-810.16 2666.94,-816.16 2660.94,-822.16 2654.94,-822.16"/>
<text text-anchor="middle" x="2626.45" y="-798.16" font-family="Times,serif" font-size="20.00">153 delt</text>
</g>
<!-- e_3148&#45;&gt;e_3095 -->
<g id="edge53" class="edge">
<title>e_3148-&gt;e_3095</title>
<path fill="none" stroke="black" d="M2585.51,-808.53C2526.34,-815.01 2411.7,-827.57 2312.53,-838.43"/>
<polygon fill="black" stroke="black" points="2312.2,-834.94 2302.64,-839.51 2312.96,-841.9 2312.2,-834.94"/>
</g>
<!-- e_3149 -->
<g id="node42" class="node">
<title>e_3149</title>
<path fill="#85cbd0" stroke="black" d="M2843.34,-954.16C2843.34,-954.16 2805.23,-954.16 2805.23,-954.16 2799.23,-954.16 2793.23,-948.16 2793.23,-942.16 2793.23,-942.16 2793.23,-930.16 2793.23,-930.16 2793.23,-924.16 2799.23,-918.16 2805.23,-918.16 2805.23,-918.16 2843.34,-918.16 2843.34,-918.16 2849.34,-918.16 2855.34,-924.16 2855.34,-930.16 2855.34,-930.16 2855.34,-942.16 2855.34,-942.16 2855.34,-948.16 2849.34,-954.16 2843.34,-954.16"/>
<text text-anchor="middle" x="2824.29" y="-930.16" font-family="Times,serif" font-size="20.00">153 it</text>
</g>
<!-- e_3149&#45;&gt;e_3095 -->
<g id="edge54" class="edge">
<title>e_3149-&gt;e_3095</title>
<path fill="none" stroke="black" d="M2793.15,-932.76C2710.19,-923.39 2473.55,-896.68 2307.27,-877.91"/>
<polygon fill="black" stroke="black" points="2307.76,-874.44 2297.43,-876.8 2306.97,-881.4 2307.76,-874.44"/>
</g>
<!-- e_3150 -->
<g id="node43" class="node">
<title>e_3150</title>
<path fill="#85cbd0" stroke="black" d="M2845.56,-998.16C2845.56,-998.16 2803.01,-998.16 2803.01,-998.16 2797.01,-998.16 2791.01,-992.16 2791.01,-986.16 2791.01,-986.16 2791.01,-974.16 2791.01,-974.16 2791.01,-968.16 2797.01,-962.16 2803.01,-962.16 2803.01,-962.16 2845.56,-962.16 2845.56,-962.16 2851.56,-962.16 2857.56,-968.16 2857.56,-974.16 2857.56,-974.16 2857.56,-986.16 2857.56,-986.16 2857.56,-992.16 2851.56,-998.16 2845.56,-998.16"/>
<text text-anchor="middle" x="2824.29" y="-974.16" font-family="Times,serif" font-size="20.00">153 ip</text>
</g>
<!-- e_3150&#45;&gt;e_3095 -->
<g id="edge55" class="edge">
<title>e_3150-&gt;e_3095</title>
<path fill="none" stroke="black" d="M2790.68,-983.31C2716.43,-989.58 2529.53,-1000.26 2378.69,-966.16 2302.73,-948.99 2221.19,-908.36 2173.57,-882.12"/>
<polygon fill="black" stroke="black" points="2175.42,-879.14 2164.98,-877.33 2172.01,-885.26 2175.42,-879.14"/>
</g>
<!-- e_3178 -->
<g id="node44" class="node">
<title>e_3178</title>
<polygon fill="#3a85b9" stroke="black" points="3573.86,-738.16 3119.07,-738.16 3119.07,-702.16 3573.86,-702.16 3573.86,-738.16"/>
<text text-anchor="middle" x="3346.47" y="-714.16" font-family="Times,serif" font-size="20.00" fill="white">161 execute_simulation(output ... lp, tstart, delt, et, ep)</text>
</g>
<!-- e_3178&#45;&gt;e_96 -->
<g id="edge71" class="edge">
<title>e_3178-&gt;e_96</title>
<path fill="none" stroke="black" d="M3344,-701.76C3334.61,-597.15 3273.45,-82.16 2979.82,-82.16 2979.82,-82.16 2979.82,-82.16 2130.33,-82.16 1964.82,-82.16 1771.21,-69.92 1666,-62.24"/>
<polygon fill="black" stroke="black" points="1666.28,-58.75 1656.05,-61.5 1665.77,-65.73 1666.28,-58.75"/>
</g>
<!-- e_3178&#45;&gt;e_321 -->
<g id="edge75" class="edge">
<title>e_3178-&gt;e_321</title>
<path fill="none" stroke="black" d="M3335.65,-738.51C3298.69,-804.81 3160.76,-1028.16 2979.82,-1028.16 2979.82,-1028.16 2979.82,-1028.16 2130.33,-1028.16 1954.04,-1028.16 1745.89,-1013.74 1646.61,-1005.98"/>
<polygon fill="black" stroke="black" points="1647.09,-1002.5 1636.85,-1005.21 1646.54,-1009.48 1647.09,-1002.5"/>
</g>
<!-- e_3178&#45;&gt;e_324 -->
<g id="edge77" class="edge">
<title>e_3178-&gt;e_324</title>
<path fill="none" stroke="black" d="M3118.58,-716.98C2831.23,-713.03 2320.88,-706.33 1883.97,-702.16 1800.58,-701.37 1703.97,-700.77 1644.48,-700.45"/>
<polygon fill="black" stroke="black" points="1644.62,-696.95 1634.6,-700.4 1644.58,-703.95 1644.62,-696.95"/>
</g>
<!-- e_3178&#45;&gt;e_356 -->
<g id="edge79" class="edge">
<title>e_3178-&gt;e_356</title>
<path fill="none" stroke="black" d="M3341.14,-701.81C3323.22,-629.96 3247.86,-365.36 3082.07,-235.16 3065.29,-221.98 3042.68,-215.21 3022.99,-211.73"/>
<polygon fill="black" stroke="black" points="3023.7,-208.3 3013.29,-210.27 3022.66,-215.22 3023.7,-208.3"/>
</g>
<!-- e_3178&#45;&gt;e_357 -->
<g id="edge80" class="edge">
<title>e_3178-&gt;e_357</title>
<path fill="none" stroke="black" d="M3322.04,-701.84C3258.7,-652.3 3084,-515.65 3011.75,-459.13"/>
<polygon fill="black" stroke="black" points="3014.28,-456.67 3004.24,-453.27 3009.96,-462.18 3014.28,-456.67"/>
</g>
<!-- e_3178&#45;&gt;e_3147 -->
<g id="edge76" class="edge">
<title>e_3178-&gt;e_3147</title>
<path fill="none" stroke="black" d="M3316.49,-738.54C3269.45,-767.26 3172.6,-821.79 3082.07,-844.16 2940.62,-879.12 2766.89,-870.95 2680.9,-863.67"/>
<polygon fill="black" stroke="black" points="2681.39,-860.2 2671.12,-862.81 2680.78,-867.17 2681.39,-860.2"/>
</g>
<!-- e_3178&#45;&gt;e_3148 -->
<g id="edge78" class="edge">
<title>e_3178-&gt;e_3148</title>
<path fill="none" stroke="black" d="M3306.38,-738.58C3216.11,-778.87 2985.96,-868.8 2791.01,-837.16 2782.68,-835.81 2781.17,-833.27 2773.01,-831.16 2741.95,-823.15 2706.58,-816.53 2678.48,-811.85"/>
<polygon fill="black" stroke="black" points="2679.24,-808.43 2668.81,-810.27 2678.11,-815.34 2679.24,-808.43"/>
</g>
<!-- e_3178&#45;&gt;e_3149 -->
<g id="edge74" class="edge">
<title>e_3178-&gt;e_3149</title>
<path fill="none" stroke="black" d="M3330,-738.37C3294.44,-778.76 3202.1,-875.43 3101.07,-915.16 3022.81,-945.94 2922.54,-944.44 2867.02,-940.41"/>
<polygon fill="black" stroke="black" points="2867.3,-936.92 2857.05,-939.62 2866.74,-943.9 2867.3,-936.92"/>
</g>
<!-- e_3178&#45;&gt;e_3150 -->
<g id="edge73" class="edge">
<title>e_3178-&gt;e_3150</title>
<path fill="none" stroke="black" d="M3330.9,-738.46C3294.42,-782.83 3194.01,-896.12 3082.07,-946.16 3012.23,-977.39 2921.8,-982.12 2869,-981.79"/>
<polygon fill="black" stroke="black" points="2869.25,-978.29 2859.2,-981.66 2869.16,-985.29 2869.25,-978.29"/>
</g>
<!-- e_25 -->
<g id="node47" class="node">
<title>e_25</title>
<path fill="#85cbd0" stroke="black" d="M3070.07,-172.16C3070.07,-172.16 2887.56,-172.16 2887.56,-172.16 2881.56,-172.16 2875.56,-166.16 2875.56,-160.16 2875.56,-160.16 2875.56,-148.16 2875.56,-148.16 2875.56,-142.16 2881.56,-136.16 2887.56,-136.16 2887.56,-136.16 3070.07,-136.16 3070.07,-136.16 3076.07,-136.16 3082.07,-142.16 3082.07,-148.16 3082.07,-148.16 3082.07,-160.16 3082.07,-160.16 3082.07,-166.16 3076.07,-172.16 3070.07,-172.16"/>
<text text-anchor="middle" x="2978.82" y="-148.16" font-family="Times,serif" font-size="20.00">105 execute_simulation</text>
</g>
<!-- e_3178&#45;&gt;e_25 -->
<g id="edge70" class="edge">
<title>e_3178-&gt;e_25</title>
<path fill="none" stroke="black" d="M3342.17,-701.67C3327.47,-624.79 3260.61,-327.68 3082.07,-181.16 3080.95,-180.24 3079.81,-179.36 3078.64,-178.5"/>
<polygon fill="black" stroke="black" points="3080.81,-175.73 3070.49,-173.32 3077.05,-181.64 3080.81,-175.73"/>
</g>
<!-- e_3166 -->
<g id="node48" class="node">
<title>e_3166</title>
<path fill="#85cbd0" stroke="black" d="M3017.3,-624.16C3017.3,-624.16 2940.33,-624.16 2940.33,-624.16 2934.33,-624.16 2928.33,-618.16 2928.33,-612.16 2928.33,-612.16 2928.33,-600.16 2928.33,-600.16 2928.33,-594.16 2934.33,-588.16 2940.33,-588.16 2940.33,-588.16 3017.3,-588.16 3017.3,-588.16 3023.3,-588.16 3029.3,-594.16 3029.3,-600.16 3029.3,-600.16 3029.3,-612.16 3029.3,-612.16 3029.3,-618.16 3023.3,-624.16 3017.3,-624.16"/>
<text text-anchor="middle" x="2978.82" y="-600.16" font-family="Times,serif" font-size="20.00">155 r_data</text>
</g>
<!-- e_3178&#45;&gt;e_3166 -->
<g id="edge72" class="edge">
<title>e_3178-&gt;e_3166</title>
<path fill="none" stroke="black" d="M3286.31,-701.72C3218.68,-680.63 3108.55,-646.3 3040.35,-625.03"/>
<polygon fill="black" stroke="black" points="3041.81,-621.82 3031.22,-622.19 3039.73,-628.51 3041.81,-621.82"/>
</g>
<!-- a_16 -->
<g id="node45" class="node">
<title>a_16</title>
<path fill="white" stroke="black" d="M3935.41,-765.16C3935.41,-765.16 3622.86,-765.16 3622.86,-765.16 3616.86,-765.16 3610.86,-759.16 3610.86,-753.16 3610.86,-753.16 3610.86,-741.16 3610.86,-741.16 3610.86,-735.16 3616.86,-729.16 3622.86,-729.16 3622.86,-729.16 3935.41,-729.16 3935.41,-729.16 3941.41,-729.16 3947.41,-735.16 3947.41,-741.16 3947.41,-741.16 3947.41,-753.16 3947.41,-753.16 3947.41,-759.16 3941.41,-765.16 3935.41,-765.16"/>
<text text-anchor="middle" x="3779.13" y="-741.16" font-family="Times,serif" font-size="20.00">outputmonolithic20260219122814R.dat</text>
</g>
<!-- a_16&#45;&gt;e_3178 -->
<g id="edge16" class="edge">
<title>a_16-&gt;e_3178</title>
<path fill="none" stroke="black" stroke-dasharray="5,2" d="M3610.39,-736.65C3602.19,-736.13 3593.9,-735.61 3585.55,-735.09"/>
<polygon fill="black" stroke="black" points="3585.86,-731.6 3575.66,-734.47 3585.43,-738.59 3585.86,-731.6"/>
</g>
<!-- a_17 -->
<g id="node46" class="node">
<title>a_17</title>
<path fill="white" stroke="black" d="M3933.74,-711.16C3933.74,-711.16 3624.53,-711.16 3624.53,-711.16 3618.53,-711.16 3612.53,-705.16 3612.53,-699.16 3612.53,-699.16 3612.53,-687.16 3612.53,-687.16 3612.53,-681.16 3618.53,-675.16 3624.53,-675.16 3624.53,-675.16 3933.74,-675.16 3933.74,-675.16 3939.74,-675.16 3945.74,-681.16 3945.74,-687.16 3945.74,-687.16 3945.74,-699.16 3945.74,-699.16 3945.74,-705.16 3939.74,-711.16 3933.74,-711.16"/>
<text text-anchor="middle" x="3779.13" y="-687.16" font-family="Times,serif" font-size="20.00">outputmonolithic202602191228140.dat</text>
</g>
<!-- a_17&#45;&gt;e_3178 -->
<g id="edge17" class="edge">
<title>a_17-&gt;e_3178</title>
<path fill="none" stroke="black" stroke-dasharray="5,2" d="M3612.24,-703.56C3603.41,-704.12 3594.47,-704.68 3585.46,-705.24"/>
<polygon fill="black" stroke="black" points="3585.31,-701.74 3575.55,-705.86 3585.75,-708.73 3585.31,-701.74"/>
</g>
<!-- e_3166&#45;&gt;e_93 -->
<g id="edge57" class="edge">
<title>e_3166-&gt;e_93</title>
<path fill="none" stroke="black" stroke-dasharray="5,2" d="M2960.17,-587.81C2936.44,-561.92 2895,-512.1 2875.56,-461.16 2863.12,-428.56 2882.25,-329.83 2857.56,-305.16 2852.65,-300.25 2367.6,-248.84 2360.69,-248.16 2309.79,-243.14 1939.31,-245.11 1901.97,-210.16 1862.59,-173.31 1915.26,-134.08 1883.97,-90.16 1849.99,-42.48 1824.06,-43.12 1767.19,-29.16 1643.55,1.19 1495.8,-12.12 1401.04,-26.69"/>
<polygon fill="none" stroke="black" points="1400.58,-23.22 1391.24,-28.24 1401.67,-30.14 1400.58,-23.22"/>
<text text-anchor="middle" x="2420.29" y="-262.73" font-family="Times,serif" font-size="14.00">[1]</text>
</g>
<!-- e_3166&#45;&gt;e_94 -->
<g id="edge58" class="edge">
<title>e_3166-&gt;e_94</title>
<path fill="none" stroke="black" stroke-dasharray="5,2" d="M2964.59,-587.83C2935.38,-549.37 2860.95,-461.92 2773.01,-439.16 2595.54,-393.23 2543.99,-430.61 2360.69,-428.16 1777.28,-420.38 1076.65,-438.02 823.91,-445.25"/>
<polygon fill="none" stroke="black" points="823.99,-441.75 814.09,-445.53 824.19,-448.74 823.99,-441.75"/>
<text text-anchor="middle" x="1834.58" y="-431.44" font-family="Times,serif" font-size="14.00">[2]</text>
</g>
<!-- e_3166&#45;&gt;e_95 -->
<g id="edge59" class="edge">
<title>e_3166-&gt;e_95</title>
<path fill="none" stroke="black" stroke-dasharray="5,2" d="M2965.33,-587.75C2937.53,-546.95 2871.86,-451.71 2857.56,-441.16 2825.6,-417.57 2812.17,-418.87 2773.01,-412.16 2565.87,-376.67 1091.6,-405.26 881.69,-395.16 859.53,-394.1 835.77,-391.36 813.67,-388.14"/>
<polygon fill="none" stroke="black" points="814.2,-384.68 803.79,-386.64 813.15,-391.6 814.2,-384.68"/>
<text text-anchor="middle" x="1834.58" y="-398.47" font-family="Times,serif" font-size="14.00">[3]</text>
</g>
<!-- e_3166&#45;&gt;e_317 -->
<g id="edge60" class="edge">
<title>e_3166-&gt;e_317</title>
<path fill="none" stroke="black" stroke-dasharray="5,2" d="M2946.56,-587.79C2907.54,-566.2 2837.98,-532.07 2773.01,-522.36 2556.47,-490.02 2294.17,-503.15 2184.49,-510.95"/>
<polygon fill="none" stroke="black" points="2184.34,-507.46 2174.62,-511.67 2184.85,-514.44 2184.34,-507.46"/>
<text text-anchor="middle" x="2626.45" y="-526.56" font-family="Times,serif" font-size="14.00">[4]</text>
</g>
<!-- e_3166&#45;&gt;e_318 -->
<g id="edge61" class="edge">
<title>e_3166-&gt;e_318</title>
<path fill="none" stroke="black" stroke-dasharray="5,2" d="M2927.94,-605.62C2823.02,-604.49 2580.38,-601.88 2473.47,-600.72"/>
<polygon fill="none" stroke="black" points="2473.59,-597.23 2463.55,-600.62 2473.51,-604.22 2473.59,-597.23"/>
<text text-anchor="middle" x="2824.29" y="-608.96" font-family="Times,serif" font-size="14.00">[5]</text>
</g>
<!-- e_3166&#45;&gt;e_319 -->
<g id="edge62" class="edge">
<title>e_3166-&gt;e_319</title>
<path fill="none" stroke="black" stroke-dasharray="5,2" d="M2927.88,-598.37C2886.5,-592.27 2826.09,-584.21 2773.01,-580.36 2442.31,-556.39 2044.38,-559.04 1895.58,-561.13"/>
<polygon fill="none" stroke="black" points="1895.92,-557.62 1885.97,-561.27 1896.02,-564.62 1895.92,-557.62"/>
<text text-anchor="middle" x="2626.45" y="-584.56" font-family="Times,serif" font-size="14.00">[6]</text>
</g>
<!-- e_3166&#45;&gt;e_320 -->
<g id="edge63" class="edge">
<title>e_3166-&gt;e_320</title>
<path fill="none" stroke="black" stroke-dasharray="5,2" d="M2957.37,-587.8C2922.57,-558 2848.27,-500.51 2773.01,-481.36 2559.88,-427.13 2294.16,-440.99 2183.94,-450.15"/>
<polygon fill="none" stroke="black" points="2183.69,-446.66 2174.03,-451 2184.29,-453.64 2183.69,-446.66"/>
<text text-anchor="middle" x="2626.45" y="-485.56" font-family="Times,serif" font-size="14.00">[7]</text>
</g>
<!-- e_3166&#45;&gt;e_321 -->
<g id="edge64" class="edge">
<title>e_3166-&gt;e_321</title>
<path fill="none" stroke="black" stroke-dasharray="5,2" d="M2973.84,-624.48C2963.12,-669.67 2929.43,-787.57 2857.56,-853.16 2827.88,-880.25 2812.05,-875.67 2773.01,-885.16 2349.97,-988.04 1820.9,-1000.15 1646.77,-1001.22"/>
<polygon fill="none" stroke="black" points="1646.83,-997.72 1636.84,-1001.27 1646.86,-1004.72 1646.83,-997.72"/>
<text text-anchor="middle" x="2420.29" y="-957.87" font-family="Times,serif" font-size="14.00">[8]</text>
</g>
<!-- e_3166&#45;&gt;e_322 -->
<g id="edge65" class="edge">
<title>e_3166-&gt;e_322</title>
<path fill="none" stroke="black" stroke-dasharray="5,2" d="M2927.99,-615.64C2906.42,-619.32 2880.83,-623.14 2857.56,-625.16 2617.57,-646 1861.89,-646.56 1646.23,-646.28"/>
<polygon fill="none" stroke="black" points="1646.4,-642.78 1636.4,-646.27 1646.39,-649.78 1646.4,-642.78"/>
<text text-anchor="middle" x="2420.29" y="-646" font-family="Times,serif" font-size="14.00">[9]</text>
</g>
<!-- e_3166&#45;&gt;e_324 -->
<g id="edge67" class="edge">
<title>e_3166-&gt;e_324</title>
<path fill="none" stroke="black" stroke-dasharray="5,2" d="M2928.02,-622.95C2906.56,-629.58 2881.06,-636.67 2857.56,-641.16 2820.49,-648.25 2810.68,-646.78 2773.01,-649.16 2334.68,-676.91 2223.28,-645.82 1785.19,-677.16 1737.54,-680.57 1683.66,-687.04 1644.32,-692.26"/>
<polygon fill="none" stroke="black" points="1644.06,-688.76 1634.62,-693.56 1644.99,-695.7 1644.06,-688.76"/>
<text text-anchor="middle" x="2420.29" y="-666.16" font-family="Times,serif" font-size="14.00">[11]</text>
</g>
<!-- e_3166&#45;&gt;e_325 -->
<g id="edge68" class="edge">
<title>e_3166-&gt;e_325</title>
<path fill="none" stroke="black" stroke-dasharray="5,2" d="M2940.98,-624.62C2917.58,-635.7 2886.38,-649.32 2857.56,-658.16 2440.71,-786.07 2319.53,-758.9 1883.97,-779.16 1800.42,-783.05 1703.47,-783.61 1644,-783.5"/>
<polygon fill="none" stroke="black" points="1644.14,-780 1634.13,-783.48 1644.12,-787 1644.14,-780"/>
<text text-anchor="middle" x="2420.29" y="-762.68" font-family="Times,serif" font-size="14.00">[12]</text>
</g>
<!-- e_3166&#45;&gt;e_3087 -->
<g id="edge56" class="edge">
<title>e_3166-&gt;e_3087</title>
<path fill="none" stroke="black" stroke-dasharray="5,2" d="M2960.41,-587.72C2936.96,-561.71 2895.84,-511.77 2875.56,-461.16 2855.38,-410.77 2897.49,-377.14 2857.56,-340.36 2810.51,-297.02 2732.56,-301.86 2680.6,-311.62"/>
<polygon fill="none" stroke="black" points="2680.2,-308.13 2671.09,-313.53 2681.58,-314.99 2680.2,-308.13"/>
<text text-anchor="middle" x="2824.29" y="-344.56" font-family="Times,serif" font-size="14.00">[0]</text>
</g>
<!-- e_3166&#45;&gt;e_3147 -->
<g id="edge66" class="edge">
<title>e_3166-&gt;e_3147</title>
<path fill="none" stroke="black" stroke-dasharray="5,2" d="M2970.81,-624.61C2955.69,-662.13 2916.52,-747.94 2857.56,-797.16 2807.52,-838.94 2731.8,-852.39 2681.03,-856.56"/>
<polygon fill="none" stroke="black" points="2680.88,-853.07 2671.16,-857.27 2681.38,-860.05 2680.88,-853.07"/>
<text text-anchor="middle" x="2824.29" y="-836.15" font-family="Times,serif" font-size="14.00">[10]</text>
</g>
<!-- e_3166&#45;&gt;e_3148 -->
<g id="edge69" class="edge">
<title>e_3166-&gt;e_3148</title>
<path fill="none" stroke="black" stroke-dasharray="5,2" d="M2968.79,-624.46C2951.8,-656.83 2911.85,-723.89 2857.56,-757.16 2828.07,-775.24 2736.57,-790 2678.23,-797.9"/>
<polygon fill="none" stroke="black" points="2677.98,-794.4 2668.53,-799.19 2678.9,-801.34 2677.98,-794.4"/>
<text text-anchor="middle" x="2824.29" y="-782.23" font-family="Times,serif" font-size="14.00">[13]</text>
</g>
</g>
</svg>