<?xml version="1.0" encoding="UTF-8" standalone="no"?>
<!DOCTYPE svg PUBLIC "-//W3C//DTD SVG 1.1//EN"
 "http://www.w3.org/Graphics/SVG/1.1/DTD/svg11.dtd">
<!-- Generated by graphviz version 14.1.2 (20260124.0452)
 -->
<!-- Title: e_1 Pages: 1 -->
<svg width="1455pt" height="236pt"
 viewBox="0.00 0.00 1455.00 236.00" xmlns="http://www.w3.org/2000/svg" xmlns:xlink="http://www.w3.org/1999/xlink">
<g id="graph0" class="graph" transform="scale(1 1) rotate(0) translate(4 232)">
<title>e_1</title>
<polygon fill="white" stroke="none" points="-4,4 -4,-232 1450.75,-232 1450.75,4 -4,4"/>
<!-- e_22 -->
<g id="node1" class="node">
<title>e_22</title>
<polygon fill="#3a85b9" stroke="black" points="838.62,-90 676.38,-90 676.38,-54 838.62,-54 838.62,-90"/>
<text xml:space="preserve" text-anchor="middle" x="757.5" y="-64.25" font-family="Times New Roman,serif" font-size="20.00" fill="white">25 int(sys.argv[1])</text>
</g>
<!-- e_14 -->
<g id="node2" class="node">
<title>e_14</title>
<path fill="#85cbd0" stroke="black" d="M46,-108C46,-108 12,-108 12,-108 6,-108 0,-102 0,-96 0,-96 0,-84 0,-84 0,-78 6,-72 12,-72 12,-72 46,-72 46,-72 52,-72 58,-78 58,-84 58,-84 58,-96 58,-96 58,-102 52,-108 46,-108"/>
<text xml:space="preserve" text-anchor="middle" x="29" y="-82.25" font-family="Times New Roman,serif" font-size="20.00">&#45;1 int</text>
</g>
<!-- e_22&#45;&gt;e_14 -->
<g id="edge3" class="edge">
<title>e_22&#45;&gt;e_14</title>
<path fill="none" stroke="black" d="M675.98,-74C520.58,-77.85 184.55,-86.17 69.54,-89.02"/>
<polygon fill="black" stroke="black" points="69.6,-85.52 59.69,-89.26 69.78,-92.52 69.6,-85.52"/>
<text xml:space="preserve" text-anchor="middle" x="380" y="-85.18" font-family="Times New Roman,serif" font-size="14.00">.__class__</text>
</g>
<!-- e_21 -->
<g id="node5" class="node">
<title>e_21</title>
<path fill="#85cbd0" stroke="black" d="M576.75,-62C576.75,-62 472.25,-62 472.25,-62 466.25,-62 460.25,-56 460.25,-50 460.25,-50 460.25,-38 460.25,-38 460.25,-32 466.25,-26 472.25,-26 472.25,-26 576.75,-26 576.75,-26 582.75,-26 588.75,-32 588.75,-38 588.75,-38 588.75,-50 588.75,-50 588.75,-56 582.75,-62 576.75,-62"/>
<text xml:space="preserve" text-anchor="middle" x="524.5" y="-36.25" font-family="Times New Roman,serif" font-size="20.00">25 sys.argv[1]</text>
</g>
<!-- e_22&#45;&gt;e_21 -->
<g id="edge4" class="edge">
<title>e_22&#45;&gt;e_21</title>
<path fill="none" stroke="black" d="M676.03,-62.25C651.41,-59.26 624.45,-55.99 600.23,-53.06"/>
<polygon fill="black" stroke="black" points="600.81,-49.6 590.46,-51.87 599.96,-56.55 600.81,-49.6"/>
</g>
<!-- e_20 -->
<g id="node3" class="node">
<title>e_20</title>
<path fill="#85cbd0" stroke="black" d="M257.25,-62C257.25,-62 227.25,-62 227.25,-62 221.25,-62 215.25,-56 215.25,-50 215.25,-50 215.25,-38 215.25,-38 215.25,-32 221.25,-26 227.25,-26 227.25,-26 257.25,-26 257.25,-26 263.25,-26 269.25,-32 269.25,-38 269.25,-38 269.25,-50 269.25,-50 269.25,-56 263.25,-62 257.25,-62"/>
<text xml:space="preserve" text-anchor="middle" x="242.25" y="-36.25" font-family="Times New Roman,serif" font-size="20.00">25 1</text>
</g>
<!-- e_20&#45;&gt;e_14 -->
<g id="edge1" class="edge">
<title>e_20&#45;&gt;e_14</title>
<path fill="none" stroke="black" d="M214.94,-42.59C181.61,-41.66 122.87,-42.95 76,-59.5 71.3,-61.16 66.61,-63.41 62.12,-65.93"/>
<polygon fill="black" stroke="black" points="60.62,-62.74 53.97,-70.98 64.31,-68.69 60.62,-62.74"/>
<text xml:space="preserve" text-anchor="middle" x="104.5" y="-62.7" font-family="Times New Roman,serif" font-size="14.00">.__class__</text>
</g>
<!-- e_60 -->
<g id="node4" class="node">
<title>e_60</title>
<path fill="#85cbd0" stroke="black" d="M257.25,-154C257.25,-154 227.25,-154 227.25,-154 221.25,-154 215.25,-148 215.25,-142 215.25,-142 215.25,-130 215.25,-130 215.25,-124 221.25,-118 227.25,-118 227.25,-118 257.25,-118 257.25,-118 263.25,-118 269.25,-124 269.25,-130 269.25,-130 269.25,-142 269.25,-142 269.25,-148 263.25,-154 257.25,-154"/>
<text xml:space="preserve" text-anchor="middle" x="242.25" y="-128.25" font-family="Times New Roman,serif" font-size="20.00">19 1</text>
</g>
<!-- e_60&#45;&gt;e_14 -->
<g id="edge15" class="edge">
<title>e_60&#45;&gt;e_14</title>
<path fill="none" stroke="black" d="M215.02,-131.79C182.27,-126.33 124.64,-116.08 76,-104 73.72,-103.43 71.39,-102.82 69.04,-102.19"/>
<polygon fill="black" stroke="black" points="70.12,-98.85 59.55,-99.47 68.2,-105.59 70.12,-98.85"/>
<text xml:space="preserve" text-anchor="middle" x="104.5" y="-119.34" font-family="Times New Roman,serif" font-size="14.00">.__class__</text>
</g>
<!-- e_21&#45;&gt;e_20 -->
<g id="edge2" class="edge">
<title>e_21&#45;&gt;e_20</title>
<path fill="none" stroke="black" d="M459.91,-44C404.76,-44 326.8,-44 280.98,-44"/>
<polygon fill="black" stroke="black" points="281.03,-40.5 271.03,-44 281.03,-47.5 281.03,-40.5"/>
</g>
<!-- e_23 -->
<g id="node6" class="node">
<title>e_23</title>
<path fill="#85cbd0" stroke="black" d="M1038.62,-90C1038.62,-90 979.88,-90 979.88,-90 973.88,-90 967.88,-84 967.88,-78 967.88,-78 967.88,-66 967.88,-66 967.88,-60 973.88,-54 979.88,-54 979.88,-54 1038.62,-54 1038.62,-54 1044.62,-54 1050.62,-60 1050.62,-66 1050.62,-66 1050.62,-78 1050.62,-78 1050.62,-84 1044.62,-90 1038.62,-90"/>
<text xml:space="preserve" text-anchor="middle" x="1009.25" y="-64.25" font-family="Times New Roman,serif" font-size="20.00">25 order</text>
</g>
<!-- e_23&#45;&gt;e_22 -->
<g id="edge5" class="edge">
<title>e_23&#45;&gt;e_22</title>
<path fill="none" stroke="black" d="M967.57,-72C935.92,-72 890.78,-72 850.53,-72"/>
<polygon fill="none" stroke="black" points="850.56,-68.5 840.56,-72 850.56,-75.5 850.56,-68.5"/>
</g>
<!-- e_27 -->
<g id="node7" class="node">
<title>e_27</title>
<polygon fill="#3a85b9" stroke="black" points="622.5,-228 426.5,-228 426.5,-192 622.5,-192 622.5,-228"/>
<text xml:space="preserve" text-anchor="middle" x="524.5" y="-202.25" font-family="Times New Roman,serif" font-size="20.00" fill="white">26 time.perf_counter()</text>
</g>
<!-- e_25 -->
<g id="node8" class="node">
<title>e_25</title>
<path fill="#85cbd0" stroke="black" d="M321.5,-228C321.5,-228 163,-228 163,-228 157,-228 151,-222 151,-216 151,-216 151,-204 151,-204 151,-198 157,-192 163,-192 163,-192 321.5,-192 321.5,-192 327.5,-192 333.5,-198 333.5,-204 333.5,-204 333.5,-216 333.5,-216 333.5,-222 327.5,-228 321.5,-228"/>
<text xml:space="preserve" text-anchor="middle" x="242.25" y="-202.25" font-family="Times New Roman,serif" font-size="20.00">26 time.perf_counter</text>
</g>
<!-- e_27&#45;&gt;e_25 -->
<g id="edge6" class="edge">
<title>e_27&#45;&gt;e_25</title>
<path fill="none" stroke="black" d="M426.27,-210C399.99,-210 371.48,-210 344.95,-210"/>
<polygon fill="black" stroke="black" points="345.24,-206.5 335.24,-210 345.24,-213.5 345.24,-206.5"/>
</g>
<!-- e_29 -->
<g id="node9" class="node">
<title>e_29</title>
<path fill="#85cbd0" stroke="black" d="M776,-228C776,-228 739,-228 739,-228 733,-228 727,-222 727,-216 727,-216 727,-204 727,-204 727,-198 733,-192 739,-192 739,-192 776,-192 776,-192 782,-192 788,-198 788,-204 788,-204 788,-216 788,-216 788,-222 782,-228 776,-228"/>
<text xml:space="preserve" text-anchor="middle" x="757.5" y="-202.25" font-family="Times New Roman,serif" font-size="20.00">26 dti</text>
</g>
<!-- e_29&#45;&gt;e_27 -->
<g id="edge7" class="edge">
<title>e_29&#45;&gt;e_27</title>
<path fill="none" stroke="black" d="M726.77,-210C703.07,-210 668.33,-210 634.36,-210"/>
<polygon fill="none" stroke="black" points="634.39,-206.5 624.39,-210 634.39,-213.5 634.39,-206.5"/>
</g>
<!-- e_32 -->
<g id="node10" class="node">
<title>e_32</title>
<polygon fill="#3a85b9" stroke="black" points="1372.88,-56 1236.88,-56 1236.88,-20 1372.88,-20 1372.88,-56"/>
<text xml:space="preserve" text-anchor="middle" x="1304.88" y="-30.25" font-family="Times New Roman,serif" font-size="20.00" fill="white">27 main(order)</text>
</g>
<!-- e_32&#45;&gt;e_23 -->
<g id="edge9" class="edge">
<title>e_32&#45;&gt;e_23</title>
<path fill="none" stroke="black" d="M1236.51,-45.8C1183.53,-51.94 1110.8,-60.36 1062.24,-65.98"/>
<polygon fill="black" stroke="black" points="1062.09,-62.47 1052.56,-67.1 1062.9,-69.43 1062.09,-62.47"/>
</g>
<!-- e_7 -->
<g id="node11" class="node">
<title>e_7</title>
<path fill="#85cbd0" stroke="black" d="M1037.5,-36C1037.5,-36 981,-36 981,-36 975,-36 969,-30 969,-24 969,-24 969,-12 969,-12 969,-6 975,0 981,0 981,0 1037.5,0 1037.5,0 1043.5,0 1049.5,-6 1049.5,-12 1049.5,-12 1049.5,-24 1049.5,-24 1049.5,-30 1043.5,-36 1037.5,-36"/>
<text xml:space="preserve" text-anchor="middle" x="1009.25" y="-10.25" font-family="Times New Roman,serif" font-size="20.00">22 main</text>
</g>
<!-- e_32&#45;&gt;e_7 -->
<g id="edge8" class="edge">
<title>e_32&#45;&gt;e_7</title>
<path fill="none" stroke="black" d="M1236.51,-33.41C1183.17,-29.78 1109.81,-24.78 1061.26,-21.47"/>
<polygon fill="black" stroke="black" points="1061.51,-17.98 1051.3,-20.8 1061.04,-24.97 1061.51,-17.98"/>
</g>
<!-- e_96 -->
<g id="node12" class="node">
<title>e_96</title>
<polygon fill="#3a85b9" stroke="black" points="855.5,-174 659.5,-174 659.5,-138 855.5,-138 855.5,-174"/>
<text xml:space="preserve" text-anchor="middle" x="757.5" y="-148.25" font-family="Times New Roman,serif" font-size="20.00" fill="white">28 time.perf_counter()</text>
</g>
<!-- e_95 -->
<g id="node13" class="node">
<title>e_95</title>
<path fill="#85cbd0" stroke="black" d="M603.75,-174C603.75,-174 445.25,-174 445.25,-174 439.25,-174 433.25,-168 433.25,-162 433.25,-162 433.25,-150 433.25,-150 433.25,-144 439.25,-138 445.25,-138 445.25,-138 603.75,-138 603.75,-138 609.75,-138 615.75,-144 615.75,-150 615.75,-150 615.75,-162 615.75,-162 615.75,-168 609.75,-174 603.75,-174"/>
<text xml:space="preserve" text-anchor="middle" x="524.5" y="-148.25" font-family="Times New Roman,serif" font-size="20.00">28 time.perf_counter</text>
</g>
<!-- e_96&#45;&gt;e_95 -->
<g id="edge10" class="edge">
<title>e_96&#45;&gt;e_95</title>
<path fill="none" stroke="black" d="M659.2,-156C648.7,-156 637.99,-156 627.43,-156"/>
<polygon fill="black" stroke="black" points="627.57,-152.5 617.57,-156 627.57,-159.5 627.57,-152.5"/>
</g>
<!-- e_98 -->
<g id="node14" class="node">
<title>e_98</title>
<path fill="#85cbd0" stroke="black" d="M1114,-202C1114,-202 904.5,-202 904.5,-202 898.5,-202 892.5,-196 892.5,-190 892.5,-190 892.5,-178 892.5,-178 892.5,-172 898.5,-166 904.5,-166 904.5,-166 1114,-166 1114,-166 1120,-166 1126,-172 1126,-178 1126,-178 1126,-190 1126,-190 1126,-196 1120,-202 1114,-202"/>
<text xml:space="preserve" text-anchor="middle" x="1009.25" y="-176.25" font-family="Times New Roman,serif" font-size="20.00">28 time.perf_counter() &#45; dti</text>
</g>
<!-- e_98&#45;&gt;e_29 -->
<g id="edge12" class="edge">
<title>e_98&#45;&gt;e_29</title>
<path fill="none" stroke="black" stroke-dasharray="5,2" d="M892.15,-196.09C859.05,-199.53 825.12,-203.06 799.73,-205.71"/>
<polygon fill="none" stroke="black" points="799.44,-202.22 789.86,-206.74 800.16,-209.18 799.44,-202.22"/>
</g>
<!-- e_98&#45;&gt;e_96 -->
<g id="edge11" class="edge">
<title>e_98&#45;&gt;e_96</title>
<path fill="none" stroke="black" d="M892.15,-170.98C883.83,-170.05 875.46,-169.11 867.18,-168.18"/>
<polygon fill="black" stroke="black" points="867.8,-164.73 857.47,-167.1 867.02,-171.69 867.8,-164.73"/>
</g>
<!-- e_99 -->
<g id="node15" class="node">
<title>e_99</title>
<polygon fill="#3a85b9" stroke="black" points="1446.75,-160 1163,-160 1163,-124 1446.75,-124 1446.75,-160"/>
<text xml:space="preserve" text-anchor="middle" x="1304.88" y="-134.25" font-family="Times New Roman,serif" font-size="20.00" fill="white">28 print(time.perf_counter() &#45; dti)</text>
</g>
<!-- e_99&#45;&gt;e_98 -->
<g id="edge14" class="edge">
<title>e_99&#45;&gt;e_98</title>
<path fill="none" stroke="black" d="M1174.66,-160.48C1162.29,-162.25 1149.75,-164.05 1137.4,-165.81"/>
<polygon fill="black" stroke="black" points="1137.03,-162.33 1127.62,-167.21 1138.02,-169.26 1137.03,-162.33"/>
</g>
<!-- e_92 -->
<g id="node16" class="node">
<title>e_92</title>
<path fill="#85cbd0" stroke="black" d="M1034.5,-148C1034.5,-148 984,-148 984,-148 978,-148 972,-142 972,-136 972,-136 972,-124 972,-124 972,-118 978,-112 984,-112 984,-112 1034.5,-112 1034.5,-112 1040.5,-112 1046.5,-118 1046.5,-124 1046.5,-124 1046.5,-136 1046.5,-136 1046.5,-142 1040.5,-148 1034.5,-148"/>
<text xml:space="preserve" text-anchor="middle" x="1009.25" y="-122.25" font-family="Times New Roman,serif" font-size="20.00">&#45;1 print</text>
</g>
<!-- e_99&#45;&gt;e_92 -->
<g id="edge13" class="edge">
<title>e_99&#45;&gt;e_92</title>
<path fill="none" stroke="black" d="M1162.65,-136.23C1124.95,-134.69 1086.75,-133.13 1058.03,-131.95"/>
<polygon fill="black" stroke="black" points="1058.37,-128.46 1048.23,-131.55 1058.08,-135.46 1058.37,-128.46"/>
</g>
</g>
</svg>
