<?xml version="1.0" encoding="UTF-8" standalone="no"?>
<!DOCTYPE svg PUBLIC "-//W3C//DTD SVG 1.1//EN"
 "http://www.w3.org/Graphics/SVG/1.1/DTD/svg11.dtd">
<!-- Generated by graphviz version 14.1.2 (20260124.0452)
 -->
<!-- Title: e_1 Pages: 1 -->
<svg width="2935pt" height="252pt"
 viewBox="0.00 0.00 2935.00 252.00" xmlns="http://www.w3.org/2000/svg" xmlns:xlink="http://www.w3.org/1999/xlink">
<g id="graph0" class="graph" transform="scale(1 1) rotate(0) translate(4 248)">
<title>e_1</title>
<polygon fill="white" stroke="none" points="-4,4 -4,-248 2930.75,-248 2930.75,4 -4,4"/>
<!-- e_17 -->
<g id="node1" class="node">
<title>e_17</title>
<polygon fill="#3a85b9" stroke="black" points="606.25,-136 453.75,-136 453.75,-100 606.25,-100 606.25,-136"/>
<text xml:space="preserve" text-anchor="middle" x="530" y="-110.25" font-family="Times New Roman,serif" font-size="20.00" fill="white">7 int(sys.argv[1])</text>
</g>
<!-- e_9 -->
<g id="node2" class="node">
<title>e_9</title>
<path fill="#85cbd0" stroke="black" d="M46,-90C46,-90 12,-90 12,-90 6,-90 0,-84 0,-78 0,-78 0,-66 0,-66 0,-60 6,-54 12,-54 12,-54 46,-54 46,-54 52,-54 58,-60 58,-66 58,-66 58,-78 58,-78 58,-84 52,-90 46,-90"/>
<text xml:space="preserve" text-anchor="middle" x="29" y="-64.25" font-family="Times New Roman,serif" font-size="20.00">&#45;1 int</text>
</g>
<!-- e_17&#45;&gt;e_9 -->
<g id="edge3" class="edge">
<title>e_17&#45;&gt;e_9</title>
<path fill="none" stroke="black" d="M461.13,-99.52C446.58,-96.17 431.23,-93.08 416.75,-91 290.94,-72.94 140.02,-71.19 69.69,-71.51"/>
<polygon fill="black" stroke="black" points="69.81,-68.01 59.83,-71.58 69.85,-75.01 69.81,-68.01"/>
<text xml:space="preserve" text-anchor="middle" x="251.5" y="-80.52" font-family="Times New Roman,serif" font-size="14.00">.__class__</text>
</g>
<!-- e_16 -->
<g id="node5" class="node">
<title>e_16</title>
<path fill="#85cbd0" stroke="black" d="M404.75,-136C404.75,-136 310,-136 310,-136 304,-136 298,-130 298,-124 298,-124 298,-112 298,-112 298,-106 304,-100 310,-100 310,-100 404.75,-100 404.75,-100 410.75,-100 416.75,-106 416.75,-112 416.75,-112 416.75,-124 416.75,-124 416.75,-130 410.75,-136 404.75,-136"/>
<text xml:space="preserve" text-anchor="middle" x="357.38" y="-110.25" font-family="Times New Roman,serif" font-size="20.00">7 sys.argv[1]</text>
</g>
<!-- e_17&#45;&gt;e_16 -->
<g id="edge4" class="edge">
<title>e_17&#45;&gt;e_16</title>
<path fill="none" stroke="black" d="M453.66,-118C445.35,-118 436.91,-118 428.66,-118"/>
<polygon fill="black" stroke="black" points="428.68,-114.5 418.68,-118 428.68,-121.5 428.68,-114.5"/>
</g>
<!-- e_15 -->
<g id="node3" class="node">
<title>e_15</title>
<path fill="#85cbd0" stroke="black" d="M193,-136C193,-136 163,-136 163,-136 157,-136 151,-130 151,-124 151,-124 151,-112 151,-112 151,-106 157,-100 163,-100 163,-100 193,-100 193,-100 199,-100 205,-106 205,-112 205,-112 205,-124 205,-124 205,-130 199,-136 193,-136"/>
<text xml:space="preserve" text-anchor="middle" x="178" y="-110.25" font-family="Times New Roman,serif" font-size="20.00">7 1</text>
</g>
<!-- e_15&#45;&gt;e_9 -->
<g id="edge1" class="edge">
<title>e_15&#45;&gt;e_9</title>
<path fill="none" stroke="black" d="M150.72,-109.78C128.06,-102.69 95.01,-92.34 69.22,-84.27"/>
<polygon fill="black" stroke="black" points="70.34,-80.96 59.75,-81.31 68.25,-87.64 70.34,-80.96"/>
<text xml:space="preserve" text-anchor="middle" x="104.5" y="-106.32" font-family="Times New Roman,serif" font-size="14.00">.__class__</text>
</g>
<!-- e_45 -->
<g id="node4" class="node">
<title>e_45</title>
<path fill="#85cbd0" stroke="black" d="M1531.5,-44C1531.5,-44 1501.5,-44 1501.5,-44 1495.5,-44 1489.5,-38 1489.5,-32 1489.5,-32 1489.5,-20 1489.5,-20 1489.5,-14 1495.5,-8 1501.5,-8 1501.5,-8 1531.5,-8 1531.5,-8 1537.5,-8 1543.5,-14 1543.5,-20 1543.5,-20 1543.5,-32 1543.5,-32 1543.5,-38 1537.5,-44 1531.5,-44"/>
<text xml:space="preserve" text-anchor="middle" x="1516.5" y="-18.25" font-family="Times New Roman,serif" font-size="20.00">13 1</text>
</g>
<!-- e_45&#45;&gt;e_9 -->
<g id="edge13" class="edge">
<title>e_45&#45;&gt;e_9</title>
<path fill="none" stroke="black" d="M1489.27,-26C1426.88,-26 1264.71,-26 1129.25,-26 1129.25,-26 1129.25,-26 177,-26 138.89,-26 97.66,-40.25 68.59,-52.89"/>
<polygon fill="black" stroke="black" points="67.53,-49.53 59.84,-56.82 70.4,-55.92 67.53,-49.53"/>
<text xml:space="preserve" text-anchor="middle" x="652.75" y="-29.2" font-family="Times New Roman,serif" font-size="14.00">.__class__</text>
</g>
<!-- e_16&#45;&gt;e_15 -->
<g id="edge2" class="edge">
<title>e_16&#45;&gt;e_15</title>
<path fill="none" stroke="black" d="M297.8,-118C271.04,-118 240.13,-118 216.55,-118"/>
<polygon fill="black" stroke="black" points="216.79,-114.5 206.79,-118 216.79,-121.5 216.79,-114.5"/>
</g>
<!-- e_18 -->
<g id="node6" class="node">
<title>e_18</title>
<path fill="#85cbd0" stroke="black" d="M760.25,-141C760.25,-141 711.25,-141 711.25,-141 705.25,-141 699.25,-135 699.25,-129 699.25,-129 699.25,-117 699.25,-117 699.25,-111 705.25,-105 711.25,-105 711.25,-105 760.25,-105 760.25,-105 766.25,-105 772.25,-111 772.25,-117 772.25,-117 772.25,-129 772.25,-129 772.25,-135 766.25,-141 760.25,-141"/>
<text xml:space="preserve" text-anchor="middle" x="735.75" y="-115.25" font-family="Times New Roman,serif" font-size="20.00">7 order</text>
</g>
<!-- e_18&#45;&gt;e_17 -->
<g id="edge5" class="edge">
<title>e_18&#45;&gt;e_17</title>
<path fill="none" stroke="black" d="M698.79,-122.12C676.3,-121.57 646.3,-120.83 617.89,-120.13"/>
<polygon fill="none" stroke="black" points="618.27,-116.64 608.19,-119.89 618.1,-123.64 618.27,-116.64"/>
</g>
<!-- e_22 -->
<g id="node7" class="node">
<title>e_22</title>
<polygon fill="#3a85b9" stroke="black" points="2102.5,-244 1916.25,-244 1916.25,-208 2102.5,-208 2102.5,-244"/>
<text xml:space="preserve" text-anchor="middle" x="2009.38" y="-218.25" font-family="Times New Roman,serif" font-size="20.00" fill="white">8 time.perf_counter()</text>
</g>
<!-- e_20 -->
<g id="node8" class="node">
<title>e_20</title>
<path fill="#85cbd0" stroke="black" d="M1813.25,-244C1813.25,-244 1664.5,-244 1664.5,-244 1658.5,-244 1652.5,-238 1652.5,-232 1652.5,-232 1652.5,-220 1652.5,-220 1652.5,-214 1658.5,-208 1664.5,-208 1664.5,-208 1813.25,-208 1813.25,-208 1819.25,-208 1825.25,-214 1825.25,-220 1825.25,-220 1825.25,-232 1825.25,-232 1825.25,-238 1819.25,-244 1813.25,-244"/>
<text xml:space="preserve" text-anchor="middle" x="1738.88" y="-218.25" font-family="Times New Roman,serif" font-size="20.00">8 time.perf_counter</text>
</g>
<!-- e_22&#45;&gt;e_20 -->
<g id="edge6" class="edge">
<title>e_22&#45;&gt;e_20</title>
<path fill="none" stroke="black" d="M1915.97,-226C1890.47,-226 1862.73,-226 1836.97,-226"/>
<polygon fill="black" stroke="black" points="1837.19,-222.5 1827.19,-226 1837.19,-229.5 1837.19,-222.5"/>
</g>
<!-- e_24 -->
<g id="node9" class="node">
<title>e_24</title>
<path fill="#85cbd0" stroke="black" d="M2252.5,-244C2252.5,-244 2222.5,-244 2222.5,-244 2216.5,-244 2210.5,-238 2210.5,-232 2210.5,-232 2210.5,-220 2210.5,-220 2210.5,-214 2216.5,-208 2222.5,-208 2222.5,-208 2252.5,-208 2252.5,-208 2258.5,-208 2264.5,-214 2264.5,-220 2264.5,-220 2264.5,-232 2264.5,-232 2264.5,-238 2258.5,-244 2252.5,-244"/>
<text xml:space="preserve" text-anchor="middle" x="2237.5" y="-218.25" font-family="Times New Roman,serif" font-size="20.00">8 dti</text>
</g>
<!-- e_24&#45;&gt;e_22 -->
<g id="edge7" class="edge">
<title>e_24&#45;&gt;e_22</title>
<path fill="none" stroke="black" d="M2210.12,-226C2186.31,-226 2149.68,-226 2114.26,-226"/>
<polygon fill="none" stroke="black" points="2114.33,-222.5 2104.33,-226 2114.33,-229.5 2114.33,-222.5"/>
</g>
<!-- e_38 -->
<g id="node10" class="node">
<title>e_38</title>
<polygon fill="#3a85b9" stroke="black" points="1471.5,-109 1147.25,-109 1147.25,-73 1471.5,-73 1471.5,-109"/>
<text xml:space="preserve" text-anchor="middle" x="1309.38" y="-83.25" font-family="Times New Roman,serif" font-size="20.00" fill="white">12 np.polynomial.legendre.leggauss(n)</text>
</g>
<!-- e_35 -->
<g id="node11" class="node">
<title>e_35</title>
<path fill="#85cbd0" stroke="black" d="M1098.25,-90C1098.25,-90 821.25,-90 821.25,-90 815.25,-90 809.25,-84 809.25,-78 809.25,-78 809.25,-66 809.25,-66 809.25,-60 815.25,-54 821.25,-54 821.25,-54 1098.25,-54 1098.25,-54 1104.25,-54 1110.25,-60 1110.25,-66 1110.25,-66 1110.25,-78 1110.25,-78 1110.25,-84 1104.25,-90 1098.25,-90"/>
<text xml:space="preserve" text-anchor="middle" x="959.75" y="-64.25" font-family="Times New Roman,serif" font-size="20.00">12 np.polynomial.legendre.leggauss</text>
</g>
<!-- e_38&#45;&gt;e_35 -->
<g id="edge9" class="edge">
<title>e_38&#45;&gt;e_35</title>
<path fill="none" stroke="black" d="M1146.77,-82.17C1138.49,-81.71 1130.16,-81.26 1121.87,-80.81"/>
<polygon fill="black" stroke="black" points="1122.29,-77.32 1112.11,-80.27 1121.91,-84.31 1122.29,-77.32"/>
</g>
<!-- e_26 -->
<g id="node12" class="node">
<title>e_26</title>
<path fill="#85cbd0" stroke="black" d="M974.75,-144C974.75,-144 944.75,-144 944.75,-144 938.75,-144 932.75,-138 932.75,-132 932.75,-132 932.75,-120 932.75,-120 932.75,-114 938.75,-108 944.75,-108 944.75,-108 974.75,-108 974.75,-108 980.75,-108 986.75,-114 986.75,-120 986.75,-120 986.75,-132 986.75,-132 986.75,-138 980.75,-144 974.75,-144"/>
<text xml:space="preserve" text-anchor="middle" x="959.75" y="-118.25" font-family="Times New Roman,serif" font-size="20.00">9 n</text>
</g>
<!-- e_38&#45;&gt;e_26 -->
<g id="edge10" class="edge">
<title>e_38&#45;&gt;e_26</title>
<path fill="none" stroke="black" d="M1146.77,-107.27C1091.5,-112.84 1034.57,-118.57 998.49,-122.2"/>
<polygon fill="black" stroke="black" points="998.19,-118.71 988.59,-123.2 998.89,-125.68 998.19,-118.71"/>
</g>
<!-- e_26&#45;&gt;e_18 -->
<g id="edge8" class="edge">
<title>e_26&#45;&gt;e_18</title>
<path fill="none" stroke="black" stroke-dasharray="5,2" d="M932.41,-125.64C895.85,-125.15 829.13,-124.25 783.88,-123.64"/>
<polygon fill="none" stroke="black" points="784.14,-120.14 774.1,-123.5 784.05,-127.14 784.14,-120.14"/>
</g>
<!-- e_40 -->
<g id="node13" class="node">
<title>e_40</title>
<path fill="#85cbd0" stroke="black" d="M1603.5,-90C1603.5,-90 1573.5,-90 1573.5,-90 1567.5,-90 1561.5,-84 1561.5,-78 1561.5,-78 1561.5,-66 1561.5,-66 1561.5,-60 1567.5,-54 1573.5,-54 1573.5,-54 1603.5,-54 1603.5,-54 1609.5,-54 1615.5,-60 1615.5,-66 1615.5,-66 1615.5,-78 1615.5,-78 1615.5,-84 1609.5,-90 1603.5,-90"/>
<text xml:space="preserve" text-anchor="middle" x="1588.5" y="-64.25" font-family="Times New Roman,serif" font-size="20.00">12 x</text>
</g>
<!-- e_40&#45;&gt;e_38 -->
<g id="edge11" class="edge">
<title>e_40&#45;&gt;e_38</title>
<path fill="none" stroke="black" d="M1561.18,-73.8C1541.81,-75.13 1513.61,-77.07 1483.06,-79.16"/>
<polygon fill="black" stroke="black" points="1482.95,-75.66 1473.22,-79.84 1483.43,-82.64 1482.95,-75.66"/>
</g>
<!-- e_42 -->
<g id="node14" class="node">
<title>e_42</title>
<path fill="#85cbd0" stroke="black" d="M1886.25,-136C1886.25,-136 1855.25,-136 1855.25,-136 1849.25,-136 1843.25,-130 1843.25,-124 1843.25,-124 1843.25,-112 1843.25,-112 1843.25,-106 1849.25,-100 1855.25,-100 1855.25,-100 1886.25,-100 1886.25,-100 1892.25,-100 1898.25,-106 1898.25,-112 1898.25,-112 1898.25,-124 1898.25,-124 1898.25,-130 1892.25,-136 1886.25,-136"/>
<text xml:space="preserve" text-anchor="middle" x="1870.75" y="-110.25" font-family="Times New Roman,serif" font-size="20.00">12 w</text>
</g>
<!-- e_42&#45;&gt;e_38 -->
<g id="edge12" class="edge">
<title>e_42&#45;&gt;e_38</title>
<path fill="none" stroke="black" d="M1842.77,-116.7C1778.62,-113.6 1612.66,-105.59 1482.93,-99.33"/>
<polygon fill="black" stroke="black" points="1483.35,-95.85 1473.19,-98.86 1483.01,-102.84 1483.35,-95.85"/>
</g>
<!-- e_62 -->
<g id="node15" class="node">
<title>e_62</title>
<polygon fill="#3a85b9" stroke="black" points="2065.75,-90 1953,-90 1953,-54 2065.75,-54 2065.75,-90"/>
<text xml:space="preserve" text-anchor="middle" x="2009.38" y="-64.25" font-family="Times New Roman,serif" font-size="20.00" fill="white">14 np.exp(t)</text>
</g>
<!-- e_59 -->
<g id="node16" class="node">
<title>e_59</title>
<path fill="#85cbd0" stroke="black" d="M1773.88,-36C1773.88,-36 1703.88,-36 1703.88,-36 1697.88,-36 1691.88,-30 1691.88,-24 1691.88,-24 1691.88,-12 1691.88,-12 1691.88,-6 1697.88,0 1703.88,0 1703.88,0 1773.88,0 1773.88,0 1779.88,0 1785.88,-6 1785.88,-12 1785.88,-12 1785.88,-24 1785.88,-24 1785.88,-30 1779.88,-36 1773.88,-36"/>
<text xml:space="preserve" text-anchor="middle" x="1738.88" y="-10.25" font-family="Times New Roman,serif" font-size="20.00">14 np.exp</text>
</g>
<!-- e_62&#45;&gt;e_59 -->
<g id="edge16" class="edge">
<title>e_62&#45;&gt;e_59</title>
<path fill="none" stroke="black" d="M1952.74,-60.81C1907.29,-51.67 1843.27,-38.79 1797.33,-29.55"/>
<polygon fill="black" stroke="black" points="1798.04,-26.13 1787.54,-27.59 1796.66,-32.99 1798.04,-26.13"/>
</g>
<!-- e_54 -->
<g id="node17" class="node">
<title>e_54</title>
<path fill="#85cbd0" stroke="black" d="M1753.88,-90C1753.88,-90 1723.88,-90 1723.88,-90 1717.88,-90 1711.88,-84 1711.88,-78 1711.88,-78 1711.88,-66 1711.88,-66 1711.88,-60 1717.88,-54 1723.88,-54 1723.88,-54 1753.88,-54 1753.88,-54 1759.88,-54 1765.88,-60 1765.88,-66 1765.88,-66 1765.88,-78 1765.88,-78 1765.88,-84 1759.88,-90 1753.88,-90"/>
<text xml:space="preserve" text-anchor="middle" x="1738.88" y="-64.25" font-family="Times New Roman,serif" font-size="20.00">13 t</text>
</g>
<!-- e_62&#45;&gt;e_54 -->
<g id="edge17" class="edge">
<title>e_62&#45;&gt;e_54</title>
<path fill="none" stroke="black" d="M1952.74,-72C1900.29,-72 1823.11,-72 1777.53,-72"/>
<polygon fill="black" stroke="black" points="1777.61,-68.5 1767.61,-72 1777.61,-75.5 1777.61,-68.5"/>
</g>
<!-- e_54&#45;&gt;e_45 -->
<g id="edge14" class="edge">
<title>e_54&#45;&gt;e_45</title>
<path fill="none" stroke="black" stroke-dasharray="5,2" d="M1711.66,-66.01C1686.91,-60.41 1648.73,-51.89 1615.5,-45 1595.5,-40.86 1573.14,-36.5 1554.84,-33.01"/>
<polygon fill="none" stroke="black" points="1555.71,-29.61 1545.23,-31.18 1554.4,-36.49 1555.71,-29.61"/>
</g>
<!-- e_54&#45;&gt;e_40 -->
<g id="edge15" class="edge">
<title>e_54&#45;&gt;e_40</title>
<path fill="none" stroke="black" stroke-dasharray="5,2" d="M1711.69,-72C1688.32,-72 1653.8,-72 1627.41,-72"/>
<polygon fill="none" stroke="black" points="1627.44,-68.5 1617.44,-72 1627.44,-75.5 1627.44,-68.5"/>
</g>
<!-- e_63 -->
<g id="node18" class="node">
<title>e_63</title>
<path fill="#85cbd0" stroke="black" d="M2299.12,-128C2299.12,-128 2175.88,-128 2175.88,-128 2169.88,-128 2163.88,-122 2163.88,-116 2163.88,-116 2163.88,-104 2163.88,-104 2163.88,-98 2169.88,-92 2175.88,-92 2175.88,-92 2299.12,-92 2299.12,-92 2305.12,-92 2311.12,-98 2311.12,-104 2311.12,-104 2311.12,-116 2311.12,-116 2311.12,-122 2305.12,-128 2299.12,-128"/>
<text xml:space="preserve" text-anchor="middle" x="2237.5" y="-102.25" font-family="Times New Roman,serif" font-size="20.00">14 w * np.exp(t)</text>
</g>
<!-- e_63&#45;&gt;e_42 -->
<g id="edge19" class="edge">
<title>e_63&#45;&gt;e_42</title>
<path fill="none" stroke="black" stroke-dasharray="5,2" d="M2163.56,-111.6C2086.97,-113.28 1969.5,-115.86 1909.65,-117.17"/>
<polygon fill="none" stroke="black" points="1909.91,-113.66 1899.99,-117.38 1910.06,-120.66 1909.91,-113.66"/>
</g>
<!-- e_63&#45;&gt;e_62 -->
<g id="edge18" class="edge">
<title>e_63&#45;&gt;e_62</title>
<path fill="none" stroke="black" d="M2163.4,-97.71C2135.73,-93.07 2104.41,-87.8 2077.34,-83.25"/>
<polygon fill="black" stroke="black" points="2077.96,-79.81 2067.51,-81.6 2076.8,-86.71 2077.96,-79.81"/>
</g>
<!-- e_64 -->
<g id="node19" class="node">
<title>e_64</title>
<polygon fill="#3a85b9" stroke="black" points="2586.12,-96 2392.38,-96 2392.38,-60 2586.12,-60 2586.12,-96"/>
<text xml:space="preserve" text-anchor="middle" x="2489.25" y="-70.25" font-family="Times New Roman,serif" font-size="20.00" fill="white">14 sum(w * np.exp(t))</text>
</g>
<!-- e_64&#45;&gt;e_63 -->
<g id="edge21" class="edge">
<title>e_64&#45;&gt;e_63</title>
<path fill="none" stroke="black" d="M2392.05,-90.33C2369.12,-93.26 2344.84,-96.37 2322.51,-99.24"/>
<polygon fill="black" stroke="black" points="2322.36,-95.73 2312.88,-100.47 2323.24,-102.67 2322.36,-95.73"/>
</g>
<!-- e_55 -->
<g id="node20" class="node">
<title>e_55</title>
<path fill="#85cbd0" stroke="black" d="M2260.88,-74C2260.88,-74 2214.12,-74 2214.12,-74 2208.12,-74 2202.12,-68 2202.12,-62 2202.12,-62 2202.12,-50 2202.12,-50 2202.12,-44 2208.12,-38 2214.12,-38 2214.12,-38 2260.88,-38 2260.88,-38 2266.88,-38 2272.88,-44 2272.88,-50 2272.88,-50 2272.88,-62 2272.88,-62 2272.88,-68 2266.88,-74 2260.88,-74"/>
<text xml:space="preserve" text-anchor="middle" x="2237.5" y="-48.25" font-family="Times New Roman,serif" font-size="20.00">&#45;1 sum</text>
</g>
<!-- e_64&#45;&gt;e_55 -->
<g id="edge20" class="edge">
<title>e_64&#45;&gt;e_55</title>
<path fill="none" stroke="black" d="M2392.05,-69.53C2355.17,-66.28 2314.76,-62.72 2284.66,-60.07"/>
<polygon fill="black" stroke="black" points="2285.03,-56.59 2274.76,-59.19 2284.41,-63.56 2285.03,-56.59"/>
</g>
<!-- e_67 -->
<g id="node21" class="node">
<title>e_67</title>
<path fill="#85cbd0" stroke="black" d="M2892.25,-96C2892.25,-96 2677.5,-96 2677.5,-96 2671.5,-96 2665.5,-90 2665.5,-84 2665.5,-84 2665.5,-72 2665.5,-72 2665.5,-66 2671.5,-60 2677.5,-60 2677.5,-60 2892.25,-60 2892.25,-60 2898.25,-60 2904.25,-66 2904.25,-72 2904.25,-72 2904.25,-84 2904.25,-84 2904.25,-90 2898.25,-96 2892.25,-96"/>
<text xml:space="preserve" text-anchor="middle" x="2784.88" y="-70.25" font-family="Times New Roman,serif" font-size="20.00">14 sum(w * np.exp(t)) * 0.5</text>
</g>
<!-- e_67&#45;&gt;e_64 -->
<g id="edge22" class="edge">
<title>e_67&#45;&gt;e_64</title>
<path fill="none" stroke="black" d="M2665.29,-78C2642.93,-78 2619.66,-78 2597.66,-78"/>
<polygon fill="black" stroke="black" points="2597.8,-74.5 2587.8,-78 2597.8,-81.5 2597.8,-74.5"/>
</g>
<!-- e_76 -->
<g id="node22" class="node">
<title>e_76</title>
<polygon fill="#3a85b9" stroke="black" points="2335.5,-190 2139.5,-190 2139.5,-154 2335.5,-154 2335.5,-190"/>
<text xml:space="preserve" text-anchor="middle" x="2237.5" y="-164.25" font-family="Times New Roman,serif" font-size="20.00" fill="white">15 time.perf_counter()</text>
</g>
<!-- e_75 -->
<g id="node23" class="node">
<title>e_75</title>
<path fill="#85cbd0" stroke="black" d="M2088.62,-190C2088.62,-190 1930.12,-190 1930.12,-190 1924.12,-190 1918.12,-184 1918.12,-178 1918.12,-178 1918.12,-166 1918.12,-166 1918.12,-160 1924.12,-154 1930.12,-154 1930.12,-154 2088.62,-154 2088.62,-154 2094.62,-154 2100.62,-160 2100.62,-166 2100.62,-166 2100.62,-178 2100.62,-178 2100.62,-184 2094.62,-190 2088.62,-190"/>
<text xml:space="preserve" text-anchor="middle" x="2009.38" y="-164.25" font-family="Times New Roman,serif" font-size="20.00">15 time.perf_counter</text>
</g>
<!-- e_76&#45;&gt;e_75 -->
<g id="edge23" class="edge">
<title>e_76&#45;&gt;e_75</title>
<path fill="none" stroke="black" d="M2139.29,-172C2130.37,-172 2121.31,-172 2112.35,-172"/>
<polygon fill="black" stroke="black" points="2112.58,-168.5 2102.58,-172 2112.58,-175.5 2112.58,-168.5"/>
</g>
<!-- e_78 -->
<g id="node24" class="node">
<title>e_78</title>
<path fill="#85cbd0" stroke="black" d="M2594,-223C2594,-223 2384.5,-223 2384.5,-223 2378.5,-223 2372.5,-217 2372.5,-211 2372.5,-211 2372.5,-199 2372.5,-199 2372.5,-193 2378.5,-187 2384.5,-187 2384.5,-187 2594,-187 2594,-187 2600,-187 2606,-193 2606,-199 2606,-199 2606,-211 2606,-211 2606,-217 2600,-223 2594,-223"/>
<text xml:space="preserve" text-anchor="middle" x="2489.25" y="-197.25" font-family="Times New Roman,serif" font-size="20.00">15 time.perf_counter() &#45; dti</text>
</g>
<!-- e_78&#45;&gt;e_24 -->
<g id="edge25" class="edge">
<title>e_78&#45;&gt;e_24</title>
<path fill="none" stroke="black" stroke-dasharray="5,2" d="M2372.15,-214.76C2337.4,-217.68 2301.74,-220.68 2276,-222.85"/>
<polygon fill="none" stroke="black" points="2275.74,-219.36 2266.07,-223.68 2276.33,-226.33 2275.74,-219.36"/>
</g>
<!-- e_78&#45;&gt;e_76 -->
<g id="edge24" class="edge">
<title>e_78&#45;&gt;e_76</title>
<path fill="none" stroke="black" d="M2372.15,-189.66C2363.83,-188.56 2355.46,-187.45 2347.18,-186.36"/>
<polygon fill="black" stroke="black" points="2347.84,-182.92 2337.47,-185.08 2346.93,-189.86 2347.84,-182.92"/>
</g>
<!-- e_79 -->
<g id="node25" class="node">
<title>e_79</title>
<polygon fill="#3a85b9" stroke="black" points="2926.75,-189 2643,-189 2643,-153 2926.75,-153 2926.75,-189"/>
<text xml:space="preserve" text-anchor="middle" x="2784.88" y="-163.25" font-family="Times New Roman,serif" font-size="20.00" fill="white">15 print(time.perf_counter() &#45; dti)</text>
</g>
<!-- e_79&#45;&gt;e_78 -->
<g id="edge27" class="edge">
<title>e_79&#45;&gt;e_78</title>
<path fill="none" stroke="black" d="M2642.65,-187.35C2634.27,-188.32 2625.86,-189.3 2617.54,-190.26"/>
<polygon fill="black" stroke="black" points="2617.29,-186.77 2607.76,-191.39 2618.09,-193.72 2617.29,-186.77"/>
</g>
<!-- e_72 -->
<g id="node26" class="node">
<title>e_72</title>
<path fill="#85cbd0" stroke="black" d="M2514.5,-169C2514.5,-169 2464,-169 2464,-169 2458,-169 2452,-163 2452,-157 2452,-157 2452,-145 2452,-145 2452,-139 2458,-133 2464,-133 2464,-133 2514.5,-133 2514.5,-133 2520.5,-133 2526.5,-139 2526.5,-145 2526.5,-145 2526.5,-157 2526.5,-157 2526.5,-163 2520.5,-169 2514.5,-169"/>
<text xml:space="preserve" text-anchor="middle" x="2489.25" y="-143.25" font-family="Times New Roman,serif" font-size="20.00">&#45;1 print</text>
</g>
<!-- e_79&#45;&gt;e_72 -->
<g id="edge26" class="edge">
<title>e_79&#45;&gt;e_72</title>
<path fill="none" stroke="black" d="M2642.65,-161.38C2604.95,-158.81 2566.75,-156.21 2538.03,-154.25"/>
<polygon fill="black" stroke="black" points="2538.45,-150.77 2528.23,-153.59 2537.97,-157.76 2538.45,-150.77"/>
</g>
</g>
</svg>
