<?xml version="1.0" encoding="UTF-8" standalone="no"?>
<!DOCTYPE svg PUBLIC "-//W3C//DTD SVG 1.1//EN"
 "http://www.w3.org/Graphics/SVG/1.1/DTD/svg11.dtd">
<!-- Generated by graphviz version 14.1.2 (20260124.0452)
 -->
<!-- Title: e_1 Pages: 1 -->
<svg width="1573pt" height="361pt"
 viewBox="0.00 0.00 1573.00 361.00" xmlns="http://www.w3.org/2000/svg" xmlns:xlink="http://www.w3.org/1999/xlink">
<g id="graph0" class="graph" transform="scale(1 1) rotate(0) translate(4 357)">
<title>e_1</title>
<polygon fill="white" stroke="none" points="-4,4 -4,-357 1568.75,-357 1568.75,4 -4,4"/>
<!-- e_20 -->
<g id="node1" class="node">
<title>e_20</title>
<polygon fill="#3a85b9" stroke="black" points="894.62,-136 732.38,-136 732.38,-100 894.62,-100 894.62,-136"/>
<text xml:space="preserve" text-anchor="middle" x="813.5" y="-110.25" font-family="Times New Roman,serif" font-size="20.00" fill="white">21 int(sys.argv[1])</text>
</g>
<!-- e_12 -->
<g id="node2" class="node">
<title>e_12</title>
<path fill="#85cbd0" stroke="black" d="M46,-159C46,-159 12,-159 12,-159 6,-159 0,-153 0,-147 0,-147 0,-135 0,-135 0,-129 6,-123 12,-123 12,-123 46,-123 46,-123 52,-123 58,-129 58,-135 58,-135 58,-147 58,-147 58,-153 52,-159 46,-159"/>
<text xml:space="preserve" text-anchor="middle" x="29" y="-133.25" font-family="Times New Roman,serif" font-size="20.00">&#45;1 int</text>
</g>
<!-- e_20&#45;&gt;e_12 -->
<g id="edge3" class="edge">
<title>e_20&#45;&gt;e_12</title>
<path fill="none" stroke="black" d="M732.07,-120.36C566.38,-125.23 192.25,-136.23 69.69,-139.83"/>
<polygon fill="black" stroke="black" points="69.71,-136.33 59.82,-140.12 69.92,-143.33 69.71,-136.33"/>
<text xml:space="preserve" text-anchor="middle" x="380" y="-134.55" font-family="Times New Roman,serif" font-size="14.00">.__class__</text>
</g>
<!-- e_19 -->
<g id="node8" class="node">
<title>e_19</title>
<path fill="#85cbd0" stroke="black" d="M576.75,-90C576.75,-90 472.25,-90 472.25,-90 466.25,-90 460.25,-84 460.25,-78 460.25,-78 460.25,-66 460.25,-66 460.25,-60 466.25,-54 472.25,-54 472.25,-54 576.75,-54 576.75,-54 582.75,-54 588.75,-60 588.75,-66 588.75,-66 588.75,-78 588.75,-78 588.75,-84 582.75,-90 576.75,-90"/>
<text xml:space="preserve" text-anchor="middle" x="524.5" y="-64.25" font-family="Times New Roman,serif" font-size="20.00">21 sys.argv[1]</text>
</g>
<!-- e_20&#45;&gt;e_19 -->
<g id="edge4" class="edge">
<title>e_20&#45;&gt;e_19</title>
<path fill="none" stroke="black" d="M732.17,-105.13C690.79,-98.49 640.65,-90.46 600.13,-83.96"/>
<polygon fill="black" stroke="black" points="600.89,-80.54 590.46,-82.41 599.78,-87.45 600.89,-80.54"/>
</g>
<!-- e_18 -->
<g id="node3" class="node">
<title>e_18</title>
<path fill="#85cbd0" stroke="black" d="M257.25,-90C257.25,-90 227.25,-90 227.25,-90 221.25,-90 215.25,-84 215.25,-78 215.25,-78 215.25,-66 215.25,-66 215.25,-60 221.25,-54 227.25,-54 227.25,-54 257.25,-54 257.25,-54 263.25,-54 269.25,-60 269.25,-66 269.25,-66 269.25,-78 269.25,-78 269.25,-84 263.25,-90 257.25,-90"/>
<text xml:space="preserve" text-anchor="middle" x="242.25" y="-64.25" font-family="Times New Roman,serif" font-size="20.00">21 1</text>
</g>
<!-- e_18&#45;&gt;e_12 -->
<g id="edge1" class="edge">
<title>e_18&#45;&gt;e_12</title>
<path fill="none" stroke="black" d="M214.96,-68.67C180.87,-65.59 120.54,-64.48 76,-87.5 64.54,-93.42 54.72,-103.53 47.13,-113.38"/>
<polygon fill="black" stroke="black" points="44.4,-111.18 41.44,-121.36 50.1,-115.25 44.4,-111.18"/>
<text xml:space="preserve" text-anchor="middle" x="104.5" y="-90.7" font-family="Times New Roman,serif" font-size="14.00">.__class__</text>
</g>
<!-- e_34 -->
<g id="node4" class="node">
<title>e_34</title>
<path fill="#85cbd0" stroke="black" d="M265.25,-273C265.25,-273 219.25,-273 219.25,-273 213.25,-273 207.25,-267 207.25,-261 207.25,-261 207.25,-249 207.25,-249 207.25,-243 213.25,-237 219.25,-237 219.25,-237 265.25,-237 265.25,-237 271.25,-237 277.25,-243 277.25,-249 277.25,-249 277.25,-261 277.25,-261 277.25,-267 271.25,-273 265.25,-273"/>
<text xml:space="preserve" text-anchor="middle" x="242.25" y="-247.25" font-family="Times New Roman,serif" font-size="20.00">18 100</text>
</g>
<!-- e_34&#45;&gt;e_12 -->
<g id="edge18" class="edge">
<title>e_34&#45;&gt;e_12</title>
<path fill="none" stroke="black" d="M206.96,-256.44C171.05,-256.23 114.62,-250.89 76,-223 58.14,-210.1 46.32,-188.01 39.14,-170"/>
<polygon fill="black" stroke="black" points="42.52,-169.03 35.78,-160.86 35.95,-171.45 42.52,-169.03"/>
<text xml:space="preserve" text-anchor="middle" x="104.5" y="-250.27" font-family="Times New Roman,serif" font-size="14.00">.__class__</text>
</g>
<!-- e_36 -->
<g id="node5" class="node">
<title>e_36</title>
<path fill="#85cbd0" stroke="black" d="M971.5,-182C971.5,-182 941.5,-182 941.5,-182 935.5,-182 929.5,-176 929.5,-170 929.5,-170 929.5,-158 929.5,-158 929.5,-152 935.5,-146 941.5,-146 941.5,-146 971.5,-146 971.5,-146 977.5,-146 983.5,-152 983.5,-158 983.5,-158 983.5,-170 983.5,-170 983.5,-176 977.5,-182 971.5,-182"/>
<text xml:space="preserve" text-anchor="middle" x="956.5" y="-156.25" font-family="Times New Roman,serif" font-size="20.00">18 1</text>
</g>
<!-- e_36&#45;&gt;e_12 -->
<g id="edge19" class="edge">
<title>e_36&#45;&gt;e_12</title>
<path fill="none" stroke="black" d="M929.13,-164C878.77,-164 765.41,-164 670,-164 670,-164 670,-164 241.25,-164 167.54,-164 149,-160.2 76,-150 73.82,-149.7 71.6,-149.36 69.35,-148.99"/>
<polygon fill="black" stroke="black" points="70.08,-145.57 59.63,-147.27 68.87,-152.46 70.08,-145.57"/>
<text xml:space="preserve" text-anchor="middle" x="524.5" y="-167.2" font-family="Times New Roman,serif" font-size="14.00">.__class__</text>
</g>
<!-- e_37 -->
<g id="node6" class="node">
<title>e_37</title>
<path fill="#85cbd0" stroke="black" d="M1449.62,-182C1449.62,-182 1391.62,-182 1391.62,-182 1385.62,-182 1379.62,-176 1379.62,-170 1379.62,-170 1379.62,-158 1379.62,-158 1379.62,-152 1385.62,-146 1391.62,-146 1391.62,-146 1449.62,-146 1449.62,-146 1455.62,-146 1461.62,-152 1461.62,-158 1461.62,-158 1461.62,-170 1461.62,-170 1461.62,-176 1455.62,-182 1449.62,-182"/>
<text xml:space="preserve" text-anchor="middle" x="1420.62" y="-156.25" font-family="Times New Roman,serif" font-size="20.00">18 n + 1</text>
</g>
<!-- e_37&#45;&gt;e_12 -->
<g id="edge9" class="edge">
<title>e_37&#45;&gt;e_12</title>
<path fill="none" stroke="black" d="M1379.41,-173.99C1322.41,-187.24 1214.67,-209 1121.5,-209 1121.5,-209 1121.5,-209 241.25,-209 165.58,-209 146.08,-196.56 76,-168 73.37,-166.93 70.72,-165.73 68.08,-164.44"/>
<polygon fill="black" stroke="black" points="69.88,-161.44 59.4,-159.88 66.62,-167.63 69.88,-161.44"/>
<text xml:space="preserve" text-anchor="middle" x="669" y="-212.2" font-family="Times New Roman,serif" font-size="14.00">.__class__</text>
</g>
<!-- e_37&#45;&gt;e_36 -->
<g id="edge8" class="edge">
<title>e_37&#45;&gt;e_36</title>
<path fill="none" stroke="black" d="M1379.42,-164C1291.13,-164 1081.3,-164 995.28,-164"/>
<polygon fill="black" stroke="black" points="995.5,-160.5 985.5,-164 995.5,-167.5 995.5,-160.5"/>
</g>
<!-- e_21 -->
<g id="node9" class="node">
<title>e_21</title>
<path fill="#85cbd0" stroke="black" d="M1135.5,-136C1135.5,-136 1105.5,-136 1105.5,-136 1099.5,-136 1093.5,-130 1093.5,-124 1093.5,-124 1093.5,-112 1093.5,-112 1093.5,-106 1099.5,-100 1105.5,-100 1105.5,-100 1135.5,-100 1135.5,-100 1141.5,-100 1147.5,-106 1147.5,-112 1147.5,-112 1147.5,-124 1147.5,-124 1147.5,-130 1141.5,-136 1135.5,-136"/>
<text xml:space="preserve" text-anchor="middle" x="1120.5" y="-110.25" font-family="Times New Roman,serif" font-size="20.00">21 n</text>
</g>
<!-- e_37&#45;&gt;e_21 -->
<g id="edge10" class="edge">
<title>e_37&#45;&gt;e_21</title>
<path fill="none" stroke="black" stroke-dasharray="5,2" d="M1379.42,-157.8C1321.55,-148.87 1215.55,-132.51 1159.14,-123.81"/>
<polygon fill="none" stroke="black" points="1159.81,-120.37 1149.39,-122.3 1158.74,-127.29 1159.81,-120.37"/>
</g>
<!-- e_38 -->
<g id="node7" class="node">
<title>e_38</title>
<path fill="#85cbd0" stroke="black" d="M265.25,-36C265.25,-36 219.25,-36 219.25,-36 213.25,-36 207.25,-30 207.25,-24 207.25,-24 207.25,-12 207.25,-12 207.25,-6 213.25,0 219.25,0 219.25,0 265.25,0 265.25,0 271.25,0 277.25,-6 277.25,-12 277.25,-12 277.25,-24 277.25,-24 277.25,-30 271.25,-36 265.25,-36"/>
<text xml:space="preserve" text-anchor="middle" x="242.25" y="-10.25" font-family="Times New Roman,serif" font-size="20.00">18 100</text>
</g>
<!-- e_38&#45;&gt;e_12 -->
<g id="edge20" class="edge">
<title>e_38&#45;&gt;e_12</title>
<path fill="none" stroke="black" d="M207.04,-16.1C170.95,-15.86 114.11,-20.73 76,-49.5 55.86,-64.71 43.91,-91.18 37.26,-111.75"/>
<polygon fill="black" stroke="black" points="33.92,-110.72 34.45,-121.3 40.63,-112.7 33.92,-110.72"/>
<text xml:space="preserve" text-anchor="middle" x="104.5" y="-52.7" font-family="Times New Roman,serif" font-size="14.00">.__class__</text>
</g>
<!-- e_19&#45;&gt;e_18 -->
<g id="edge2" class="edge">
<title>e_19&#45;&gt;e_18</title>
<path fill="none" stroke="black" d="M459.91,-72C404.76,-72 326.8,-72 280.98,-72"/>
<polygon fill="black" stroke="black" points="281.03,-68.5 271.03,-72 281.03,-75.5 281.03,-68.5"/>
</g>
<!-- e_21&#45;&gt;e_20 -->
<g id="edge5" class="edge">
<title>e_21&#45;&gt;e_20</title>
<path fill="none" stroke="black" d="M1093.23,-118C1052.13,-118 970.68,-118 906.39,-118"/>
<polygon fill="none" stroke="black" points="906.52,-114.5 896.52,-118 906.52,-121.5 906.52,-114.5"/>
</g>
<!-- e_25 -->
<g id="node10" class="node">
<title>e_25</title>
<polygon fill="#3a85b9" stroke="black" points="622.5,-353 426.5,-353 426.5,-317 622.5,-317 622.5,-353"/>
<text xml:space="preserve" text-anchor="middle" x="524.5" y="-327.25" font-family="Times New Roman,serif" font-size="20.00" fill="white">22 time.perf_counter()</text>
</g>
<!-- e_23 -->
<g id="node11" class="node">
<title>e_23</title>
<path fill="#85cbd0" stroke="black" d="M321.5,-353C321.5,-353 163,-353 163,-353 157,-353 151,-347 151,-341 151,-341 151,-329 151,-329 151,-323 157,-317 163,-317 163,-317 321.5,-317 321.5,-317 327.5,-317 333.5,-323 333.5,-329 333.5,-329 333.5,-341 333.5,-341 333.5,-347 327.5,-353 321.5,-353"/>
<text xml:space="preserve" text-anchor="middle" x="242.25" y="-327.25" font-family="Times New Roman,serif" font-size="20.00">22 time.perf_counter</text>
</g>
<!-- e_25&#45;&gt;e_23 -->
<g id="edge6" class="edge">
<title>e_25&#45;&gt;e_23</title>
<path fill="none" stroke="black" d="M426.27,-335C399.99,-335 371.48,-335 344.95,-335"/>
<polygon fill="black" stroke="black" points="345.24,-331.5 335.24,-335 345.24,-338.5 345.24,-331.5"/>
</g>
<!-- e_27 -->
<g id="node12" class="node">
<title>e_27</title>
<path fill="#85cbd0" stroke="black" d="M834.25,-353C834.25,-353 792.75,-353 792.75,-353 786.75,-353 780.75,-347 780.75,-341 780.75,-341 780.75,-329 780.75,-329 780.75,-323 786.75,-317 792.75,-317 792.75,-317 834.25,-317 834.25,-317 840.25,-317 846.25,-323 846.25,-329 846.25,-329 846.25,-341 846.25,-341 846.25,-347 840.25,-353 834.25,-353"/>
<text xml:space="preserve" text-anchor="middle" x="813.5" y="-327.25" font-family="Times New Roman,serif" font-size="20.00">22 dt1</text>
</g>
<!-- e_27&#45;&gt;e_25 -->
<g id="edge7" class="edge">
<title>e_27&#45;&gt;e_25</title>
<path fill="none" stroke="black" d="M780.41,-335C745.12,-335 686.47,-335 634.33,-335"/>
<polygon fill="none" stroke="black" points="634.48,-331.5 624.48,-335 634.48,-338.5 634.48,-331.5"/>
</g>
<!-- e_30 -->
<g id="node13" class="node">
<title>e_30</title>
<polygon fill="#3a85b9" stroke="black" points="1472.5,-105 1368.75,-105 1368.75,-69 1472.5,-69 1472.5,-105"/>
<text xml:space="preserve" text-anchor="middle" x="1420.62" y="-79.25" font-family="Times New Roman,serif" font-size="20.00" fill="white">23 main(n)</text>
</g>
<!-- e_30&#45;&gt;e_21 -->
<g id="edge12" class="edge">
<title>e_30&#45;&gt;e_21</title>
<path fill="none" stroke="black" d="M1368.38,-92.33C1308.79,-98.53 1211.86,-108.6 1158.92,-114.11"/>
<polygon fill="black" stroke="black" points="1158.79,-110.6 1149.21,-115.12 1159.52,-117.57 1158.79,-110.6"/>
</g>
<!-- e_5 -->
<g id="node14" class="node">
<title>e_5</title>
<path fill="#85cbd0" stroke="black" d="M1148.75,-82C1148.75,-82 1092.25,-82 1092.25,-82 1086.25,-82 1080.25,-76 1080.25,-70 1080.25,-70 1080.25,-58 1080.25,-58 1080.25,-52 1086.25,-46 1092.25,-46 1092.25,-46 1148.75,-46 1148.75,-46 1154.75,-46 1160.75,-52 1160.75,-58 1160.75,-58 1160.75,-70 1160.75,-70 1160.75,-76 1154.75,-82 1148.75,-82"/>
<text xml:space="preserve" text-anchor="middle" x="1120.5" y="-56.25" font-family="Times New Roman,serif" font-size="20.00">17 main</text>
</g>
<!-- e_30&#45;&gt;e_5 -->
<g id="edge11" class="edge">
<title>e_30&#45;&gt;e_5</title>
<path fill="none" stroke="black" d="M1368.38,-83.05C1313.51,-78.81 1226.99,-72.14 1172.3,-67.92"/>
<polygon fill="black" stroke="black" points="1172.88,-64.45 1162.64,-67.17 1172.35,-71.43 1172.88,-64.45"/>
</g>
<!-- e_45 -->
<g id="node15" class="node">
<title>e_45</title>
<polygon fill="#3a85b9" stroke="black" points="911.5,-299 715.5,-299 715.5,-263 911.5,-263 911.5,-299"/>
<text xml:space="preserve" text-anchor="middle" x="813.5" y="-273.25" font-family="Times New Roman,serif" font-size="20.00" fill="white">24 time.perf_counter()</text>
</g>
<!-- e_44 -->
<g id="node16" class="node">
<title>e_44</title>
<path fill="#85cbd0" stroke="black" d="M603.75,-299C603.75,-299 445.25,-299 445.25,-299 439.25,-299 433.25,-293 433.25,-287 433.25,-287 433.25,-275 433.25,-275 433.25,-269 439.25,-263 445.25,-263 445.25,-263 603.75,-263 603.75,-263 609.75,-263 615.75,-269 615.75,-275 615.75,-275 615.75,-287 615.75,-287 615.75,-293 609.75,-299 603.75,-299"/>
<text xml:space="preserve" text-anchor="middle" x="524.5" y="-273.25" font-family="Times New Roman,serif" font-size="20.00">24 time.perf_counter</text>
</g>
<!-- e_45&#45;&gt;e_44 -->
<g id="edge13" class="edge">
<title>e_45&#45;&gt;e_44</title>
<path fill="none" stroke="black" d="M715.33,-281C686.91,-281 655.77,-281 627.08,-281"/>
<polygon fill="black" stroke="black" points="627.31,-277.5 617.31,-281 627.31,-284.5 627.31,-277.5"/>
</g>
<!-- e_47 -->
<g id="node17" class="node">
<title>e_47</title>
<path fill="#85cbd0" stroke="black" d="M1227.5,-327C1227.5,-327 1013.5,-327 1013.5,-327 1007.5,-327 1001.5,-321 1001.5,-315 1001.5,-315 1001.5,-303 1001.5,-303 1001.5,-297 1007.5,-291 1013.5,-291 1013.5,-291 1227.5,-291 1227.5,-291 1233.5,-291 1239.5,-297 1239.5,-303 1239.5,-303 1239.5,-315 1239.5,-315 1239.5,-321 1233.5,-327 1227.5,-327"/>
<text xml:space="preserve" text-anchor="middle" x="1120.5" y="-301.25" font-family="Times New Roman,serif" font-size="20.00">24 time.perf_counter() &#45; dt1</text>
</g>
<!-- e_47&#45;&gt;e_27 -->
<g id="edge15" class="edge">
<title>e_47&#45;&gt;e_27</title>
<path fill="none" stroke="black" stroke-dasharray="5,2" d="M1001.14,-319.09C950.83,-323.38 895.29,-328.11 857.98,-331.29"/>
<polygon fill="none" stroke="black" points="857.72,-327.8 848.05,-332.14 858.31,-334.78 857.72,-327.8"/>
</g>
<!-- e_47&#45;&gt;e_45 -->
<g id="edge14" class="edge">
<title>e_47&#45;&gt;e_45</title>
<path fill="none" stroke="black" d="M1001.14,-298.13C975.32,-295.76 948.13,-293.27 922.73,-290.94"/>
<polygon fill="black" stroke="black" points="923.37,-287.48 913.09,-290.05 922.73,-294.45 923.37,-287.48"/>
</g>
<!-- e_48 -->
<g id="node18" class="node">
<title>e_48</title>
<polygon fill="#3a85b9" stroke="black" points="1564.75,-292 1276.5,-292 1276.5,-256 1564.75,-256 1564.75,-292"/>
<text xml:space="preserve" text-anchor="middle" x="1420.62" y="-266.25" font-family="Times New Roman,serif" font-size="20.00" fill="white">24 print(time.perf_counter() &#45; dt1)</text>
</g>
<!-- e_48&#45;&gt;e_47 -->
<g id="edge17" class="edge">
<title>e_48&#45;&gt;e_47</title>
<path fill="none" stroke="black" d="M1276.24,-290.83C1267.83,-291.82 1259.4,-292.81 1251.05,-293.79"/>
<polygon fill="black" stroke="black" points="1250.75,-290.3 1241.22,-294.94 1251.56,-297.25 1250.75,-290.3"/>
</g>
<!-- e_41 -->
<g id="node19" class="node">
<title>e_41</title>
<path fill="#85cbd0" stroke="black" d="M1145.75,-273C1145.75,-273 1095.25,-273 1095.25,-273 1089.25,-273 1083.25,-267 1083.25,-261 1083.25,-261 1083.25,-249 1083.25,-249 1083.25,-243 1089.25,-237 1095.25,-237 1095.25,-237 1145.75,-237 1145.75,-237 1151.75,-237 1157.75,-243 1157.75,-249 1157.75,-249 1157.75,-261 1157.75,-261 1157.75,-267 1151.75,-273 1145.75,-273"/>
<text xml:space="preserve" text-anchor="middle" x="1120.5" y="-247.25" font-family="Times New Roman,serif" font-size="20.00">&#45;1 print</text>
</g>
<!-- e_48&#45;&gt;e_41 -->
<g id="edge16" class="edge">
<title>e_48&#45;&gt;e_41</title>
<path fill="none" stroke="black" d="M1276.24,-264.86C1237.82,-262.41 1198.91,-259.93 1169.71,-258.07"/>
<polygon fill="black" stroke="black" points="1169.94,-254.58 1159.73,-257.44 1169.49,-261.57 1169.94,-254.58"/>
</g>
</g>
</svg>
