<?xml version="1.0" encoding="UTF-8" standalone="no"?>
<!DOCTYPE svg PUBLIC "-//W3C//DTD SVG 1.1//EN"
 "http://www.w3.org/Graphics/SVG/1.1/DTD/svg11.dtd">
<!-- Generated by graphviz version 14.1.2 (20260124.0452)
 -->
<!-- Title: e_1 Pages: 1 -->
<svg width="1766pt" height="349pt"
 viewBox="0.00 0.00 1766.00 349.00" xmlns="http://www.w3.org/2000/svg" xmlns:xlink="http://www.w3.org/1999/xlink">
<g id="graph0" class="graph" transform="scale(1 1) rotate(0) translate(4 345)">
<title>e_1</title>
<polygon fill="white" stroke="none" points="-4,4 -4,-345 1761.75,-345 1761.75,4 -4,4"/>
<!-- e_12 -->
<g id="node1" class="node">
<title>e_12</title>
<polygon fill="#3a85b9" stroke="black" points="733.12,-103 580.62,-103 580.62,-67 733.12,-67 733.12,-103"/>
<text xml:space="preserve" text-anchor="middle" x="656.88" y="-77.25" font-family="Times New Roman,serif" font-size="20.00" fill="white">6 int(sys.argv[1])</text>
</g>
<!-- e_2 -->
<g id="node2" class="node">
<title>e_2</title>
<path fill="#85cbd0" stroke="black" d="M46,-130C46,-130 12,-130 12,-130 6,-130 0,-124 0,-118 0,-118 0,-106 0,-106 0,-100 6,-94 12,-94 12,-94 46,-94 46,-94 52,-94 58,-100 58,-106 58,-106 58,-118 58,-118 58,-124 52,-130 46,-130"/>
<text xml:space="preserve" text-anchor="middle" x="29" y="-104.25" font-family="Times New Roman,serif" font-size="20.00">&#45;1 int</text>
</g>
<!-- e_12&#45;&gt;e_2 -->
<g id="edge2" class="edge">
<title>e_12&#45;&gt;e_2</title>
<path fill="none" stroke="black" d="M580.38,-86.47C493.97,-88.36 348.22,-92.17 223,-98.5 169.95,-101.18 108.79,-105.7 69.79,-108.77"/>
<polygon fill="black" stroke="black" points="69.63,-105.27 59.94,-109.55 70.18,-112.25 69.63,-105.27"/>
<text xml:space="preserve" text-anchor="middle" x="251.5" y="-101.7" font-family="Times New Roman,serif" font-size="14.00">.__class__</text>
</g>
<!-- e_10 -->
<g id="node8" class="node">
<title>e_10</title>
<path fill="#85cbd0" stroke="black" d="M431.75,-64C431.75,-64 337,-64 337,-64 331,-64 325,-58 325,-52 325,-52 325,-40 325,-40 325,-34 331,-28 337,-28 337,-28 431.75,-28 431.75,-28 437.75,-28 443.75,-34 443.75,-40 443.75,-40 443.75,-52 443.75,-52 443.75,-58 437.75,-64 431.75,-64"/>
<text xml:space="preserve" text-anchor="middle" x="384.38" y="-38.25" font-family="Times New Roman,serif" font-size="20.00">6 sys.argv[1]</text>
</g>
<!-- e_12&#45;&gt;e_10 -->
<g id="edge3" class="edge">
<title>e_12&#45;&gt;e_10</title>
<path fill="none" stroke="black" d="M580.17,-74.08C540.9,-68.42 493.28,-61.56 454.95,-56.03"/>
<polygon fill="black" stroke="black" points="455.78,-52.61 445.38,-54.65 454.78,-59.54 455.78,-52.61"/>
</g>
<!-- e_9 -->
<g id="node3" class="node">
<title>e_9</title>
<path fill="#85cbd0" stroke="black" d="M193,-64C193,-64 163,-64 163,-64 157,-64 151,-58 151,-52 151,-52 151,-40 151,-40 151,-34 157,-28 163,-28 163,-28 193,-28 193,-28 199,-28 205,-34 205,-40 205,-40 205,-52 205,-52 205,-58 199,-64 193,-64"/>
<text xml:space="preserve" text-anchor="middle" x="178" y="-38.25" font-family="Times New Roman,serif" font-size="20.00">6 1</text>
</g>
<!-- e_9&#45;&gt;e_2 -->
<g id="edge19" class="edge">
<title>e_9&#45;&gt;e_2</title>
<path fill="none" stroke="black" d="M150.59,-45.32C129.28,-45.85 99.14,-49.09 76,-61.5 65.61,-67.07 56.34,-75.94 48.91,-84.7"/>
<polygon fill="black" stroke="black" points="46.23,-82.44 42.78,-92.45 51.72,-86.77 46.23,-82.44"/>
<text xml:space="preserve" text-anchor="middle" x="104.5" y="-64.7" font-family="Times New Roman,serif" font-size="14.00">.__class__</text>
</g>
<!-- e_22 -->
<g id="node4" class="node">
<title>e_22</title>
<path fill="#85cbd0" stroke="black" d="M816.25,-231C816.25,-231 780,-231 780,-231 774,-231 768,-225 768,-219 768,-219 768,-207 768,-207 768,-201 774,-195 780,-195 780,-195 816.25,-195 816.25,-195 822.25,-195 828.25,-201 828.25,-207 828.25,-207 828.25,-219 828.25,-219 828.25,-225 822.25,-231 816.25,-231"/>
<text xml:space="preserve" text-anchor="middle" x="798.12" y="-205.25" font-family="Times New Roman,serif" font-size="20.00">8 100</text>
</g>
<!-- e_22&#45;&gt;e_2 -->
<g id="edge20" class="edge">
<title>e_22&#45;&gt;e_2</title>
<path fill="none" stroke="black" d="M767.82,-213.52C717.01,-214.38 609.28,-216 518.25,-216 518.25,-216 518.25,-216 177,-216 129.91,-216 113.36,-212.67 76,-184 61.32,-172.74 50.03,-155.36 42.3,-140.5"/>
<polygon fill="black" stroke="black" points="45.5,-139.06 37.98,-131.6 39.21,-142.13 45.5,-139.06"/>
<text xml:space="preserve" text-anchor="middle" x="384.38" y="-219.2" font-family="Times New Roman,serif" font-size="14.00">.__class__</text>
</g>
<!-- e_24 -->
<g id="node5" class="node">
<title>e_24</title>
<path fill="#85cbd0" stroke="black" d="M532.25,-147C532.25,-147 502.25,-147 502.25,-147 496.25,-147 490.25,-141 490.25,-135 490.25,-135 490.25,-123 490.25,-123 490.25,-117 496.25,-111 502.25,-111 502.25,-111 532.25,-111 532.25,-111 538.25,-111 544.25,-117 544.25,-123 544.25,-123 544.25,-135 544.25,-135 544.25,-141 538.25,-147 532.25,-147"/>
<text xml:space="preserve" text-anchor="middle" x="517.25" y="-121.25" font-family="Times New Roman,serif" font-size="20.00">8 1</text>
</g>
<!-- e_24&#45;&gt;e_2 -->
<g id="edge21" class="edge">
<title>e_24&#45;&gt;e_2</title>
<path fill="none" stroke="black" d="M489.76,-128.07C409,-125.25 165.55,-116.74 69.54,-113.38"/>
<polygon fill="black" stroke="black" points="69.95,-109.89 59.84,-113.04 69.71,-116.89 69.95,-109.89"/>
<text xml:space="preserve" text-anchor="middle" x="251.5" y="-123.93" font-family="Times New Roman,serif" font-size="14.00">.__class__</text>
</g>
<!-- e_25 -->
<g id="node6" class="node">
<title>e_25</title>
<path fill="#85cbd0" stroke="black" d="M1281.62,-149C1281.62,-149 1233.38,-149 1233.38,-149 1227.38,-149 1221.38,-143 1221.38,-137 1221.38,-137 1221.38,-125 1221.38,-125 1221.38,-119 1227.38,-113 1233.38,-113 1233.38,-113 1281.62,-113 1281.62,-113 1287.62,-113 1293.62,-119 1293.62,-125 1293.62,-125 1293.62,-137 1293.62,-137 1293.62,-143 1287.62,-149 1281.62,-149"/>
<text xml:space="preserve" text-anchor="middle" x="1257.5" y="-123.25" font-family="Times New Roman,serif" font-size="20.00">8 n + 1</text>
</g>
<!-- e_25&#45;&gt;e_2 -->
<g id="edge8" class="edge">
<title>e_25&#45;&gt;e_2</title>
<path fill="none" stroke="black" d="M1221.2,-138.34C1163.68,-149.63 1046,-170 945.25,-170 945.25,-170 945.25,-170 177,-170 137.73,-170 96.42,-151.87 67.63,-135.88"/>
<polygon fill="black" stroke="black" points="69.72,-133.05 59.31,-131.1 66.24,-139.12 69.72,-133.05"/>
<text xml:space="preserve" text-anchor="middle" x="517.25" y="-173.2" font-family="Times New Roman,serif" font-size="14.00">.__class__</text>
</g>
<!-- e_25&#45;&gt;e_24 -->
<g id="edge7" class="edge">
<title>e_25&#45;&gt;e_24</title>
<path fill="none" stroke="black" d="M1220.89,-130.9C1096.73,-130.57 683.53,-129.45 556.04,-129.1"/>
<polygon fill="black" stroke="black" points="556.14,-125.6 546.13,-129.08 556.12,-132.6 556.14,-125.6"/>
</g>
<!-- e_13 -->
<g id="node9" class="node">
<title>e_13</title>
<path fill="#85cbd0" stroke="black" d="M959.25,-103C959.25,-103 929.25,-103 929.25,-103 923.25,-103 917.25,-97 917.25,-91 917.25,-91 917.25,-79 917.25,-79 917.25,-73 923.25,-67 929.25,-67 929.25,-67 959.25,-67 959.25,-67 965.25,-67 971.25,-73 971.25,-79 971.25,-79 971.25,-91 971.25,-91 971.25,-97 965.25,-103 959.25,-103"/>
<text xml:space="preserve" text-anchor="middle" x="944.25" y="-77.25" font-family="Times New Roman,serif" font-size="20.00">6 n</text>
</g>
<!-- e_25&#45;&gt;e_13 -->
<g id="edge9" class="edge">
<title>e_25&#45;&gt;e_13</title>
<path fill="none" stroke="black" stroke-dasharray="5,2" d="M1221.1,-125.77C1161.95,-117.03 1043.54,-99.53 982.92,-90.57"/>
<polygon fill="none" stroke="black" points="983.5,-87.11 973.09,-89.12 982.47,-94.04 983.5,-87.11"/>
</g>
<!-- e_26 -->
<g id="node7" class="node">
<title>e_26</title>
<path fill="#85cbd0" stroke="black" d="M1108.5,-44C1108.5,-44 1072.25,-44 1072.25,-44 1066.25,-44 1060.25,-38 1060.25,-32 1060.25,-32 1060.25,-20 1060.25,-20 1060.25,-14 1066.25,-8 1072.25,-8 1072.25,-8 1108.5,-8 1108.5,-8 1114.5,-8 1120.5,-14 1120.5,-20 1120.5,-20 1120.5,-32 1120.5,-32 1120.5,-38 1114.5,-44 1108.5,-44"/>
<text xml:space="preserve" text-anchor="middle" x="1090.38" y="-18.25" font-family="Times New Roman,serif" font-size="20.00">8 100</text>
</g>
<!-- e_26&#45;&gt;e_2 -->
<g id="edge22" class="edge">
<title>e_26&#45;&gt;e_2</title>
<path fill="none" stroke="black" d="M1059.79,-21.59C1007.38,-14.17 894.74,0 799.12,0 799.12,0 799.12,0 177,0 128.38,0 113.44,-10.99 76,-42 62.43,-53.24 51.41,-69.51 43.56,-83.54"/>
<polygon fill="black" stroke="black" points="40.47,-81.89 38.89,-92.37 46.65,-85.17 40.47,-81.89"/>
<text xml:space="preserve" text-anchor="middle" x="517.25" y="-3.2" font-family="Times New Roman,serif" font-size="14.00">.__class__</text>
</g>
<!-- e_10&#45;&gt;e_9 -->
<g id="edge1" class="edge">
<title>e_10&#45;&gt;e_9</title>
<path fill="none" stroke="black" d="M324.54,-46C289.76,-46 246.77,-46 216.56,-46"/>
<polygon fill="black" stroke="black" points="216.77,-42.5 206.77,-46 216.77,-49.5 216.77,-42.5"/>
</g>
<!-- e_13&#45;&gt;e_12 -->
<g id="edge4" class="edge">
<title>e_13&#45;&gt;e_12</title>
<path fill="none" stroke="black" d="M916.91,-85C878.09,-85 803.71,-85 744.57,-85"/>
<polygon fill="none" stroke="black" points="744.86,-81.5 734.86,-85 744.86,-88.5 744.86,-81.5"/>
</g>
<!-- e_17 -->
<g id="node10" class="node">
<title>e_17</title>
<polygon fill="#3a85b9" stroke="black" points="750,-341 563.75,-341 563.75,-305 750,-305 750,-341"/>
<text xml:space="preserve" text-anchor="middle" x="656.88" y="-315.25" font-family="Times New Roman,serif" font-size="20.00" fill="white">7 time.perf_counter()</text>
</g>
<!-- e_15 -->
<g id="node11" class="node">
<title>e_15</title>
<path fill="#85cbd0" stroke="black" d="M458.75,-341C458.75,-341 310,-341 310,-341 304,-341 298,-335 298,-329 298,-329 298,-317 298,-317 298,-311 304,-305 310,-305 310,-305 458.75,-305 458.75,-305 464.75,-305 470.75,-311 470.75,-317 470.75,-317 470.75,-329 470.75,-329 470.75,-335 464.75,-341 458.75,-341"/>
<text xml:space="preserve" text-anchor="middle" x="384.38" y="-315.25" font-family="Times New Roman,serif" font-size="20.00">7 time.perf_counter</text>
</g>
<!-- e_17&#45;&gt;e_15 -->
<g id="edge5" class="edge">
<title>e_17&#45;&gt;e_15</title>
<path fill="none" stroke="black" d="M563.54,-323C537.29,-323 508.64,-323 482.14,-323"/>
<polygon fill="black" stroke="black" points="482.44,-319.5 472.44,-323 482.44,-326.5 482.44,-319.5"/>
</g>
<!-- e_19 -->
<g id="node12" class="node">
<title>e_19</title>
<path fill="#85cbd0" stroke="black" d="M960.12,-341C960.12,-341 928.38,-341 928.38,-341 922.38,-341 916.38,-335 916.38,-329 916.38,-329 916.38,-317 916.38,-317 916.38,-311 922.38,-305 928.38,-305 928.38,-305 960.12,-305 960.12,-305 966.12,-305 972.12,-311 972.12,-317 972.12,-317 972.12,-329 972.12,-329 972.12,-335 966.12,-341 960.12,-341"/>
<text xml:space="preserve" text-anchor="middle" x="944.25" y="-315.25" font-family="Times New Roman,serif" font-size="20.00">7 dt1</text>
</g>
<!-- e_19&#45;&gt;e_17 -->
<g id="edge6" class="edge">
<title>e_19&#45;&gt;e_17</title>
<path fill="none" stroke="black" d="M915.89,-323C880.52,-323 816.91,-323 761.7,-323"/>
<polygon fill="none" stroke="black" points="761.94,-319.5 751.94,-323 761.94,-326.5 761.94,-319.5"/>
</g>
<!-- e_27 -->
<g id="node13" class="node">
<title>e_27</title>
<polygon fill="#3a85b9" stroke="black" points="1718.38,-116 1508.88,-116 1508.88,-80 1718.38,-80 1718.38,-116"/>
<text xml:space="preserve" text-anchor="middle" x="1613.62" y="-90.25" font-family="Times New Roman,serif" font-size="20.00" fill="white">8 range(100, n + 1, 100)</text>
</g>
<!-- e_27&#45;&gt;e_22 -->
<g id="edge11" class="edge">
<title>e_27&#45;&gt;e_22</title>
<path fill="none" stroke="black" d="M1550.53,-116.45C1503.22,-129.86 1436.27,-147.43 1376.5,-158 1177.05,-193.27 934.57,-207.07 839.82,-211.36"/>
<polygon fill="black" stroke="black" points="839.83,-207.86 830,-211.8 840.14,-214.85 839.83,-207.86"/>
</g>
<!-- e_27&#45;&gt;e_25 -->
<g id="edge12" class="edge">
<title>e_27&#45;&gt;e_25</title>
<path fill="none" stroke="black" d="M1508.77,-107.68C1441.36,-113.96 1356.78,-121.84 1305.23,-126.65"/>
<polygon fill="black" stroke="black" points="1304.95,-123.16 1295.32,-127.57 1305.6,-130.13 1304.95,-123.16"/>
</g>
<!-- e_27&#45;&gt;e_26 -->
<g id="edge13" class="edge">
<title>e_27&#45;&gt;e_26</title>
<path fill="none" stroke="black" d="M1508.48,-98.51C1389.58,-97.78 1203.19,-92.26 1138.5,-66 1130.25,-62.65 1122.4,-57.27 1115.55,-51.53"/>
<polygon fill="black" stroke="black" points="1118.34,-49.33 1108.59,-45.2 1113.64,-54.52 1118.34,-49.33"/>
</g>
<!-- e_20 -->
<g id="node14" class="node">
<title>e_20</title>
<path fill="#85cbd0" stroke="black" d="M1286.5,-57C1286.5,-57 1228.5,-57 1228.5,-57 1222.5,-57 1216.5,-51 1216.5,-45 1216.5,-45 1216.5,-33 1216.5,-33 1216.5,-27 1222.5,-21 1228.5,-21 1228.5,-21 1286.5,-21 1286.5,-21 1292.5,-21 1298.5,-27 1298.5,-33 1298.5,-33 1298.5,-45 1298.5,-45 1298.5,-51 1292.5,-57 1286.5,-57"/>
<text xml:space="preserve" text-anchor="middle" x="1257.5" y="-31.25" font-family="Times New Roman,serif" font-size="20.00">&#45;1 range</text>
</g>
<!-- e_27&#45;&gt;e_20 -->
<g id="edge10" class="edge">
<title>e_27&#45;&gt;e_20</title>
<path fill="none" stroke="black" d="M1554.65,-79.58C1524.24,-70.63 1486.19,-60.52 1451.5,-54.5 1403.98,-46.25 1349.09,-42.38 1310.03,-40.57"/>
<polygon fill="black" stroke="black" points="1310.34,-37.08 1300.2,-40.15 1310.04,-44.07 1310.34,-37.08"/>
<text xml:space="preserve" text-anchor="middle" x="1423" y="-57.7" font-family="Times New Roman,serif" font-size="14.00">.__class__</text>
</g>
<!-- e_32 -->
<g id="node15" class="node">
<title>e_32</title>
<polygon fill="#3a85b9" stroke="black" points="1042.25,-287 846.25,-287 846.25,-251 1042.25,-251 1042.25,-287"/>
<text xml:space="preserve" text-anchor="middle" x="944.25" y="-261.25" font-family="Times New Roman,serif" font-size="20.00" fill="white">14 time.perf_counter()</text>
</g>
<!-- e_31 -->
<g id="node16" class="node">
<title>e_31</title>
<path fill="#85cbd0" stroke="black" d="M736.12,-287C736.12,-287 577.62,-287 577.62,-287 571.62,-287 565.62,-281 565.62,-275 565.62,-275 565.62,-263 565.62,-263 565.62,-257 571.62,-251 577.62,-251 577.62,-251 736.12,-251 736.12,-251 742.12,-251 748.12,-257 748.12,-263 748.12,-263 748.12,-275 748.12,-275 748.12,-281 742.12,-287 736.12,-287"/>
<text xml:space="preserve" text-anchor="middle" x="656.88" y="-261.25" font-family="Times New Roman,serif" font-size="20.00">14 time.perf_counter</text>
</g>
<!-- e_32&#45;&gt;e_31 -->
<g id="edge14" class="edge">
<title>e_32&#45;&gt;e_31</title>
<path fill="none" stroke="black" d="M845.84,-269C818.17,-269 787.96,-269 760.01,-269"/>
<polygon fill="black" stroke="black" points="760.12,-265.5 750.12,-269 760.12,-272.5 760.12,-265.5"/>
</g>
<!-- e_34 -->
<g id="node17" class="node">
<title>e_34</title>
<path fill="#85cbd0" stroke="black" d="M1364.5,-332C1364.5,-332 1150.5,-332 1150.5,-332 1144.5,-332 1138.5,-326 1138.5,-320 1138.5,-320 1138.5,-308 1138.5,-308 1138.5,-302 1144.5,-296 1150.5,-296 1150.5,-296 1364.5,-296 1364.5,-296 1370.5,-296 1376.5,-302 1376.5,-308 1376.5,-308 1376.5,-320 1376.5,-320 1376.5,-326 1370.5,-332 1364.5,-332"/>
<text xml:space="preserve" text-anchor="middle" x="1257.5" y="-306.25" font-family="Times New Roman,serif" font-size="20.00">14 time.perf_counter() &#45; dt1</text>
</g>
<!-- e_34&#45;&gt;e_19 -->
<g id="edge16" class="edge">
<title>e_34&#45;&gt;e_19</title>
<path fill="none" stroke="black" stroke-dasharray="5,2" d="M1138.39,-317.42C1083.64,-319 1022.32,-320.77 983.75,-321.89"/>
<polygon fill="none" stroke="black" points="983.72,-318.39 973.82,-322.17 983.92,-325.38 983.72,-318.39"/>
</g>
<!-- e_34&#45;&gt;e_32 -->
<g id="edge15" class="edge">
<title>e_34&#45;&gt;e_32</title>
<path fill="none" stroke="black" d="M1138.39,-296.92C1110.57,-292.9 1081.06,-288.64 1053.7,-284.68"/>
<polygon fill="black" stroke="black" points="1054.42,-281.25 1044.02,-283.28 1053.42,-288.18 1054.42,-281.25"/>
</g>
<!-- e_35 -->
<g id="node18" class="node">
<title>e_35</title>
<polygon fill="#3a85b9" stroke="black" points="1757.75,-297 1469.5,-297 1469.5,-261 1757.75,-261 1757.75,-297"/>
<text xml:space="preserve" text-anchor="middle" x="1613.62" y="-271.25" font-family="Times New Roman,serif" font-size="20.00" fill="white">14 print(time.perf_counter() &#45; dt1)</text>
</g>
<!-- e_35&#45;&gt;e_34 -->
<g id="edge18" class="edge">
<title>e_35&#45;&gt;e_34</title>
<path fill="none" stroke="black" d="M1469.1,-293.19C1442.26,-295.84 1414.35,-298.6 1387.96,-301.2"/>
<polygon fill="black" stroke="black" points="1387.87,-297.7 1378.26,-302.16 1388.56,-304.66 1387.87,-297.7"/>
</g>
<!-- e_28 -->
<g id="node19" class="node">
<title>e_28</title>
<path fill="#85cbd0" stroke="black" d="M1282.75,-278C1282.75,-278 1232.25,-278 1232.25,-278 1226.25,-278 1220.25,-272 1220.25,-266 1220.25,-266 1220.25,-254 1220.25,-254 1220.25,-248 1226.25,-242 1232.25,-242 1232.25,-242 1282.75,-242 1282.75,-242 1288.75,-242 1294.75,-248 1294.75,-254 1294.75,-254 1294.75,-266 1294.75,-266 1294.75,-272 1288.75,-278 1282.75,-278"/>
<text xml:space="preserve" text-anchor="middle" x="1257.5" y="-252.25" font-family="Times New Roman,serif" font-size="20.00">&#45;1 print</text>
</g>
<!-- e_35&#45;&gt;e_28 -->
<g id="edge17" class="edge">
<title>e_35&#45;&gt;e_28</title>
<path fill="none" stroke="black" d="M1469.1,-271.3C1411.22,-268.19 1348.37,-264.82 1306.54,-262.58"/>
<polygon fill="black" stroke="black" points="1306.74,-259.08 1296.57,-262.04 1306.37,-266.07 1306.74,-259.08"/>
</g>
</g>
</svg>
