<?xml version="1.0" encoding="UTF-8" standalone="no"?>
<!DOCTYPE svg PUBLIC "-//W3C//DTD SVG 1.1//EN"
 "http://www.w3.org/Graphics/SVG/1.1/DTD/svg11.dtd">
<!-- Generated by graphviz version 14.1.2 (20260124.0452)
 -->
<!-- Title: e_1 Pages: 1 -->
<svg width="502pt" height="125pt"
 viewBox="0.00 0.00 502.00 125.00" xmlns="http://www.w3.org/2000/svg" xmlns:xlink="http://www.w3.org/1999/xlink">
<g id="graph0" class="graph" transform="scale(1 1) rotate(0) translate(4 121)">
<title>e_1</title>
<polygon fill="white" stroke="none" points="-4,4 -4,-121 498.25,-121 498.25,4 -4,4"/>
<!-- e_12 -->
<g id="node1" class="node">
<title>e_12</title>
<polygon fill="#3a85b9" stroke="black" points="284,-63 141.25,-63 141.25,-27 284,-27 284,-63"/>
<text xml:space="preserve" text-anchor="middle" x="212.62" y="-37.25" font-family="Times New Roman,serif" font-size="20.00" fill="white">23 len(sys.argv)</text>
</g>
<!-- e_5 -->
<g id="node2" class="node">
<title>e_5</title>
<path fill="#85cbd0" stroke="black" d="M71.5,-90C71.5,-90 33.75,-90 33.75,-90 27.75,-90 21.75,-84 21.75,-78 21.75,-78 21.75,-66 21.75,-66 21.75,-60 27.75,-54 33.75,-54 33.75,-54 71.5,-54 71.5,-54 77.5,-54 83.5,-60 83.5,-66 83.5,-66 83.5,-78 83.5,-78 83.5,-84 77.5,-90 71.5,-90"/>
<text xml:space="preserve" text-anchor="middle" x="52.62" y="-64.25" font-family="Times New Roman,serif" font-size="20.00">&#45;1 len</text>
</g>
<!-- e_12&#45;&gt;e_5 -->
<g id="edge1" class="edge">
<title>e_12&#45;&gt;e_5</title>
<path fill="none" stroke="black" d="M140.94,-57.08C125.28,-59.76 109.18,-62.51 95.13,-64.91"/>
<polygon fill="black" stroke="black" points="94.63,-61.44 85.36,-66.58 95.81,-68.34 94.63,-61.44"/>
</g>
<!-- e_10 -->
<g id="node3" class="node">
<title>e_10</title>
<path fill="#85cbd0" stroke="black" d="M93.25,-36C93.25,-36 12,-36 12,-36 6,-36 0,-30 0,-24 0,-24 0,-12 0,-12 0,-6 6,0 12,0 12,0 93.25,0 93.25,0 99.25,0 105.25,-6 105.25,-12 105.25,-12 105.25,-24 105.25,-24 105.25,-30 99.25,-36 93.25,-36"/>
<text xml:space="preserve" text-anchor="middle" x="52.62" y="-10.25" font-family="Times New Roman,serif" font-size="20.00">23 sys.argv</text>
</g>
<!-- e_12&#45;&gt;e_10 -->
<g id="edge2" class="edge">
<title>e_12&#45;&gt;e_10</title>
<path fill="none" stroke="black" d="M140.94,-32.92C132.79,-31.53 124.52,-30.11 116.48,-28.74"/>
<polygon fill="black" stroke="black" points="117.24,-25.32 106.79,-27.09 116.06,-32.22 117.24,-25.32"/>
</g>
<!-- e_15 -->
<g id="node4" class="node">
<title>e_15</title>
<path fill="#85cbd0" stroke="black" d="M482.25,-63C482.25,-63 332,-63 332,-63 326,-63 320,-57 320,-51 320,-51 320,-39 320,-39 320,-33 326,-27 332,-27 332,-27 482.25,-27 482.25,-27 488.25,-27 494.25,-33 494.25,-39 494.25,-39 494.25,-51 494.25,-51 494.25,-57 488.25,-63 482.25,-63"/>
<text xml:space="preserve" text-anchor="middle" x="407.12" y="-37.25" font-family="Times New Roman,serif" font-size="20.00">23 len(sys.argv) &lt; 2</text>
</g>
<!-- e_15&#45;&gt;e_12 -->
<g id="edge3" class="edge">
<title>e_15&#45;&gt;e_12</title>
<path fill="none" stroke="black" d="M319.73,-45C311.8,-45 303.79,-45 295.9,-45"/>
<polygon fill="black" stroke="black" points="295.98,-41.5 285.98,-45 295.98,-48.5 295.98,-41.5"/>
</g>
<!-- e_24 -->
<g id="node5" class="node">
<title>e_24</title>
<polygon fill="#3a85b9" stroke="black" points="454.12,-117 360.12,-117 360.12,-81 454.12,-81 454.12,-117"/>
<text xml:space="preserve" text-anchor="middle" x="407.12" y="-91.25" font-family="Times New Roman,serif" font-size="20.00" fill="white">35 main()</text>
</g>
<!-- e_17 -->
<g id="node6" class="node">
<title>e_17</title>
<path fill="#85cbd0" stroke="black" d="M240.88,-117C240.88,-117 184.38,-117 184.38,-117 178.38,-117 172.38,-111 172.38,-105 172.38,-105 172.38,-93 172.38,-93 172.38,-87 178.38,-81 184.38,-81 184.38,-81 240.88,-81 240.88,-81 246.88,-81 252.88,-87 252.88,-93 252.88,-93 252.88,-105 252.88,-105 252.88,-111 246.88,-117 240.88,-117"/>
<text xml:space="preserve" text-anchor="middle" x="212.62" y="-91.25" font-family="Times New Roman,serif" font-size="20.00">29 main</text>
</g>
<!-- e_24&#45;&gt;e_17 -->
<g id="edge4" class="edge">
<title>e_24&#45;&gt;e_17</title>
<path fill="none" stroke="black" d="M360.02,-99C331.25,-99 294.18,-99 264.55,-99"/>
<polygon fill="black" stroke="black" points="264.69,-95.5 254.69,-99 264.69,-102.5 264.69,-95.5"/>
</g>
</g>
</svg>
